<svg id="Capa_1" data-name="Capa 1" xmlns="http://www.w3.org/2000/svg" viewBox="0 0 3097.86 117.95">
    <defs>
        <style>
            .cls-1 {
                fill: #010101
            }
        </style>
    </defs>
    <path class="cls-1"
        d="M59.19 3v45.49a1.73 1.73 0 0 1-.52 1.24 1.77 1.77 0 0 1-2.49 0 1.74 1.74 0 0 1-.51-1.24V3a2.3 2.3 0 0 1-.63-1.61 2.37 2.37 0 0 1 4.73 0A2.35 2.35 0 0 1 59.19 3ZM73.72 21.62a2.36 2.36 0 0 1-1.43 2.18l-3.21 5.56V42l-3.5 3.52V27.94L69 22a2.58 2.58 0 0 1 0-.4 2.37 2.37 0 0 1 4.74 0ZM95.31 44.31a2.37 2.37 0 0 1-2.37 2.36h-.39l-5.93 3.44H69.06l3.52-3.51h12.61l5.56-3.2a2.38 2.38 0 0 1 4.56.94ZM82.18 33.43v.11l-.11-.11h.11z" />
    <path class="cls-1" d="M82.18 33.43v.11l-.11-.11h.11z" />
    <path class="cls-1"
        d="M96.67 34.55a2.37 2.37 0 0 1-2.37 2.37 2.33 2.33 0 0 1-2-1.05h-11l-8.52 8.52-1.74-1.73L79.73 34V23.5a2.38 2.38 0 1 1 3.5-2.09 2.33 2.33 0 0 1-1 2v10h10a2.37 2.37 0 0 1 2.09-1.25 2.41 2.41 0 0 1 2.35 2.39ZM113 60H67.51a1.69 1.69 0 0 1-1.24-.52 1.76 1.76 0 0 1 1.23-3H113a2.38 2.38 0 1 1 1.62 4.12A2.36 2.36 0 0 1 113 60ZM94.35 74.49a2.38 2.38 0 0 1-2.18-1.44l-5.56-3.2H74l-3.52-3.51H88l6 3.45a1.72 1.72 0 0 1 .39 0 2.37 2.37 0 0 1 0 4.74ZM71.68 96.08a2.37 2.37 0 0 1-2.37-2.37 1.72 1.72 0 0 1 0-.39l-3.44-5.93V69.82l3.5 3.53V86l3.21 5.56a2.38 2.38 0 0 1-.94 4.56ZM82.55 82.95h-.12l.12-.11v.11z" />
    <path class="cls-1" d="M82.55 82.95h-.12l.12-.11v.11z" />
    <path class="cls-1"
        d="M96.67 82.92a2.41 2.41 0 0 1-2.1 1.26 2.37 2.37 0 0 1-2-1.06h-10v10a2.38 2.38 0 0 1-1.14 4.47 2.36 2.36 0 0 1-1.32-4.33v-11l-8.52-8.52L73.31 72 82 80.68h10.5a2.38 2.38 0 1 1 4.19 2.24ZM55.69 113.29V67.8a1.76 1.76 0 0 1 3.52 0v45.49a2.36 2.36 0 0 1-1.73 4 2.38 2.38 0 0 1-2.39-2.36 2.3 2.3 0 0 1 .6-1.64ZM41.16 94.64a2.36 2.36 0 0 1 1.43-2.18l3.2-5.56V74.28l3.51-3.52v17.57l-3.43 5.91a1.72 1.72 0 0 1 0 .39 2.38 2.38 0 0 1-4.75 0ZM19.57 72a2.37 2.37 0 0 1 2.36-2.37 1.75 1.75 0 0 1 .4 0l5.92-3.45h17.57L42.3 69.7H29.68l-5.55 3.2a2.38 2.38 0 0 1-4.56-.9ZM32.69 82.83v-.11l.11.11h-.11z" />
    <path class="cls-1" d="M32.69 82.83v-.11l.11.11h-.11z" />
    <path class="cls-1"
        d="M36.11 96a2.38 2.38 0 0 1-4.48-1.13 2.34 2.34 0 0 1 1.06-2v-10h-10a2.39 2.39 0 0 1-2.09 1.26 2.42 2.42 0 0 1-2.37-2.4 2.37 2.37 0 0 1 2.37-2.36 2.32 2.32 0 0 1 2 1h11l8.52-8.53 1.73 1.74-8.66 8.66v10.5a2.39 2.39 0 0 1 .92 3.26ZM4 56.48h45.49a1.73 1.73 0 0 1 1.24.52 1.76 1.76 0 0 1 0 2.49 1.72 1.72 0 0 1-1.23.51H4a2.34 2.34 0 0 1-1.61.64 2.38 2.38 0 0 1 0-4.75 2.23 2.23 0 0 1 1.61.59ZM22.66 42a2.36 2.36 0 0 1 2.17 1.43l5.56 3.2H43l3.52 3.51H29l-5.93-3.44a2.58 2.58 0 0 1-.39 0 2.37 2.37 0 0 1 0-4.74ZM45.34 20.36a2.38 2.38 0 0 1 2.37 2.37 2.58 2.58 0 0 1 0 .39l3.44 5.93v17.56l-3.5-3.52V30.48l-3.25-5.56a2.38 2.38 0 0 1-1.23-3.13 2.35 2.35 0 0 1 2.17-1.43ZM34.47 33.48h.1l-.1.11v-.11z" />
    <path class="cls-1" d="M34.47 33.48h.1l-.1.11v-.11z" />
    <path class="cls-1"
        d="M45.43 42.86 43.7 44.6 35 35.93H24.54a2.37 2.37 0 1 1-.12-2.44h10v-10A2.38 2.38 0 0 1 35.59 19 2.38 2.38 0 0 1 38 21.36a2.36 2.36 0 0 1-1.06 2v11ZM183.4 3.05v45.49a1.73 1.73 0 0 1-.52 1.25 1.76 1.76 0 0 1-3-1.23V3.05a2.33 2.33 0 0 1-.63-1.61 2.37 2.37 0 0 1 2.36-2.37A2.38 2.38 0 0 1 184 1.44a2.33 2.33 0 0 1-.6 1.61ZM197.92 21.71a2.38 2.38 0 0 1-1.43 2.18l-3.2 5.56v12.61l-3.51 3.52V28l3.44-5.93a2.56 2.56 0 0 1 0-.39 2.37 2.37 0 1 1 4.73 0ZM219.52 44.39a2.38 2.38 0 0 1-2.37 2.37 1.81 1.81 0 0 1-.4 0l-5.92 3.45h-17.57l3.52-3.51h12.62l5.6-3.25a2.38 2.38 0 0 1 4.56.94ZM206.38 33.51v.12l-.11-.12h.11z" />
    <path class="cls-1" d="M206.38 33.51v.12l-.11-.12h.11z" />
    <path class="cls-1"
        d="M220.87 34.64a2.36 2.36 0 0 1-4.33 1.36h-11L197 44.48l-1.73-1.74 8.66-8.66v-10.5a2.38 2.38 0 1 1 3.49-2.09 2.34 2.34 0 0 1-1.05 2v10h10a2.37 2.37 0 0 1 4.46 1.14ZM237.21 60h-45.49a1.73 1.73 0 0 1-1.24-.52 1.76 1.76 0 0 1 0-2.49 1.72 1.72 0 0 1 1.23-.51h45.5a2.28 2.28 0 0 1 1.6-.63 2.37 2.37 0 1 1 0 4.74 2.33 2.33 0 0 1-1.6-.62ZM218.55 74.57a2.36 2.36 0 0 1-2.17-1.43l-5.56-3.21H198.2l-3.52-3.5h17.57l5.92 3.44a2.58 2.58 0 0 1 .4 0 2.37 2.37 0 1 1 0 4.74ZM195.88 96.16a2.37 2.37 0 0 1-2.36-2.37 2.56 2.56 0 0 1 0-.39l-3.44-5.92V69.91l3.51 3.52V86l3.2 5.56a2.38 2.38 0 0 1-.94 4.56ZM206.75 83.03h-.11l.11-.1v.1z" />
    <path class="cls-1" d="M206.75 83.03h-.11l.11-.1v.1z" />
    <path class="cls-1"
        d="M220.87 83a2.37 2.37 0 0 1-2.1 1.26 2.33 2.33 0 0 1-2-1.05h-10.01v10a2.37 2.37 0 0 1 1 3.21 2.4 2.4 0 0 1-2.12 1.26 2.37 2.37 0 0 1-1.31-4.34v-11l-8.53-8.52 1.74-1.74 8.66 8.66h10.5a2.38 2.38 0 0 1 4.17 2.26ZM179.89 113.37V67.88a1.69 1.69 0 0 1 .52-1.24 1.75 1.75 0 0 1 2.48 0 1.81 1.81 0 0 1 .52 1.24v45.49a2.37 2.37 0 1 1-4.11 1.61 2.27 2.27 0 0 1 .59-1.61ZM165.36 94.72a2.37 2.37 0 0 1 1.43-2.18L170 87V74.37l3.51-3.52v17.56l-3.44 5.92a1.72 1.72 0 0 1 0 .39 2.38 2.38 0 1 1-4.75 0ZM143.77 72.05a2.37 2.37 0 0 1 2.37-2.37 1.72 1.72 0 0 1 .39 0l5.93-3.44H170l-3.52 3.5h-12.59L148.33 73a2.38 2.38 0 0 1-4.56-.94ZM156.89 82.92v-.12l.11.12h-.11z" />
    <path class="cls-1" d="M156.89 82.92v-.12l.11.12h-.11z" />
    <path class="cls-1"
        d="M160.31 96.06a2.38 2.38 0 1 1-3.42-3.06V83h-10a2.37 2.37 0 0 1-2.09 1.25 2.41 2.41 0 0 1-2.37-2.39 2.37 2.37 0 0 1 2.37-2.37 2.33 2.33 0 0 1 2 1h11l8.46-8.49 1.74 1.68-8.67 8.67v10.49a2.38 2.38 0 0 1 .98 3.22ZM128.2 56.56h45.5a1.69 1.69 0 0 1 1.24.52 1.76 1.76 0 0 1-1.23 3H128.2a2.38 2.38 0 1 1-1.64-4.12 2.27 2.27 0 0 1 1.64.6ZM146.86 42a2.38 2.38 0 0 1 2.14 1.47l5.56 3.2h12.62l3.52 3.51h-17.52l-5.93-3.45a1.72 1.72 0 0 1-.39 0 2.37 2.37 0 1 1 0-4.74ZM169.54 20.44a2.37 2.37 0 0 1 2.37 2.37 1.72 1.72 0 0 1 0 .39l3.45 5.93V46.7l-3.51-3.53V30.56L168.6 25a2.38 2.38 0 0 1 .94-4.56ZM158.68 33.56h.1l-.1.12v-.12z" />
    <path class="cls-1" d="M158.68 33.56h.1l-.1.12v-.12z" />
    <path class="cls-1"
        d="m169.63 43-1.72 1.73-8.67-8.73h-10.49a2.38 2.38 0 1 1-.13-2.45h10v-10a2.38 2.38 0 0 1 1.13-4.47 2.38 2.38 0 0 1 2.37 2.37 2.33 2.33 0 0 1-1 2v11ZM307.6 3.14v45.49a1.67 1.67 0 0 1-.52 1.24 1.76 1.76 0 0 1-3-1.23V3.14a2.39 2.39 0 0 1-.63-1.61 2.37 2.37 0 0 1 4.74 0 2.35 2.35 0 0 1-.59 1.61ZM322.13 21.79A2.38 2.38 0 0 1 320.7 24l-3.21 5.56v12.58L314 45.67V28.11l3.45-5.92a1.81 1.81 0 0 1 0-.4 2.37 2.37 0 0 1 4.74 0ZM343.72 44.47a2.37 2.37 0 0 1-2.37 2.37 1.72 1.72 0 0 1-.39 0L335 50.25h-17.54l3.54-3.51h12.6l5.56-3.2a2.38 2.38 0 0 1 4.56.93ZM330.59 33.6v.11l-.12-.11h.12z" />
    <path class="cls-1" d="M330.59 33.6v.11l-.12-.11h.12z" />
    <path class="cls-1"
        d="M345.07 34.72a2.36 2.36 0 0 1-4.33 1.28h-11l-8.53 8.52-1.73-1.73 8.66-8.66V23.67a2.38 2.38 0 1 1 2.45-.13v10h10a2.36 2.36 0 0 1 2.09-1.25 2.4 2.4 0 0 1 2.39 2.43ZM361.41 60.13h-45.49a1.69 1.69 0 0 1-1.24-.52 1.76 1.76 0 0 1 1.23-3h45.49A2.35 2.35 0 0 1 363 56a2.38 2.38 0 1 1-1.6 4.13ZM342.76 74.65a2.36 2.36 0 0 1-2.18-1.43L335 70h-12.6l-3.52-3.51h17.57l5.93 3.51a1.72 1.72 0 0 1 .39 0 2.37 2.37 0 1 1 0 4.73ZM320.09 96.25a2.38 2.38 0 0 1-2.37-2.37 1.72 1.72 0 0 1 0-.39l-3.45-5.93V70l3.51 3.52v12.61l3.2 5.56a2.38 2.38 0 0 1 1.24 3.13 2.4 2.4 0 0 1-2.17 1.43ZM330.95 83.11h-.11l.11-.1v.1z" />
    <path class="cls-1" d="M330.95 83.11h-.11l.11-.1v.1z" />
    <path class="cls-1"
        d="M345.07 83.09a2.36 2.36 0 0 1-2.1 1.25 2.32 2.32 0 0 1-2-1H331v10a2.38 2.38 0 0 1-1.14 4.47 2.37 2.37 0 0 1-2.37-2.37 2.31 2.31 0 0 1 1.05-2v-11L320 73.92l1.73-1.73 8.66 8.66h10.5a2.38 2.38 0 1 1 4.19 2.24ZM304.09 113.46V68a1.69 1.69 0 0 1 .52-1.24 1.74 1.74 0 0 1 2.48 0 1.73 1.73 0 0 1 .51 1.24v45.5a2.37 2.37 0 1 1-4.12 1.6 2.24 2.24 0 0 1 .61-1.64ZM289.57 94.8a2.36 2.36 0 0 1 1.43-2.17l3.2-5.56V74.45l3.51-3.52V88.5l-3.43 5.91a2.56 2.56 0 0 1 0 .39 2.37 2.37 0 1 1-4.74 0ZM268 72.13a2.37 2.37 0 0 1 2.37-2.36 2.56 2.56 0 0 1 .39 0l5.93-3.44h17.57l-3.52 3.51h-12.65l-5.56 3.2a2.38 2.38 0 0 1-3.13 1.24 2.41 2.41 0 0 1-1.4-2.15ZM281.09 83v-.11l.12.11h-.12z" />
    <path class="cls-1" d="M281.09 83v-.11l.12.11h-.12z" />
    <path class="cls-1"
        d="M284.51 96.14A2.37 2.37 0 0 1 280 95a2.33 2.33 0 0 1 1-2V83h-10a2.39 2.39 0 0 1-2 1.27 2.42 2.42 0 0 1-2.37-2.4 2.37 2.37 0 0 1 4.34-1.31h11l8.49-8.56 1.74 1.74-8.66 8.66v10.5a2.38 2.38 0 0 1 .97 3.24ZM252.41 56.65h45.49a1.76 1.76 0 0 1 0 3.52h-45.5a2.3 2.3 0 0 1-1.61.63 2.38 2.38 0 0 1 0-4.75 2.3 2.3 0 0 1 1.62.6ZM271.06 42.12a2.37 2.37 0 0 1 2.18 1.43l5.56 3.2h12.63l3.57 3.51h-17.62l-5.93-3.44a2.45 2.45 0 0 1-.39 0 2.37 2.37 0 0 1 0-4.74ZM293.74 20.53a2.37 2.37 0 0 1 2.37 2.36 1.75 1.75 0 0 1 0 .4l3.45 5.92v17.57L296 43.26V30.64l-3.2-5.55a2.38 2.38 0 0 1 .93-4.56ZM282.88 33.65h.1l-.1.11v-.11z" />
    <path class="cls-1" d="M282.88 33.65h.1l-.1.11v-.11z" />
    <path class="cls-1"
        d="m293.83 43-1.72 1.74-8.66-8.67H273a2.38 2.38 0 1 1-2.09-3.49 2.33 2.33 0 0 1 2 1h10v-10a2.38 2.38 0 0 1 1.09-4.42 2.36 2.36 0 0 1 1.32 4.33v11ZM431.8 3.22v45.49a1.73 1.73 0 0 1-.5 1.29 1.76 1.76 0 0 1-2.49 0 1.72 1.72 0 0 1-.51-1.23V3.22a2.34 2.34 0 0 1-.64-1.61 2.37 2.37 0 0 1 4.74 0 2.33 2.33 0 0 1-.6 1.61ZM446.33 21.88a2.38 2.38 0 0 1-1.43 2.18l-3.21 5.55v12.62l-3.5 3.52V28.2l3.44-5.93a2.58 2.58 0 0 1 0-.39 2.37 2.37 0 1 1 4.74 0ZM467.92 44.56a2.38 2.38 0 0 1-2.37 2.37 1.72 1.72 0 0 1-.39 0l-5.93 3.44h-17.56l3.52-3.5h12.61l5.56-3.21a2.38 2.38 0 0 1 4.56.94ZM454.79 33.68v.11l-.11-.11h.11z" />
    <path class="cls-1" d="M454.79 33.68v.11l-.11-.11h.11z" />
    <path class="cls-1"
        d="M469.28 34.81a2.38 2.38 0 0 1-2.37 2.37 2.34 2.34 0 0 1-2-1.06h-11l-8.52 8.53-1.74-1.74 8.66-8.66v-10.5a2.38 2.38 0 1 1 3.5-2.09 2.33 2.33 0 0 1-1 2v10.01h10a2.37 2.37 0 0 1 4.46 1.14ZM485.61 60.21h-45.49a1.77 1.77 0 0 1-1.25-3 1.81 1.81 0 0 1 1.24-.52h45.49a2.37 2.37 0 1 1 1.62 4.11 2.4 2.4 0 0 1-1.61-.62ZM467 74.74a2.37 2.37 0 0 1-2.18-1.43l-5.56-3.21h-12.65l-3.52-3.5h17.56l5.93 3.4a1.72 1.72 0 0 1 .39 0 2.37 2.37 0 0 1 0 4.74ZM444.29 96.33a2.37 2.37 0 0 1-2.37-2.33 1.72 1.72 0 0 1 0-.39l-3.44-5.93v-17.6L442 73.6v12.61l3.21 5.56a2.39 2.39 0 0 1 1.23 3.13 2.36 2.36 0 0 1-2.17 1.43ZM455.16 83.2h-.12l.12-.1v.1z" />
    <path class="cls-1" d="M455.16 83.2h-.12l.12-.1v.1z" />
    <path class="cls-1"
        d="M469.28 83.17a2.38 2.38 0 0 1-4.07.21h-10v10a2.38 2.38 0 0 1-1.21 4.49 2.36 2.36 0 0 1-1.32-4.33v-11L444.19 74l1.73-1.73 8.67 8.66h10.5a2.38 2.38 0 0 1 4.19 2.24ZM428.29 113.54V68.05a1.76 1.76 0 0 1 3.52 0v45.49a2.37 2.37 0 0 1-1.73 4 2.39 2.39 0 0 1-2.39-2.37 2.36 2.36 0 0 1 .6-1.63ZM413.77 94.89a2.37 2.37 0 0 1 1.43-2.18l3.2-5.56V74.54l3.51-3.54v17.58l-3.43 5.92a1.67 1.67 0 0 1 0 .39 2.38 2.38 0 0 1-4.75 0ZM392.18 72.22a2.37 2.37 0 0 1 2.36-2.37 1.75 1.75 0 0 1 .4 0l5.92-3.45h17.57l-3.52 3.6h-12.62l-5.56 3.21a2.37 2.37 0 0 1-4.55-.94ZM405.3 83.08v-.11l.11.11h-.11z" />
    <path class="cls-1" d="M405.3 83.08v-.11l.11.11h-.11z" />
    <path class="cls-1"
        d="M408.72 96.23a2.38 2.38 0 1 1-3.42-3.09v-10h-10a2.37 2.37 0 1 1-2.09-3.51 2.35 2.35 0 0 1 2 1h11l8.53-8.52 1.73 1.73-8.66 8.66V93a2.39 2.39 0 0 1 .91 3.23ZM376.61 56.73h45.49a1.65 1.65 0 0 1 1.24.52 1.76 1.76 0 0 1-1.23 3h-45.5a2.38 2.38 0 1 1-1.61-4.14 2.27 2.27 0 0 1 1.61.62ZM395.27 42.2a2.38 2.38 0 0 1 2.17 1.43l5.56 3.21h12.63l3.52 3.51h-17.56l-5.93-3.45a1.72 1.72 0 0 1-.39 0 2.37 2.37 0 0 1 0-4.74ZM418 20.61a2.38 2.38 0 0 1 2.32 2.39 2.58 2.58 0 0 1 0 .39l3.44 5.93v17.54l-3.51-3.52V30.73L417 25.17a2.38 2.38 0 0 1 .94-4.56ZM407.08 33.73h.1l-.1.11v-.11z" />
    <path class="cls-1" d="M407.08 33.73h.1l-.1.11v-.11z" />
    <path class="cls-1"
        d="m418 43.11-1.73 1.74-8.66-8.66h-10.5a2.37 2.37 0 1 1-.12-2.45h10v-10a2.38 2.38 0 0 1 1.13-4.47 2.37 2.37 0 0 1 2.36 2.37 2.31 2.31 0 0 1-1.05 2v11ZM556 3.31V48.8a1.72 1.72 0 0 1-.5 1.2 1.76 1.76 0 0 1-3-1.23V3.31a2.37 2.37 0 0 1 1.73-4 2.35 2.35 0 0 1 2.37 2.36 2.34 2.34 0 0 1-.6 1.64ZM570.53 22a2.37 2.37 0 0 1-1.43 2.18l-3.2 5.56v12.57l-3.51 3.52V28.28l3.44-5.93a2.56 2.56 0 0 1 0-.39 2.37 2.37 0 1 1 4.73 0ZM592.13 44.64a2.38 2.38 0 0 1-2.37 2.36 1.81 1.81 0 0 1-.4 0l-5.92 3.45h-17.57l3.52-3.51H582l5.56-3.2a2.37 2.37 0 0 1 3.12-1.24 2.4 2.4 0 0 1 1.44 2.17ZM578.99 33.76v.12l-.11-.12h.11z" />
    <path class="cls-1" d="M578.99 33.76v.12l-.11-.12h.11z" />
    <path class="cls-1"
        d="M593.48 34.89a2.37 2.37 0 0 1-2.37 2.37 2.33 2.33 0 0 1-2-1h-11l-8.52 8.52-1.7-1.78 8.66-8.67V23.84a2.38 2.38 0 1 1 3.45-2.09 2.33 2.33 0 0 1-1 2v10h10a2.37 2.37 0 0 1 4.46 1.14ZM609.82 60.3h-45.49a1.69 1.69 0 0 1-1.24-.52 1.74 1.74 0 0 1 0-2.48 1.73 1.73 0 0 1 1.23-.52h45.5a2.32 2.32 0 0 1 1.6-.63 2.38 2.38 0 1 1-1.59 4.13ZM591.16 74.82a2.38 2.38 0 0 1-2.16-1.43l-5.55-3.2h-12.64l-3.52-3.51h17.57l5.92 3.44a2.6 2.6 0 0 1 .4 0 2.37 2.37 0 1 1 0 4.73ZM568.49 96.42a2.38 2.38 0 0 1-2.36-2.37 1.67 1.67 0 0 1 0-.39l-3.44-5.93V70.16l3.51 3.52V86.3l3.2 5.56a2.37 2.37 0 0 1 1.27 3.14 2.4 2.4 0 0 1-2.18 1.44ZM579.36 83.28h-.11l.11-.1v.1z" />
    <path class="cls-1" d="M579.36 83.28h-.11l.11-.1v.1z" />
    <path class="cls-1"
        d="M593.48 83.26a2.39 2.39 0 0 1-2.1 1.25 2.31 2.31 0 0 1-2-1.05h-10v10a2.37 2.37 0 0 1-1.15 4.54 2.38 2.38 0 0 1-2.37-2.37 2.34 2.34 0 0 1 1.06-2v-11l-8.53-8.52 1.74-1.74 8.66 8.63h10.5a2.38 2.38 0 1 1 4.19 2.24ZM552.5 113.63V68.14a1.72 1.72 0 0 1 .51-1.25 1.77 1.77 0 0 1 2.49 0 1.81 1.81 0 0 1 .52 1.24v45.49a2.37 2.37 0 0 1-.12 3.35 2.35 2.35 0 0 1-1.61.63 2.38 2.38 0 0 1-2.38-2.37 2.24 2.24 0 0 1 .59-1.6ZM538 95a2.38 2.38 0 0 1 1.43-2.18l3.21-5.56V74.62l3.51-3.52v17.57l-3.44 5.91a1.72 1.72 0 0 1 0 .39A2.38 2.38 0 1 1 538 95ZM516.38 72.3a2.38 2.38 0 0 1 2.37-2.37 2.58 2.58 0 0 1 .39 0l5.93-3.44h17.56L539.11 70H526.5l-5.56 3.2a2.38 2.38 0 0 1-3.13 1.23 2.35 2.35 0 0 1-1.43-2.17ZM529.5 83.17v-.11l.11.11h-.11z" />
    <path class="cls-1" d="M529.5 83.17v-.11l.11.11h-.11z" />
    <path class="cls-1"
        d="M532.92 96.31a2.38 2.38 0 1 1-3.42-3.09v-10h-10a2.37 2.37 0 0 1-2.09 1.25A2.41 2.41 0 0 1 515 82a2.36 2.36 0 0 1 4.33-1.32h11l8.52-8.52 1.74 1.74-8.67 8.66V93.1a2.37 2.37 0 0 1 1 3.21ZM500.81 56.81h45.5a1.76 1.76 0 0 1 0 3.52h-45.5a2.32 2.32 0 0 1-1.6.63 2.38 2.38 0 1 1 0-4.75 2.27 2.27 0 0 1 1.6.6ZM519.47 42.29a2.37 2.37 0 0 1 2.18 1.43l5.56 3.2h12.62l3.52 3.51h-17.56L519.86 47h-.39a2.37 2.37 0 1 1 0-4.73ZM542.15 20.69a2.38 2.38 0 0 1 2.37 2.37 1.81 1.81 0 0 1 0 .4l3.45 5.92V47l-3.51-3.52V30.81l-3.21-5.56a2.38 2.38 0 0 1 .94-4.56ZM531.28 33.81h.11l-.11.12v-.12z" />
    <path class="cls-1" d="M531.28 33.81h.11l-.11.12v-.12z" />
    <path class="cls-1"
        d="m542.24 43.2-1.72 1.73-8.67-8.66h-10.49a2.38 2.38 0 1 1-2.09-3.49 2.33 2.33 0 0 1 2 1h10v-10a2.38 2.38 0 0 1 1.13-4.47 2.36 2.36 0 0 1 1.32 4.33v11ZM680.21 3.39v45.49a1.65 1.65 0 0 1-.52 1.24 1.76 1.76 0 0 1-3-1.23V3.39a2.39 2.39 0 0 1-.63-1.61 2.37 2.37 0 0 1 4.74 0 2.33 2.33 0 0 1-.59 1.61ZM694.74 22.05a2.37 2.37 0 0 1-1.44 2.17l-3.2 5.56V42.4l-3.51 3.52V28.37l3.41-5.93a1.72 1.72 0 0 1 0-.39 2.37 2.37 0 0 1 4.74 0ZM716.33 44.73A2.38 2.38 0 0 1 714 47.1a2.58 2.58 0 0 1-.39 0l-5.93 3.44h-17.61L693.6 47h12.61l5.56-3.2a2.38 2.38 0 0 1 4.56.94ZM703.2 33.85v.11l-.12-.11h.12z" />
    <path class="cls-1" d="M703.2 33.85v.11l-.12-.11h.12z" />
    <path class="cls-1"
        d="M717.68 35a2.36 2.36 0 0 1-2.36 2.36 2.34 2.34 0 0 1-2-1.05h-11l-8.53 8.53-1.73-1.74 8.66-8.66V23.92a2.38 2.38 0 1 1 2.45-.13v10.05h10a2.37 2.37 0 0 1 2.09-1.26 2.41 2.41 0 0 1 2.42 2.42ZM734 60.38h-45.47a1.65 1.65 0 0 1-1.24-.52 1.76 1.76 0 0 1 1.23-3H734a2.34 2.34 0 0 1 1.61-.64 2.38 2.38 0 1 1-1.6 4.13ZM715.37 74.91a2.38 2.38 0 0 1-2.18-1.43l-5.56-3.21H695l-3.52-3.51h17.57l5.95 3.45a1.72 1.72 0 0 1 .39 0 2.37 2.37 0 1 1 0 4.74ZM692.7 96.5a2.37 2.37 0 0 1-2.37-2.37 1.72 1.72 0 0 1 0-.39l-3.45-5.93V70.25l3.51 3.52v12.61l3.2 5.56a2.38 2.38 0 0 1-.93 4.56ZM703.56 83.37h-.11l.11-.1v.1z" />
    <path class="cls-1" d="M703.56 83.37h-.11l.11-.1v.1z" />
    <path class="cls-1"
        d="M717.68 83.34a2.39 2.39 0 0 1-2.1 1.26 2.36 2.36 0 0 1-2-1.06h-10v10a2.38 2.38 0 0 1-1.14 4.46 2.37 2.37 0 0 1-2.37-2.36 2.33 2.33 0 0 1 1-2v-11l-8.53-8.53 1.74-1.73L703 81.1h10.5a2.38 2.38 0 0 1 4.19 2.24ZM676.7 113.71V68.22a1.69 1.69 0 0 1 .52-1.24 1.76 1.76 0 0 1 3 1.23v45.49a2.37 2.37 0 1 1-4.12 1.61 2.25 2.25 0 0 1 .6-1.6ZM662.18 95.06a2.36 2.36 0 0 1 1.43-2.18l3.2-5.56V74.7l3.51-3.52v17.57l-3.43 5.91a2.6 2.6 0 0 1 0 .4 2.37 2.37 0 1 1-4.74 0ZM640.58 72.39A2.37 2.37 0 0 1 643 70a1.72 1.72 0 0 1 .39 0l5.93-3.45h17.57l-3.53 3.51H650.7l-5.56 3.2a2.38 2.38 0 0 1-3.14 1.3 2.4 2.4 0 0 1-1.43-2.17ZM653.7 83.25v-.11l.12.11h-.12z" />
    <path class="cls-1" d="M653.7 83.25v-.11l.12.11h-.12z" />
    <path class="cls-1"
        d="M657.12 96.4a2.38 2.38 0 0 1-4.47-1.13 2.35 2.35 0 0 1 1.05-2v-10h-10a2.36 2.36 0 0 1-2.09 1.25 2.41 2.41 0 0 1-2.37-2.39 2.37 2.37 0 0 1 4.34-1.32h11l8.52-8.52 1.71 1.71-8.66 8.66v10.5a2.38 2.38 0 0 1 .97 3.24ZM625 56.9h45.49a1.7 1.7 0 0 1 1.24.51 1.77 1.77 0 0 1 0 2.49 1.79 1.79 0 0 1-1.24.52H625a2.38 2.38 0 1 1-1.65-4.11 2.29 2.29 0 0 1 1.65.59ZM643.67 42.37a2.37 2.37 0 0 1 2.18 1.43l5.56 3.2H664l3.52 3.51H650l-5.93-3.45a1.67 1.67 0 0 1-.39 0 2.37 2.37 0 0 1 0-4.74ZM666.35 20.78a2.37 2.37 0 0 1 2.37 2.37 1.72 1.72 0 0 1 0 .39l3.45 5.93V47l-3.51-3.52V30.9l-3.2-5.56a2.38 2.38 0 0 1 .93-4.56ZM655.49 33.9h.1l-.1.11v-.11z" />
    <path class="cls-1" d="M655.49 33.9h.1l-.1.11v-.11z" />
    <path class="cls-1"
        d="M666.44 43.28 664.72 45l-8.66-8.66h-10.5a2.38 2.38 0 1 1-2.09-3.5 2.33 2.33 0 0 1 2 1h10v-10a2.38 2.38 0 0 1 1.13-4.47 2.37 2.37 0 0 1 2.4 2.41 2.33 2.33 0 0 1-1.05 2v11ZM804.41 3.47v45.5a1.76 1.76 0 1 1-3.52 0V3.47a2.33 2.33 0 0 1-.64-1.6 2.37 2.37 0 1 1 4.74 0 2.3 2.3 0 0 1-.58 1.6ZM818.94 22.13a2.37 2.37 0 0 1-1.43 2.18l-3.21 5.56v12.61L810.8 46V28.45l3.44-5.93a2.58 2.58 0 0 1 0-.39 2.37 2.37 0 1 1 4.74 0ZM840.53 44.81a2.37 2.37 0 0 1-2.37 2.37 1.72 1.72 0 0 1-.39 0l-5.93 3.45h-17.56l3.52-3.51h12.61l5.59-3.25a2.38 2.38 0 0 1 4.56.94ZM827.4 33.93v.12l-.12-.12h.12z" />
    <path class="cls-1" d="M827.4 33.93v.12l-.12-.12h.12z" />
    <path class="cls-1"
        d="M841.89 35.06a2.37 2.37 0 0 1-2.37 2.37 2.33 2.33 0 0 1-2-1h-11L818 44.9l-1.74-1.73L825 34.5V24a2.37 2.37 0 1 1 2.45-.12v10h10a2.37 2.37 0 0 1 2.09-1.25 2.41 2.41 0 0 1 2.35 2.43ZM858.22 60.47h-45.49a1.76 1.76 0 0 1 0-3.52h45.49a2.38 2.38 0 0 1 4 1.74 2.38 2.38 0 0 1-4 1.76ZM839.57 75a2.37 2.37 0 0 1-2.18-1.43l-5.56-3.2h-12.61l-3.52-3.51h17.56l5.93 3.44a2.58 2.58 0 0 1 .39 0 2.37 2.37 0 1 1 0 4.74ZM816.9 96.58a2.37 2.37 0 0 1-2.37-2.36 1.75 1.75 0 0 1 0-.4l-3.45-5.92V70.33l3.51 3.52v12.62l3.25 5.53a2.39 2.39 0 0 1 1.23 3.13 2.36 2.36 0 0 1-2.17 1.43ZM827.77 83.45h-.12l.12-.1v.1z" />
    <path class="cls-1" d="M827.77 83.45h-.12l.12-.1v.1z" />
    <path class="cls-1"
        d="M841.89 83.43a2.4 2.4 0 0 1-2.1 1.25 2.36 2.36 0 0 1-2-1.05h-10v10a2.38 2.38 0 0 1-1.14 4.47 2.37 2.37 0 0 1-2.37-2.37 2.33 2.33 0 0 1 1.05-2v-11l-8.52-8.52 1.73-1.74 8.67 8.67h10.49a2.38 2.38 0 0 1 4.2 2.24ZM800.9 113.8V68.3a1.76 1.76 0 0 1 3.52 0v45.49a2.37 2.37 0 0 1-.12 3.35 2.39 2.39 0 0 1-4-1.74 2.29 2.29 0 0 1 .6-1.6ZM786.38 95.14a2.37 2.37 0 0 1 1.43-2.14l3.19-5.6V74.79l3.51-3.52v17.56l-3.43 5.92a2.58 2.58 0 0 1 0 .39 2.38 2.38 0 1 1-4.75 0ZM764.79 72.47a2.37 2.37 0 0 1 2.36-2.37 2.58 2.58 0 0 1 .4 0l5.92-3.44H791l-3.52 3.5H774.9l-5.56 3.21a2.37 2.37 0 0 1-4.55-.94ZM777.91 83.34v-.12l.11.12h-.11z" />
    <path class="cls-1" d="M777.91 83.34v-.12l.11.12h-.11z" />
    <path class="cls-1"
        d="M781.33 96.48a2.38 2.38 0 1 1-3.42-3.09v-10h-10a2.37 2.37 0 1 1-2.09-3.51 2.35 2.35 0 0 1 2 1h11l8.53-8.52 1.65 1.75-8.66 8.66v10.5a2.37 2.37 0 0 1 .99 3.21ZM749.22 57h45.49a1.69 1.69 0 0 1 1.24.52 1.76 1.76 0 0 1-1.23 3h-45.5a2.35 2.35 0 0 1-1.61.63 2.38 2.38 0 1 1 0-4.75 2.27 2.27 0 0 1 1.61.6ZM767.88 42.46a2.36 2.36 0 0 1 2.17 1.43l5.56 3.2h12.63l3.52 3.51h-17.57l-5.92-3.45a1.72 1.72 0 0 1-.39 0 2.37 2.37 0 1 1 0-4.73ZM790.56 20.86a2.39 2.39 0 0 1 2.37 2.37 2.58 2.58 0 0 1 0 .39l3.44 5.93v17.57l-3.51-3.52V31l-3.2-5.56a2.38 2.38 0 0 1 .94-4.56ZM779.69 33.98h.1l-.1.12v-.12z" />
    <path class="cls-1" d="M779.69 33.98h.1l-.1.12v-.12z" />
    <path class="cls-1"
        d="m790.65 43.37-1.73 1.73-8.66-8.66h-10.5a2.38 2.38 0 1 1-2.09-3.44 2.34 2.34 0 0 1 2 1h10V24a2.38 2.38 0 0 1 1.13-4.48 2.36 2.36 0 0 1 2.36 2.36 2.34 2.34 0 0 1-1 2v11ZM928.62 3.56v45.49a1.69 1.69 0 0 1-.52 1.24 1.76 1.76 0 0 1-3-1.23V3.56a2.35 2.35 0 0 1-.61-1.56 2.37 2.37 0 1 1 4.73 0 2.34 2.34 0 0 1-.6 1.56ZM943.14 22.21a2.36 2.36 0 0 1-1.43 2.18l-3.2 5.61v12.57L935 46.09V28.53l3.44-5.92a2.6 2.6 0 0 1 0-.4 2.37 2.37 0 1 1 4.73 0ZM964.74 44.9a2.38 2.38 0 0 1-2.37 2.36 2.69 2.69 0 0 1-.4 0l-5.92 3.44h-17.57l3.52-3.54h12.62l5.56-3.2a2.37 2.37 0 0 1 3.12-1.24 2.4 2.4 0 0 1 1.44 2.18ZM951.6 34.02v.11l-.11-.11h.11z" />
    <path class="cls-1" d="M951.6 34.02v.11l-.11-.11h.11z" />
    <path class="cls-1"
        d="M966.09 35.14a2.37 2.37 0 0 1-2.37 2.37 2.33 2.33 0 0 1-2-1h-11L942.23 45l-1.74-1.73 8.67-8.66V24.09a2.38 2.38 0 1 1 3.49-2.09 2.31 2.31 0 0 1-1 2v10h10a2.38 2.38 0 0 1 2.09-1.25 2.41 2.41 0 0 1 2.35 2.39ZM982.43 60.55h-45.49a1.65 1.65 0 0 1-1.24-.55 1.74 1.74 0 0 1 0-2.48 1.73 1.73 0 0 1 1.23-.52h45.5a2.37 2.37 0 1 1 0 3.5ZM963.77 75.08a2.39 2.39 0 0 1-2.18-1.44l-5.59-3.2h-12.58l-3.52-3.51h17.57l5.92 3.45a1.75 1.75 0 0 1 .4 0 2.37 2.37 0 0 1 0 4.74ZM941.1 96.67a2.38 2.38 0 0 1-2.37-2.37 2.58 2.58 0 0 1 0-.39l-3.4-5.91V70.41l3.51 3.53v12.61l3.2 5.56a2.38 2.38 0 0 1-.94 4.56ZM951.97 83.54h-.11l.11-.1v.1z" />
    <path class="cls-1" d="M951.97 83.54h-.11l.11-.1v.1z" />
    <path class="cls-1"
        d="M966.09 83.51a2.4 2.4 0 0 1-2.1 1.26 2.34 2.34 0 0 1-2-1.06H952v10a2.37 2.37 0 0 1-1.14 4.47 2.38 2.38 0 0 1-2.37-2.37 2.36 2.36 0 0 1 1.06-2v-11L941 74.34l1.74-1.73 8.66 8.66h10.5a2.38 2.38 0 1 1 4.19 2.24ZM925.11 113.88V68.39a1.68 1.68 0 0 1 .51-1.24 1.76 1.76 0 0 1 2.49 0 1.79 1.79 0 0 1 .52 1.24v45.49a2.37 2.37 0 1 1-4.11 1.61 2.25 2.25 0 0 1 .59-1.61ZM910.58 95.23a2.36 2.36 0 0 1 1.42-2.18l3.21-5.56V74.87l3.5-3.52v17.57l-3.43 5.91a1.72 1.72 0 0 1 0 .39 2.38 2.38 0 1 1-4.75 0ZM889 72.56a2.37 2.37 0 0 1 2.37-2.37 1.72 1.72 0 0 1 .39 0l5.93-3.45h17.56l-3.52 3.51h-12.62l-5.56 3.2a2.38 2.38 0 0 1-4.56-.93ZM902.11 83.42v-.11l.11.11h-.11z" />
    <path class="cls-1" d="M902.11 83.42v-.11l.11.11h-.11z" />
    <path class="cls-1"
        d="M905.53 96.57a2.38 2.38 0 0 1-4.47-1.13 2.33 2.33 0 0 1 1.05-2v-10h-10a2.39 2.39 0 0 1-2.11 1.25 2.42 2.42 0 0 1-2.37-2.4 2.37 2.37 0 0 1 2.37-2.36 2.31 2.31 0 0 1 2 1h11l8.52-8.53 1.74 1.74-8.67 8.66v10.5a2.38 2.38 0 0 1 .94 3.27ZM873.42 57.07h45.49a1.76 1.76 0 1 1 0 3.52h-45.49a2.33 2.33 0 0 1-1.6.64 2.38 2.38 0 1 1 0-4.75 2.23 2.23 0 0 1 1.6.59ZM892.08 42.54a2.38 2.38 0 0 1 2.18 1.46l5.56 3.21h12.62l3.52 3.5H898.4l-5.93-3.44a2.58 2.58 0 0 1-.39 0 2.37 2.37 0 0 1 0-4.74ZM914.76 21a2.37 2.37 0 0 1 2.37 2.37 1.72 1.72 0 0 1 0 .39l3.45 5.93V47.2L917 43.68V31.07l-3.21-5.56a2.39 2.39 0 0 1-1.23-3.13 2.36 2.36 0 0 1 2.2-1.38ZM903.89 34.07h.11l-.11.11v-.11z" />
    <path class="cls-1" d="M903.89 34.07h.11l-.11.11v-.11z" />
    <path class="cls-1"
        d="m914.85 43.45-1.72 1.74-8.67-8.66H894a2.38 2.38 0 1 1-2.09-3.5 2.36 2.36 0 0 1 2 1h10v-10a2.38 2.38 0 0 1 1.09-4.45 2.36 2.36 0 0 1 1.32 4.33v11ZM1052.82 3.64v45.49a1.69 1.69 0 0 1-.52 1.25 1.76 1.76 0 0 1-3-1.23V3.64a2.37 2.37 0 1 1 4.13-1.64 2.33 2.33 0 0 1-.61 1.64ZM1067.35 22.3a2.39 2.39 0 0 1-1.44 2.18l-3.2 5.56v12.61l-3.51 3.52V28.62l3.45-5.93a1.72 1.72 0 0 1 0-.39 2.37 2.37 0 0 1 4.74 0ZM1088.94 45a2.37 2.37 0 0 1-2.37 2.37 1.72 1.72 0 0 1-.39 0l-5.93 3.45h-17.57l3.53-3.51h12.61l5.56-3.21a2.38 2.38 0 0 1 4.56.94ZM1075.81 34.1v.12l-.12-.12h.12z" />
    <path class="cls-1" d="M1075.81 34.1v.12l-.12-.12h.12z" />
    <path class="cls-1"
        d="M1090.29 35.23a2.36 2.36 0 0 1-4.33 1.32h-11l-8.53 8.52-1.73-1.74 8.66-8.66v-10.5a2.37 2.37 0 1 1 2.45-.12v10h10a2.39 2.39 0 0 1 2.09-1.26 2.42 2.42 0 0 1 2.39 2.44ZM1106.63 60.63h-45.49a1.73 1.73 0 0 1-1.24-.52 1.75 1.75 0 0 1 0-2.48 1.71 1.71 0 0 1 1.24-.52h45.49a2.28 2.28 0 0 1 1.61-.63 2.37 2.37 0 1 1 0 4.74 2.34 2.34 0 0 1-1.61-.62ZM1088 75.16a2.36 2.36 0 0 1-2.18-1.43l-5.56-3.21h-12.62L1064.1 67h17.57l5.93 3.44a2.58 2.58 0 0 1 .39 0 2.37 2.37 0 1 1 0 4.74ZM1065.31 96.75a2.37 2.37 0 0 1-2.37-2.36 1.75 1.75 0 0 1 0-.4l-3.45-5.92V70.5L1063 74v12.63l3.2 5.56a2.38 2.38 0 0 1-.93 4.56ZM1076.17 83.62h-.11l.11-.1v.1z" />
    <path class="cls-1" d="M1076.17 83.62h-.11l.11-.1v.1z" />
    <path class="cls-1"
        d="M1090.29 83.59a2.37 2.37 0 0 1-2.1 1.26 2.33 2.33 0 0 1-2-1h-10v10a2.38 2.38 0 0 1-1.14 4.47 2.38 2.38 0 0 1-2.37-2.37 2.34 2.34 0 0 1 1-2V83l-8.53-8.52 1.74-1.74 8.66 8.66h10.5a2.38 2.38 0 0 1 4.19 2.24ZM1049.31 114V68.47a1.69 1.69 0 0 1 .52-1.24 1.76 1.76 0 0 1 3 1.23V114a2.37 2.37 0 1 1-4.12 1.61 2.27 2.27 0 0 1 .6-1.61ZM1034.78 95.31a2.38 2.38 0 0 1 1.44-2.18l3.2-5.56V75l3.51-3.52V89l-3.43 5.92a2.56 2.56 0 0 1 0 .39 2.38 2.38 0 1 1-4.75 0ZM1013.19 72.64a2.37 2.37 0 0 1 2.37-2.37 1.72 1.72 0 0 1 .39 0l5.93-3.44h17.57l-3.53 3.5h-12.61l-5.56 3.21a2.38 2.38 0 0 1-4.56-.94ZM1026.31 83.51v-.12l.12.12h-.12z" />
    <path class="cls-1" d="M1026.31 83.51v-.12l.12.12h-.12z" />
    <path class="cls-1"
        d="M1029.73 96.65a2.38 2.38 0 1 1-3.42-3.09v-10h-10a2.36 2.36 0 0 1-2.09 1.25 2.38 2.38 0 0 1 0-4.76 2.33 2.33 0 0 1 2 1h11l8.52-8.52 1.74 1.73-8.66 8.67v10.5a2.38 2.38 0 0 1 .91 3.22ZM997.63 57.15h45.49a1.67 1.67 0 0 1 1.24.52 1.76 1.76 0 0 1-1.23 3h-45.5a2.39 2.39 0 0 1-4-1.73 2.37 2.37 0 0 1 2.37-2.41 2.29 2.29 0 0 1 1.63.62ZM1016.28 42.62a2.38 2.38 0 0 1 2.18 1.44l5.56 3.2h12.63l3.52 3.51h-17.57l-5.93-3.45a1.72 1.72 0 0 1-.39 0 2.37 2.37 0 0 1 0-4.74ZM1039 21a2.37 2.37 0 0 1 2.37 2.37 1.72 1.72 0 0 1 0 .39l3.45 5.93v17.6l-3.51-3.53V31.15l-3.2-5.56a2.38 2.38 0 0 1-1.24-3.13A2.4 2.4 0 0 1 1039 21ZM1028.1 34.15h.1l-.1.12v-.12z" />
    <path class="cls-1" d="M1028.1 34.15h.1l-.1.12v-.12z" />
    <path class="cls-1"
        d="m1039.05 43.54-1.72 1.73-8.66-8.66h-10.5a2.38 2.38 0 1 1-.13-2.45h10v-10a2.38 2.38 0 0 1 1.13-4.47 2.38 2.38 0 0 1 2.37 2.37 2.33 2.33 0 0 1-1 2V35ZM1177 3.73v45.49a1.77 1.77 0 0 1-3 1.25 1.79 1.79 0 0 1-.52-1.24V3.73a2.37 2.37 0 1 1 4.1-1.62 2.35 2.35 0 0 1-.58 1.62ZM1191.55 22.38a2.36 2.36 0 0 1-1.43 2.18l-3.21 5.56v12.61l-3.5 3.53V28.7l3.44-5.92a1.81 1.81 0 0 1 0-.4 2.37 2.37 0 0 1 4.74 0ZM1213.14 45.06a2.37 2.37 0 0 1-2.37 2.37 2.56 2.56 0 0 1-.39 0l-5.93 3.44h-17.56l3.52-3.51H1203l5.56-3.2a2.38 2.38 0 0 1 4.56.93ZM1200.01 34.19v.11l-.12-.11h.12z" />
    <path class="cls-1" d="M1200.01 34.19v.11l-.12-.11h.12z" />
    <path class="cls-1"
        d="M1214.5 35.31a2.37 2.37 0 0 1-4.34 1.32h-11l-8.52 8.52-1.74-1.73 8.66-8.66v-10.5a2.38 2.38 0 1 1 3.5-2.09 2.35 2.35 0 0 1-1 2v10h10a2.37 2.37 0 0 1 2.09-1.25 2.41 2.41 0 0 1 2.35 2.39ZM1230.83 60.72h-45.49a1.72 1.72 0 0 1-1.24-.52 1.76 1.76 0 0 1 1.23-3h45.49a2.35 2.35 0 0 1 1.61-.63 2.38 2.38 0 1 1 0 4.75 2.4 2.4 0 0 1-1.61-.62ZM1212.18 75.24a2.37 2.37 0 0 1-2.18-1.43l-5.56-3.2h-12.61l-3.52-3.51h17.56l5.93 3.45a1.72 1.72 0 0 1 .39 0 2.37 2.37 0 1 1 0 4.73ZM1189.51 96.84a2.37 2.37 0 0 1-2.37-2.37 1.72 1.72 0 0 1 0-.39l-3.45-5.93V70.58l3.51 3.52v12.62l3.21 5.56a2.38 2.38 0 0 1-.94 4.56ZM1200.38 83.7h-.12l.12-.1v.1z" />
    <path class="cls-1" d="M1200.38 83.7h-.12l.12-.1v.1z" />
    <path class="cls-1"
        d="M1214.49 83.68a2.37 2.37 0 0 1-4.06.2h-10v10a2.38 2.38 0 0 1-1.14 4.47 2.37 2.37 0 0 1-2.37-2.37 2.33 2.33 0 0 1 1-2V83l-8.52-8.52 1.73-1.73 8.67 8.66h10.49a2.38 2.38 0 1 1 4.19 2.24ZM1173.51 114.05V68.56a1.76 1.76 0 0 1 3.52 0V114a2.37 2.37 0 1 1-4.12 1.6 2.29 2.29 0 0 1 .6-1.55ZM1159 95.39a2.36 2.36 0 0 1 1.43-2.17l3.2-5.56V75l3.51-3.52v17.61L1163.7 95a2.58 2.58 0 0 1 0 .39 2.38 2.38 0 0 1-4.75 0ZM1137.39 72.72a2.38 2.38 0 0 1 2.37-2.36 2.69 2.69 0 0 1 .4 0l5.92-3.44h17.57l-3.52 3.51h-12.62l-5.56 3.2a2.37 2.37 0 0 1-3.12 1.24 2.4 2.4 0 0 1-1.44-2.18ZM1150.52 83.59v-.11l.11.11h-.11z" />
    <path class="cls-1" d="M1150.52 83.59v-.11l.11.11h-.11z" />
    <path class="cls-1"
        d="M1153.93 96.73a2.37 2.37 0 1 1-3.41-3.08V83.6h-10a2.37 2.37 0 0 1-4.46-1.14 2.38 2.38 0 0 1 2.37-2.37 2.36 2.36 0 0 1 2 1.06h11l8.53-8.53 1.73 1.74L1153 83v10.5a2.37 2.37 0 0 1 .93 3.23ZM1121.83 57.24h45.49a1.76 1.76 0 0 1 0 3.52h-45.5a2.3 2.3 0 0 1-1.61.63 2.38 2.38 0 1 1 0-4.75 2.28 2.28 0 0 1 1.62.6ZM1140.49 42.71a2.36 2.36 0 0 1 2.17 1.43l5.56 3.2h12.63l3.52 3.51h-17.57l-5.92-3.44a2.58 2.58 0 0 1-.4 0 2.37 2.37 0 0 1 0-4.74ZM1163.17 21.12a2.38 2.38 0 0 1 2.37 2.36 2.58 2.58 0 0 1 0 .4l3.44 5.92v17.57l-3.51-3.52V31.24l-3.2-5.56a2.38 2.38 0 0 1-1.23-3.13 2.35 2.35 0 0 1 2.17-1.43ZM1152.3 34.24h.1l-.1.11v-.11z" />
    <path class="cls-1" d="M1152.3 34.24h.1l-.1.11v-.11z" />
    <path class="cls-1"
        d="m1163.26 43.62-1.73 1.74-8.66-8.67h-10.5a2.38 2.38 0 1 1-2.09-3.49 2.33 2.33 0 0 1 2 1h10v-10a2.37 2.37 0 0 1 1.13-4.47 2.37 2.37 0 0 1 2.36 2.37 2.32 2.32 0 0 1-1 2v11ZM1301.23 3.81V49.3a1.76 1.76 0 0 1-3.52 0V3.81a2.33 2.33 0 0 1-.63-1.61 2.37 2.37 0 1 1 4.73 0 2.32 2.32 0 0 1-.58 1.61ZM1315.75 22.47a2.38 2.38 0 0 1-1.43 2.18l-3.2 5.55v12.62l-3.51 3.52V28.79l3.44-5.93a2.56 2.56 0 0 1 0-.39 2.37 2.37 0 1 1 4.73 0ZM1337.34 45.15a2.37 2.37 0 0 1-2.36 2.37 1.75 1.75 0 0 1-.4 0l-5.92 3.44h-17.57l3.52-3.5h12.62l5.56-3.21a2.37 2.37 0 0 1 4.55.94ZM1324.21 34.27v.11l-.11-.11h.11z" />
    <path class="cls-1" d="M1324.21 34.27v.11l-.11-.11h.11z" />
    <path class="cls-1"
        d="M1338.7 35.4a2.38 2.38 0 0 1-2.37 2.37 2.34 2.34 0 0 1-2-1.06h-11l-8.52 8.53-1.74-1.74 8.67-8.66v-10.5a2.38 2.38 0 1 1 3.49-2.09 2.31 2.31 0 0 1-1 2v10h10a2.37 2.37 0 0 1 4.46 1.14ZM1355 60.8h-45.49a1.73 1.73 0 0 1-1.24-.52 1.77 1.77 0 0 1 0-2.49 1.81 1.81 0 0 1 1.24-.52H1355a2.37 2.37 0 1 1 0 3.49ZM1336.38 75.33a2.38 2.38 0 0 1-2.18-1.43l-5.56-3.21H1316l-3.52-3.5h17.57l5.92 3.44a1.75 1.75 0 0 1 .4 0 2.37 2.37 0 0 1 0 4.74ZM1313.71 96.92a2.38 2.38 0 0 1-2.37-2.37 2.58 2.58 0 0 1 0-.39l-3.44-5.93V70.67l3.51 3.52V86.8l3.2 5.56a2.38 2.38 0 0 1 1.23 3.13 2.35 2.35 0 0 1-2.17 1.43ZM1324.58 83.79h-.12l.12-.1v.1z" />
    <path class="cls-1" d="M1324.58 83.79h-.12l.12-.1v.1z" />
    <path class="cls-1"
        d="M1338.7 83.76a2.37 2.37 0 0 1-4.06.21h-10.05V94a2.38 2.38 0 0 1 1 3.22 2.41 2.41 0 0 1-2.12 1.26 2.36 2.36 0 0 1-1.31-4.33v-11l-8.53-8.53 1.74-1.73 8.66 8.66h10.5a2.38 2.38 0 0 1 4.19 2.24ZM1297.72 114.13V68.64a1.77 1.77 0 0 1 3-1.25 1.79 1.79 0 0 1 .52 1.24v45.49a2.37 2.37 0 0 1-1.73 4 2.38 2.38 0 0 1-2.38-2.37 2.27 2.27 0 0 1 .59-1.62ZM1283.19 95.48a2.37 2.37 0 0 1 1.43-2.18l3.21-5.56V75.13l3.5-3.52v17.56l-3.43 5.92a1.67 1.67 0 0 1 0 .39 2.38 2.38 0 0 1-4.75 0ZM1261.6 72.81a2.37 2.37 0 0 1 2.37-2.37 1.72 1.72 0 0 1 .39 0l5.93-3.45h17.56l-3.52 3.51h-12.61l-5.56 3.21a2.38 2.38 0 0 1-4.56-.94ZM1274.72 83.67v-.11l.11.11h-.11z" />
    <path class="cls-1" d="M1274.72 83.67v-.11l.11.11h-.11z" />
    <path class="cls-1"
        d="M1278.14 96.82a2.38 2.38 0 0 1-4.47-1.13 2.35 2.35 0 0 1 1-2v-10h-10a2.37 2.37 0 1 1-2.09-3.51 2.33 2.33 0 0 1 2 1h11l8.52-8.52 1.73 1.73-8.66 8.67V93.6a2.38 2.38 0 0 1 .97 3.22ZM1246 57.32h45.49a1.69 1.69 0 0 1 1.25.52 1.76 1.76 0 0 1-1.23 3H1246a2.38 2.38 0 1 1-1.64-4.12 2.27 2.27 0 0 1 1.64.6ZM1264.69 42.79a2.4 2.4 0 0 1 2.18 1.43l5.56 3.21h12.62l3.52 3.51H1271l-5.93-3.45a1.72 1.72 0 0 1-.39 0 2.37 2.37 0 1 1 0-4.74ZM1287.37 21.2a2.37 2.37 0 0 1 2.37 2.37 1.72 1.72 0 0 1 0 .39l3.45 5.93v17.56l-3.51-3.52V31.32l-3.21-5.56a2.38 2.38 0 0 1 .94-4.56ZM1276.5 34.32h.11l-.11.12v-.12z" />
    <path class="cls-1" d="M1276.5 34.32h.11l-.11.12v-.12z" />
    <path class="cls-1"
        d="m1287.46 43.7-1.72 1.74-8.67-8.66h-10.49a2.38 2.38 0 1 1-.13-2.45h10v-10a2.38 2.38 0 0 1 1.13-4.47 2.38 2.38 0 0 1 2.42 2.34 2.36 2.36 0 0 1-1 2v11ZM1425.43 3.9v45.49a1.69 1.69 0 0 1-.52 1.24 1.76 1.76 0 0 1-3-1.23V3.9a2.41 2.41 0 0 1-.63-1.61 2.37 2.37 0 0 1 4.74 0 2.35 2.35 0 0 1-.59 1.61ZM1440 22.55a2.38 2.38 0 0 1-1.44 2.18l-3.2 5.56V42.9l-3.51 3.52V28.87l3.45-5.93a1.67 1.67 0 0 1 0-.39 2.37 2.37 0 0 1 4.74 0ZM1461.55 45.23a2.37 2.37 0 0 1-2.37 2.37 1.72 1.72 0 0 1-.39 0l-5.93 3.4h-17.57l3.53-3.51h12.61l5.56-3.2a2.38 2.38 0 0 1 3.13-1.24 2.4 2.4 0 0 1 1.43 2.17ZM1448.41 34.35v.12l-.11-.12h.11z" />
    <path class="cls-1" d="M1448.41 34.35v.12l-.11-.12h.11z" />
    <path class="cls-1"
        d="M1462.9 35.48a2.36 2.36 0 0 1-4.33 1.32h-11l-8.57 8.52-1.73-1.73 8.66-8.67V24.43a2.39 2.39 0 1 1 2.44-.13v10h10a2.36 2.36 0 0 1 2.09-1.25 2.4 2.4 0 0 1 2.44 2.43ZM1479.24 60.89h-45.49a1.69 1.69 0 0 1-1.24-.52 1.76 1.76 0 0 1 1.23-3h45.49a2.33 2.33 0 0 1 1.61-.63 2.38 2.38 0 1 1-1.6 4.13ZM1460.59 75.41a2.36 2.36 0 0 1-2.18-1.43l-5.56-3.2h-12.62l-3.52-3.51h17.57l5.93 3.44a2.56 2.56 0 0 1 .39 0 2.37 2.37 0 1 1 0 4.73ZM1437.92 97a2.38 2.38 0 0 1-2.37-2.37 1.67 1.67 0 0 1 0-.39l-3.45-5.93V70.75l3.51 3.52v12.62l3.2 5.56a2.37 2.37 0 0 1 1.24 3.12 2.4 2.4 0 0 1-2.17 1.44ZM1448.78 83.87h-.11l.11-.1v.1z" />
    <path class="cls-1" d="M1448.78 83.87h-.11l.11-.1v.1z" />
    <path class="cls-1"
        d="M1462.9 83.85a2.38 2.38 0 0 1-2.1 1.25 2.31 2.31 0 0 1-2-1h-10v10a2.38 2.38 0 0 1-1.14 4.47 2.37 2.37 0 0 1-2.37-2.37 2.31 2.31 0 0 1 1-2v-11l-8.53-8.52 1.74-1.74 8.66 8.67h10.5a2.38 2.38 0 1 1 4.19 2.24ZM1421.92 114.22V68.73a1.65 1.65 0 0 1 .52-1.24 1.75 1.75 0 0 1 3 1.22v45.49a2.37 2.37 0 0 1-.13 3.35 2.33 2.33 0 0 1-1.61.63 2.38 2.38 0 0 1-2.38-2.37 2.24 2.24 0 0 1 .6-1.59ZM1407.39 95.56a2.39 2.39 0 0 1 1.44-2.18l3.2-5.56V75.21l3.51-3.52v17.57l-3.43 5.91a2.56 2.56 0 0 1 0 .39 2.38 2.38 0 1 1-4.75 0ZM1385.8 72.89a2.38 2.38 0 0 1 2.37-2.37 2.58 2.58 0 0 1 .39 0l5.93-3.44h17.57l-3.53 3.51h-12.61l-5.56 3.2a2.38 2.38 0 0 1-4.56-.94ZM1398.92 83.76v-.12l.12.12h-.12z" />
    <path class="cls-1" d="M1398.92 83.76v-.12l.12.12h-.12z" />
    <path class="cls-1"
        d="M1402.34 96.9a2.38 2.38 0 1 1-3.42-3.09v-10h-10a2.37 2.37 0 0 1-2.12 1.19 2.38 2.38 0 0 1 0-4.76 2.34 2.34 0 0 1 2 1.06h11l8.52-8.53 1.74 1.74-8.66 8.66v10.5a2.38 2.38 0 0 1 .94 3.23ZM1370.24 57.4h45.49a1.76 1.76 0 0 1 0 3.52h-45.5a2.39 2.39 0 0 1-4-1.72 2.37 2.37 0 0 1 2.35-2.4 2.31 2.31 0 0 1 1.66.6ZM1388.89 42.88a2.37 2.37 0 0 1 2.18 1.43l5.56 3.2h12.63l3.52 3.51h-17.57l-5.93-3.44a2.56 2.56 0 0 1-.39 0 2.37 2.37 0 1 1 0-4.73ZM1411.57 21.28a2.38 2.38 0 0 1 2.37 2.37 1.81 1.81 0 0 1 0 .4l3.45 5.92v17.57l-3.55-3.54V31.4l-3.2-5.56a2.37 2.37 0 0 1-1.24-3.12 2.4 2.4 0 0 1 2.17-1.44ZM1400.71 34.41h.1l-.1.11v-.11z" />
    <path class="cls-1" d="M1400.71 34.41h.1l-.1.11v-.11z" />
    <path class="cls-1"
        d="m1411.66 43.79-1.72 1.73-8.66-8.66h-10.5a2.38 2.38 0 1 1-2.09-3.49 2.31 2.31 0 0 1 2 1.05h10v-10a2.38 2.38 0 0 1-1-3.22 2.36 2.36 0 0 1 2.1-1.25 2.36 2.36 0 0 1 1.32 4.33v11ZM1549.63 4v45.49a1.73 1.73 0 0 1-.52 1.24 1.76 1.76 0 0 1-3-1.23V4a2.37 2.37 0 1 1 4.1-1.62 2.33 2.33 0 0 1-.58 1.62ZM1564.16 22.64a2.36 2.36 0 0 1-1.43 2.17l-3.21 5.56V43l-3.52 3.51V29l3.45-5.93a1.72 1.72 0 0 1 0-.39 2.37 2.37 0 1 1 4.74 0ZM1585.75 45.32a2.38 2.38 0 0 1-2.37 2.37 2.58 2.58 0 0 1-.39 0l-5.93 3.44h-17.56l3.52-3.51h12.61l5.56-3.2a2.38 2.38 0 0 1 3.13-1.23 2.35 2.35 0 0 1 1.43 2.17ZM1572.62 34.44v.11l-.12-.11h.12z" />
    <path class="cls-1" d="M1572.62 34.44v.11l-.12-.11h.12z" />
    <path class="cls-1"
        d="M1587.11 35.57a2.37 2.37 0 0 1-2.37 2.36 2.34 2.34 0 0 1-2-1h-11l-8.52 8.53-1.74-1.74 8.66-8.66V24.51a2.38 2.38 0 1 1 3.5-2.09 2.33 2.33 0 0 1-1.05 2v10.01h10a2.38 2.38 0 0 1 2.09-1.26 2.42 2.42 0 0 1 2.43 2.4ZM1603.44 61H1558a1.69 1.69 0 0 1-1.24-.52 1.75 1.75 0 0 1 0-2.48 1.79 1.79 0 0 1 1.24-.52h45.49a2.37 2.37 0 1 1 1.62 4.11 2.4 2.4 0 0 1-1.61-.62ZM1584.79 75.5a2.39 2.39 0 0 1-2.18-1.43l-5.56-3.21h-12.61l-3.52-3.51h17.56l5.93 3.45a1.72 1.72 0 0 1 .39 0 2.37 2.37 0 1 1 0 4.74ZM1562.12 97.09a2.37 2.37 0 0 1-2.37-2.37 1.72 1.72 0 0 1 0-.39l-3.45-5.93V70.84l3.51 3.52V87l3.21 5.56a2.38 2.38 0 0 1-.94 4.56ZM1572.98 83.96h-.11l.11-.1v.1z" />
    <path class="cls-1" d="M1572.98 83.96h-.11l.11-.1v.1z" />
    <path class="cls-1"
        d="M1587.1 83.93a2.36 2.36 0 0 1-4.06.2h-10v10a2.38 2.38 0 0 1-1.14 4.47 2.36 2.36 0 0 1-1.32-4.33v-11l-8.58-8.51 1.73-1.73 8.67 8.66h10.49a2.38 2.38 0 0 1 4.19 2.24ZM1546.12 114.3V68.81a1.73 1.73 0 0 1 .52-1.24 1.76 1.76 0 0 1 3 1.23v45.49a2.37 2.37 0 1 1-4.12 1.61 2.3 2.3 0 0 1 .6-1.6ZM1531.6 95.65a2.36 2.36 0 0 1 1.43-2.18l3.2-5.56V75.29l3.51-3.52v17.57l-3.43 5.91a2.58 2.58 0 0 1 0 .4 2.38 2.38 0 0 1-4.75 0ZM1510 73a2.38 2.38 0 0 1 2.37-2.37 1.81 1.81 0 0 1 .4 0l5.92-3.45h17.57l-3.52 3.51h-12.62l-5.56 3.2a2.37 2.37 0 0 1-3.12 1.24A2.4 2.4 0 0 1 1510 73ZM1523.13 83.84v-.11l.11.11h-.11z" />
    <path class="cls-1" d="M1523.13 83.84v-.11l.11.11h-.11z" />
    <path class="cls-1"
        d="M1526.54 97a2.37 2.37 0 1 1-3.41-3.09v-10h-10a2.36 2.36 0 0 1-2.09 1.25 2.41 2.41 0 0 1-2.36-2.39 2.36 2.36 0 0 1 4.32-1.37h11l8.53-8.52 1.73 1.73-8.66 8.66v10.5a2.38 2.38 0 0 1 .94 3.23ZM1494.44 57.49h45.49a1.65 1.65 0 0 1 1.24.52 1.75 1.75 0 0 1 0 2.48 1.79 1.79 0 0 1-1.24.52h-45.5a2.38 2.38 0 1 1-1.64-4.11 2.27 2.27 0 0 1 1.65.59ZM1513.09 43a2.36 2.36 0 0 1 2.18 1.43l5.56 3.21h12.63l3.52 3.51h-17.57l-5.92-3.45a1.75 1.75 0 0 1-.4 0 2.37 2.37 0 0 1 0-4.74ZM1535.78 21.37a2.38 2.38 0 0 1 2.37 2.37 2.58 2.58 0 0 1 0 .39l3.44 5.93v17.56L1538 44.1V31.49l-3.2-5.56a2.38 2.38 0 0 1-1.23-3.13 2.35 2.35 0 0 1 2.17-1.43ZM1524.91 34.49h.1l-.1.11v-.11z" />
    <path class="cls-1" d="M1524.91 34.49h.1l-.1.11v-.11z" />
    <path class="cls-1"
        d="m1535.87 43.87-1.73 1.74-8.66-8.61H1515a2.38 2.38 0 1 1-2.09-3.5 2.33 2.33 0 0 1 2 1h10.05v-10A2.37 2.37 0 0 1 1526 20a2.37 2.37 0 0 1 2.36 2.37 2.31 2.31 0 0 1-1.05 2v11ZM1673.84 3.67v45.49a1.73 1.73 0 0 1-.52 1.24 1.76 1.76 0 0 1-3-1.23V3.67a2.37 2.37 0 1 1 4.1-1.62 2.34 2.34 0 0 1-.58 1.62ZM1688.36 22.32a2.36 2.36 0 0 1-1.43 2.18l-3.2 5.56v12.62l-3.51 3.52V28.64l3.44-5.92v-.4a2.37 2.37 0 0 1 4.74 0ZM1710 45a2.36 2.36 0 0 1-2.36 2.36 2.6 2.6 0 0 1-.4 0l-5.92 3.44h-17.62l3.52-3.51h12.62l5.56-3.2a2.37 2.37 0 0 1 4.6.91ZM1696.82 34.13v.11l-.11-.11h.11z" />
    <path class="cls-1" d="M1696.82 34.13v.11l-.11-.11h.11z" />
    <path class="cls-1"
        d="M1711.31 35.25a2.37 2.37 0 0 1-2.37 2.37 2.33 2.33 0 0 1-2-1h-11l-8.52 8.52-1.74-1.73 8.67-8.66V24.2a2.38 2.38 0 1 1 3.49-2.09 2.35 2.35 0 0 1-1 2v10h10a2.38 2.38 0 0 1 2.09-1.25 2.41 2.41 0 0 1 2.38 2.39ZM1727.65 60.66h-45.49a1.69 1.69 0 0 1-1.25-.52 1.76 1.76 0 0 1 1.23-3h45.49a2.41 2.41 0 0 1 1.61-.63 2.38 2.38 0 1 1-1.59 4.13ZM1709 75.18a2.38 2.38 0 0 1-2.18-1.43l-5.56-3.2h-12.61l-3.53-3.55h17.57l5.92 3.45a1.75 1.75 0 0 1 .4 0 2.37 2.37 0 0 1 0 4.73ZM1686.32 96.78a2.38 2.38 0 0 1-2.37-2.37 2.58 2.58 0 0 1 0-.39l-3.44-5.93V70.52l3.51 3.52v12.62l3.2 5.56a2.38 2.38 0 0 1-.94 4.56ZM1697.19 83.64h-.11l.11-.1v.1z" />
    <path class="cls-1" d="M1697.19 83.64h-.11l.11-.1v.1z" />
    <path class="cls-1"
        d="M1711.31 83.62a2.37 2.37 0 0 1-2.1 1.25 2.34 2.34 0 0 1-2-1.05h-10v10a2.37 2.37 0 0 1-1.14 4.47 2.38 2.38 0 0 1-2.37-2.37 2.34 2.34 0 0 1 1.06-2V83l-8.53-8.52 1.74-1.73 8.66 8.66h10.5a2.38 2.38 0 1 1 4.19 2.24ZM1670.33 114V68.51a1.73 1.73 0 0 1 .52-1.24 1.76 1.76 0 0 1 3 1.23V114a2.37 2.37 0 1 1-4.11 1.61 2.25 2.25 0 0 1 .59-1.61ZM1655.8 95.33a2.36 2.36 0 0 1 1.43-2.17l3.21-5.56V75l3.5-3.52V89l-3.43 5.91a1.72 1.72 0 0 1 0 .39 2.38 2.38 0 0 1-4.75 0ZM1634.21 72.67a2.37 2.37 0 0 1 2.37-2.37 1.72 1.72 0 0 1 .39 0l5.93-3.45h17.56l-3.52 3.51h-12.61l-5.56 3.2a2.38 2.38 0 0 1-4.56-.93ZM1647.33 83.53v-.11l.11.11h-.11z" />
    <path class="cls-1" d="M1647.33 83.53v-.11l.11.11h-.11z" />
    <path class="cls-1"
        d="M1650.75 96.68a2.38 2.38 0 0 1-4.47-1.13 2.33 2.33 0 0 1 1-2v-10h-10a2.39 2.39 0 0 1-2.09 1.26 2.42 2.42 0 0 1-2.37-2.4 2.37 2.37 0 0 1 2.37-2.36 2.31 2.31 0 0 1 2 1h11l8.52-8.53 1.73 1.74-8.67 8.74v10.5a2.38 2.38 0 0 1 .98 3.18ZM1618.64 57.18h45.49a1.76 1.76 0 1 1 0 3.52h-45.51a2.28 2.28 0 0 1-1.61.63 2.37 2.37 0 1 1 0-4.74 2.23 2.23 0 0 1 1.63.59ZM1637.3 42.65a2.38 2.38 0 0 1 2.18 1.43l5.56 3.2h12.62l3.52 3.51h-17.56l-5.93-3.44a2.58 2.58 0 0 1-.39 0 2.37 2.37 0 1 1 0-4.74ZM1660 21.06a2.37 2.37 0 0 1 2.37 2.37 1.72 1.72 0 0 1 0 .39l3.45 5.92v17.57l-3.51-3.52V31.18l-3.31-5.56a2.39 2.39 0 0 1-1.23-3.13 2.36 2.36 0 0 1 2.17-1.43ZM1649.11 34.18h.1l-.1.11v-.11z" />
    <path class="cls-1" d="M1649.11 34.18h.1l-.1.11v-.11z" />
    <path class="cls-1"
        d="m1660.07 43.56-1.72 1.74-8.67-8.67h-10.5a2.38 2.38 0 1 1-4.19-2.24 2.4 2.4 0 0 1 2.1-1.25 2.36 2.36 0 0 1 2 1h10v-10a2.38 2.38 0 0 1 1.13-4.47 2.36 2.36 0 0 1 1.32 4.33v11ZM1798 3.75v45.49a1.65 1.65 0 0 1-.52 1.24 1.75 1.75 0 0 1-3-1.22V3.75a2.37 2.37 0 1 1 4.11-1.61 2.33 2.33 0 0 1-.59 1.61ZM1812.56 22.41a2.38 2.38 0 0 1-1.43 2.18l-3.2 5.56v12.61l-3.51 3.52V28.73l3.45-5.93a1.72 1.72 0 0 1 0-.39 2.37 2.37 0 1 1 4.73 0ZM1834.16 45.09a2.37 2.37 0 0 1-2.37 2.37 1.72 1.72 0 0 1-.39 0l-5.93 3.44h-17.57l3.52-3.5H1824l5.56-3.21a2.38 2.38 0 0 1 4.56.94ZM1821.03 34.21v.12l-.12-.12h.12z" />
    <path class="cls-1" d="M1821.03 34.21v.12l-.12-.12h.12z" />
    <path class="cls-1"
        d="M1835.51 35.34a2.36 2.36 0 0 1-4.33 1.32h-11l-8.53 8.52-1.73-1.74 8.66-8.66v-10.5a2.38 2.38 0 0 1 2.24-4.19 2.4 2.4 0 0 1 1.26 2.1 2.37 2.37 0 0 1-1.06 2v10h10a2.39 2.39 0 0 1 2.09-1.26 2.42 2.42 0 0 1 2.4 2.41ZM1851.85 60.74h-45.49a1.73 1.73 0 0 1-1.24-.52 1.77 1.77 0 0 1 0-2.49 1.74 1.74 0 0 1 1.24-.51h45.49a2.34 2.34 0 0 1 1.61-.64 2.38 2.38 0 1 1 0 4.75 2.34 2.34 0 0 1-1.61-.62ZM1833.2 75.27a2.36 2.36 0 0 1-2.18-1.43l-5.56-3.21h-12.62l-3.52-3.5h17.57l5.93 3.44a2.58 2.58 0 0 1 .39 0 2.37 2.37 0 1 1 0 4.74ZM1810.53 96.86a2.37 2.37 0 0 1-2.37-2.37 1.72 1.72 0 0 1 0-.39l-3.45-5.93V70.61l3.51 3.52v12.61l3.2 5.56a2.38 2.38 0 0 1-.93 4.56ZM1821.39 83.73h-.11l.11-.1v.1z" />
    <path class="cls-1" d="M1821.39 83.73h-.11l.11-.1v.1z" />
    <path class="cls-1"
        d="M1835.51 83.7a2.37 2.37 0 0 1-2.1 1.26 2.33 2.33 0 0 1-2-1h-10v10a2.38 2.38 0 0 1-1.14 4.48 2.36 2.36 0 0 1-2.37-2.44 2.34 2.34 0 0 1 1-2V83l-8.53-8.52 1.74-1.74 8.66 8.66h10.5a2.38 2.38 0 0 1 4.19 2.24ZM1794.53 114.07V68.58a1.69 1.69 0 0 1 .52-1.24 1.76 1.76 0 0 1 3 1.23v45.49a2.38 2.38 0 0 1-1.74 4 2.38 2.38 0 0 1-2.38-2.37 2.27 2.27 0 0 1 .6-1.62ZM1780 95.42a2.38 2.38 0 0 1 1.44-2.18l3.2-5.56V75.07l3.51-3.52v17.56l-3.43 5.89a2.56 2.56 0 0 1 0 .39 2.38 2.38 0 1 1-4.75 0ZM1758.41 72.75a2.37 2.37 0 0 1 2.37-2.37 1.72 1.72 0 0 1 .39 0l5.93-3.38h17.57l-3.53 3.51h-12.61l-5.53 3.18a2.38 2.38 0 0 1-4.56-.94ZM1771.53 83.61v-.11l.11.11h-.11z" />
    <path class="cls-1" d="M1771.53 83.61v-.11l.11.11h-.11z" />
    <path class="cls-1"
        d="M1775 96.76a2.38 2.38 0 1 1-3.42-3.09v-10h-10a2.37 2.37 0 0 1-2.09 1.25 2.41 2.41 0 0 1-2.37-2.39 2.38 2.38 0 0 1 2.37-2.37 2.33 2.33 0 0 1 2 1h11l8.52-8.52 1.74 1.73-8.75 8.68v10.49a2.38 2.38 0 0 1 1 3.22ZM1742.85 57.26h45.49a1.69 1.69 0 0 1 1.24.52 1.76 1.76 0 0 1-1.23 3h-45.5a2.41 2.41 0 0 1-1.61.63 2.38 2.38 0 0 1 0-4.75 2.31 2.31 0 0 1 1.61.6ZM1761.5 42.73a2.39 2.39 0 0 1 2.18 1.43l5.56 3.21h12.63l3.52 3.51h-17.57l-5.93-3.45a1.72 1.72 0 0 1-.39 0 2.37 2.37 0 1 1 0-4.74ZM1784.18 21.14a2.37 2.37 0 0 1 2.37 2.37 1.72 1.72 0 0 1 0 .39l3.45 5.93V47.4l-3.51-3.53V31.26l-3.2-5.56a2.38 2.38 0 0 1 .93-4.56ZM1773.32 34.26h.1l-.1.12v-.12z" />
    <path class="cls-1" d="M1773.32 34.26h.1l-.1.12v-.12z" />
    <path class="cls-1"
        d="m1784.27 43.65-1.72 1.73-8.66-8.66h-10.5a2.38 2.38 0 1 1-.13-2.45h10v-10a2.38 2.38 0 0 1 1.13-4.47 2.38 2.38 0 0 1 2.37 2.37 2.33 2.33 0 0 1-1 2v11ZM1922.24 3.84v45.49a1.7 1.7 0 0 1-.51 1.24 1.77 1.77 0 0 1-2.49 0 1.79 1.79 0 0 1-.52-1.24V3.84a2.37 2.37 0 1 1 4.1-1.62 2.35 2.35 0 0 1-.58 1.62ZM1936.77 22.49a2.37 2.37 0 0 1-1.43 2.18l-3.21 5.56v12.61l-3.51 3.52V28.81l3.45-5.92a1.81 1.81 0 0 1 0-.4 2.37 2.37 0 0 1 4.74 0ZM1958.36 45.17a2.37 2.37 0 0 1-2.37 2.37 1.72 1.72 0 0 1-.39 0l-5.93 3.46h-17.56l3.52-3.51h12.61l5.56-3.2a2.38 2.38 0 0 1 4.56.93ZM1945.23 34.3v.11l-.12-.11h.12z" />
    <path class="cls-1" d="M1945.23 34.3v.11l-.12-.11h.12z" />
    <path class="cls-1"
        d="M1959.72 35.42a2.37 2.37 0 0 1-4.34 1.32h-11l-8.52 8.52-1.74-1.73 8.66-8.66v-10.5a2.38 2.38 0 1 1 3.5-2.09 2.35 2.35 0 0 1-1 2v10h10a2.37 2.37 0 0 1 2.09-1.25 2.41 2.41 0 0 1 2.35 2.39ZM1976.05 60.83h-45.49a1.72 1.72 0 0 1-1.24-.52 1.76 1.76 0 0 1 1.23-3H1976a2.35 2.35 0 0 1 1.61-.63 2.38 2.38 0 1 1 0 4.75 2.4 2.4 0 0 1-1.61-.62ZM1957.4 75.35a2.37 2.37 0 0 1-2.18-1.43l-5.56-3.2h-12.61l-3.52-3.51h17.56l5.93 3.44a2.56 2.56 0 0 1 .39 0 2.37 2.37 0 1 1 0 4.73ZM1934.73 97a2.38 2.38 0 0 1-2.37-2.37 1.72 1.72 0 0 1 0-.39l-3.36-5.98V70.69l3.51 3.52v12.62l3.21 5.56a2.38 2.38 0 0 1-.94 4.56ZM1945.6 83.81h-.12l.12-.1v.1z" />
    <path class="cls-1" d="M1945.6 83.81h-.12l.12-.1v.1z" />
    <path class="cls-1"
        d="M1959.71 83.79a2.38 2.38 0 0 1-2.1 1.25 2.33 2.33 0 0 1-2-1.05h-10V94a2.38 2.38 0 0 1-1.14 4.47 2.37 2.37 0 0 1-2.37-2.37 2.33 2.33 0 0 1 1.05-2v-11l-8.52-8.52 1.73-1.73 8.67 8.66h10.49a2.38 2.38 0 1 1 4.19 2.24ZM1918.73 114.16V68.67a1.69 1.69 0 0 1 .52-1.24 1.74 1.74 0 0 1 2.48 0 1.73 1.73 0 0 1 .52 1.23v45.5a2.37 2.37 0 1 1-4.12 1.6 2.29 2.29 0 0 1 .6-1.6ZM1904.21 95.5a2.38 2.38 0 0 1 1.43-2.18l3.2-5.55V75.15l3.51-3.52V89.2l-3.43 5.91a2.58 2.58 0 0 1 0 .39 2.38 2.38 0 0 1-4.75 0ZM1882.61 72.83a2.38 2.38 0 0 1 2.37-2.36 2.69 2.69 0 0 1 .4 0l5.92-3.44h17.57l-3.52 3.51h-12.62l-5.56 3.2a2.37 2.37 0 0 1-3.12 1.24 2.4 2.4 0 0 1-1.44-2.18ZM1895.73 83.7v-.11l.12.11h-.12z" />
    <path class="cls-1" d="M1895.73 83.7v-.11l.12.11h-.12z" />
    <path class="cls-1"
        d="M1899.15 96.84a2.37 2.37 0 1 1-3.41-3.08V83.71h-10a2.39 2.39 0 0 1-2.09 1.26 2.42 2.42 0 0 1-2.36-2.4 2.36 2.36 0 0 1 4.33-1.31h11l8.53-8.53 1.73 1.74-8.66 8.66v10.5a2.37 2.37 0 0 1 .93 3.21ZM1867.05 57.34h45.49a1.73 1.73 0 0 1 1.24.52 1.76 1.76 0 0 1-1.23 3h-45.5a2.39 2.39 0 0 1-4-1.72 2.38 2.38 0 0 1 2.36-2.4 2.32 2.32 0 0 1 1.64.6ZM1885.7 42.82a2.36 2.36 0 0 1 2.18 1.43l5.56 3.2h12.63l3.52 3.51H1892l-5.92-3.44h-.4a2.37 2.37 0 0 1 0-4.74ZM1908.39 21.23a2.36 2.36 0 0 1 2.36 2.36 1.75 1.75 0 0 1 0 .4l3.44 5.92v17.57l-3.54-3.48V31.34l-3.2-5.56a2.37 2.37 0 0 1 .94-4.55ZM1897.52 34.35h.1l-.1.11v-.11z" />
    <path class="cls-1" d="M1897.52 34.35h.1l-.1.11v-.11z" />
    <path class="cls-1"
        d="m1908.48 43.73-1.73 1.74-8.66-8.67h-10.5a2.38 2.38 0 1 1-2.09-3.49 2.33 2.33 0 0 1 2 1h10v-10a2.38 2.38 0 0 1-1-3.22 2.4 2.4 0 0 1 2.11-1.25 2.37 2.37 0 0 1 2.36 2.37 2.33 2.33 0 0 1-1 2v11ZM2046.45 3.92v45.49a1.76 1.76 0 0 1-3.52 0V3.92a2.33 2.33 0 0 1-.63-1.61 2.37 2.37 0 1 1 4.73 0 2.32 2.32 0 0 1-.58 1.61ZM2061 22.58a2.36 2.36 0 0 1-1.43 2.17l-3.2 5.56v12.62l-3.51 3.52V28.9l3.44-5.93a2.58 2.58 0 0 1 0-.39 2.37 2.37 0 0 1 4.74 0ZM2082.56 45.26a2.37 2.37 0 0 1-2.36 2.37 2.58 2.58 0 0 1-.4 0l-5.92 3.37h-17.57l3.52-3.5h12.62l5.55-3.21a2.38 2.38 0 0 1 3.13-1.23 2.35 2.35 0 0 1 1.43 2.17ZM2069.43 34.38v.11l-.11-.11h.11z" />
    <path class="cls-1" d="M2069.43 34.38v.11l-.11-.11h.11z" />
    <path class="cls-1"
        d="M2083.92 35.51a2.38 2.38 0 0 1-2.37 2.37 2.34 2.34 0 0 1-2-1.06h-11l-8.52 8.53-1.74-1.74L2067 35V24.45a2.38 2.38 0 1 1 3.49-2.09 2.33 2.33 0 0 1-1.05 2v10h10a2.37 2.37 0 0 1 4.46 1.14ZM2100.26 60.91h-45.49a1.72 1.72 0 0 1-1.25-.51 1.77 1.77 0 0 1 0-2.49 1.81 1.81 0 0 1 1.24-.52h45.49a2.37 2.37 0 1 1 0 3.49ZM2081.6 75.44a2.38 2.38 0 0 1-2.18-1.43l-5.56-3.21h-12.61l-3.52-3.51h17.57l5.92 3.45a1.72 1.72 0 0 1 .39 0 2.37 2.37 0 0 1 0 4.74ZM2058.93 97a2.38 2.38 0 0 1-2.37-2.37 2.58 2.58 0 0 1 0-.39l-3.44-5.93V70.78l3.51 3.52v12.61l3.2 5.56a2.38 2.38 0 0 1 1.23 3.13 2.35 2.35 0 0 1-2.17 1.43ZM2069.8 83.9h-.12l.12-.1v.1z" />
    <path class="cls-1" d="M2069.8 83.9h-.12l.12-.1v.1z" />
    <path class="cls-1"
        d="M2083.92 83.87a2.38 2.38 0 0 1-4.07.21h-10v10a2.38 2.38 0 0 1-1.14 4.47 2.36 2.36 0 0 1-1.32-4.33v-11l-8.52-8.53 1.74-1.73 8.66 8.66h10.5a2.38 2.38 0 0 1 4.19 2.24ZM2042.94 114.24V68.75a1.76 1.76 0 1 1 3.52 0v45.49a2.37 2.37 0 1 1-4.11 1.61 2.27 2.27 0 0 1 .59-1.61ZM2028.41 95.59a2.36 2.36 0 0 1 1.43-2.18l3.21-5.56V75.24l3.5-3.53v17.57l-3.43 5.91a1.81 1.81 0 0 1 0 .4 2.38 2.38 0 0 1-4.75 0ZM2006.82 72.92a2.37 2.37 0 0 1 2.37-2.37 1.72 1.72 0 0 1 .39 0l5.93-3.45h17.56l-3.52 3.51h-12.61l-5.56 3.21a2.38 2.38 0 0 1-4.56-.94ZM2019.94 83.78v-.11l.11.11h-.11z" />
    <path class="cls-1" d="M2019.94 83.78v-.11l.11.11h-.11z" />
    <path class="cls-1"
        d="M2023.36 96.93a2.38 2.38 0 0 1-4.47-1.13 2.32 2.32 0 0 1 1-2v-10h-10a2.38 2.38 0 0 1-2.09 1.25 2.41 2.41 0 0 1-2.37-2.39 2.37 2.37 0 0 1 2.37-2.37 2.33 2.33 0 0 1 2 1h11l8.52-8.52 1.73 1.73-8.66 8.66v10.5a2.38 2.38 0 0 1 .97 3.27ZM1991.25 57.43h45.49a1.65 1.65 0 0 1 1.24.52 1.75 1.75 0 0 1-1.22 3h-45.51a2.34 2.34 0 0 1-1.61.64 2.38 2.38 0 1 1 0-4.75 2.27 2.27 0 0 1 1.61.59ZM2009.91 42.9a2.38 2.38 0 0 1 2.18 1.43l5.56 3.21h12.62l3.52 3.51h-17.56l-5.93-3.45a1.72 1.72 0 0 1-.39 0 2.37 2.37 0 0 1 0-4.74ZM2032.59 21.31a2.37 2.37 0 0 1 2.37 2.37 1.72 1.72 0 0 1 0 .39l3.44 5.93v17.56l-3.5-3.52V31.43l-3.21-5.56a2.38 2.38 0 0 1 .94-4.56ZM2021.72 34.43h.11l-.11.11v-.11z" />
    <path class="cls-1" d="M2021.72 34.43h.11l-.11.11v-.11z" />
    <path class="cls-1"
        d="m2032.68 43.81-1.68 1.74-8.67-8.66h-10.5a2.37 2.37 0 1 1-.12-2.45h10v-10a2.38 2.38 0 0 1 1.13-4.47 2.38 2.38 0 0 1 2.37 2.37 2.34 2.34 0 0 1-1.06 2v11ZM2170.65 4v45.5a1.69 1.69 0 0 1-.52 1.24 1.76 1.76 0 0 1-3-1.23V4a2.41 2.41 0 0 1-.63-1.61 2.37 2.37 0 0 1 4.74 0 2.35 2.35 0 0 1-.59 1.61ZM2185.17 22.66a2.37 2.37 0 0 1-1.43 2.18l-3.2 5.56V43l-3.54 3.53V29l3.45-5.93a1.72 1.72 0 0 1 0-.39 2.37 2.37 0 0 1 4.73 0ZM2206.77 45.34a2.37 2.37 0 0 1-2.37 2.37 1.72 1.72 0 0 1-.39 0l-5.93 3.45h-17.57l3.52-3.51h12.62l5.56-3.2a2.38 2.38 0 0 1 3.13-1.24 2.4 2.4 0 0 1 1.43 2.17ZM2193.63 34.46v.12l-.11-.12h.11z" />
    <path class="cls-1" d="M2193.63 34.46v.12l-.11-.12h.11z" />
    <path class="cls-1"
        d="M2208.12 35.59a2.36 2.36 0 0 1-4.33 1.32h-11l-8.53 8.52-1.73-1.73 8.66-8.67V24.54a2.38 2.38 0 1 1 3.49-2.09 2.33 2.33 0 0 1-1 2v10h10a2.37 2.37 0 0 1 4.46 1.14ZM2224.46 61H2179a1.76 1.76 0 0 1 0-3.52h45.49a2.33 2.33 0 0 1 1.61-.63 2.38 2.38 0 1 1-1.6 4.13ZM2205.81 75.52a2.36 2.36 0 0 1-2.18-1.43l-5.56-3.2h-12.62l-3.52-3.51h17.57l5.93 3.44a2.47 2.47 0 0 1 .39 0 2.37 2.37 0 1 1 0 4.73ZM2183.14 97.12a2.38 2.38 0 0 1-2.37-2.37 1.81 1.81 0 0 1 0-.4l-3.45-5.92V70.86l3.51 3.52V87l3.2 5.56a2.37 2.37 0 0 1 1.24 3.12 2.4 2.4 0 0 1-2.17 1.44ZM2194 83.98h-.11l.11-.1v.1z" />
    <path class="cls-1" d="M2194 83.98h-.11l.11-.1v.1z" />
    <path class="cls-1"
        d="M2208.12 84a2.38 2.38 0 0 1-2.1 1.25 2.33 2.33 0 0 1-2-1h-10v10a2.38 2.38 0 0 1-1.14 4.47 2.37 2.37 0 0 1-2.36-2.37 2.31 2.31 0 0 1 1-2v-11l-8.52-8.56 1.74-1.74 8.66 8.67h10.5a2.38 2.38 0 1 1 4.19 2.24ZM2167.14 114.33V68.84a1.69 1.69 0 0 1 .52-1.25 1.76 1.76 0 0 1 3 1.23v45.49a2.37 2.37 0 0 1-.13 3.35 2.33 2.33 0 0 1-1.61.63 2.38 2.38 0 0 1-2.38-2.37 2.24 2.24 0 0 1 .6-1.59ZM2152.61 95.67a2.4 2.4 0 0 1 1.43-2.18l3.21-5.56V75.32l3.51-3.52v17.56l-3.43 5.92a2.56 2.56 0 0 1 0 .39 2.38 2.38 0 1 1-4.75 0ZM2131 73a2.38 2.38 0 0 1 2.37-2.37 2.58 2.58 0 0 1 .39 0l5.93-3.44h17.56l-3.52 3.51h-12.61l-5.56 3.2a2.38 2.38 0 0 1-4.56-.9ZM2144.14 83.87v-.12l.12.12h-.12z" />
    <path class="cls-1" d="M2144.14 83.87v-.12l.12.12h-.12z" />
    <path class="cls-1"
        d="M2147.56 97a2.38 2.38 0 1 1-3.42-3.09v-10h-10a2.37 2.37 0 0 1-2.09 1.25 2.38 2.38 0 0 1 0-4.76 2.36 2.36 0 0 1 2 1h11l8.52-8.52 1.74 1.74-8.66 8.66V93.8a2.38 2.38 0 0 1 .91 3.2ZM2115.46 57.51H2161a1.72 1.72 0 0 1 1.24.52 1.76 1.76 0 0 1-1.23 3h-45.5a2.38 2.38 0 1 1-1.65-4.12 2.31 2.31 0 0 1 1.6.6ZM2134.11 43a2.37 2.37 0 0 1 2.18 1.43l5.56 3.2h12.63l3.52 3.51h-17.57l-5.93-3.44h-.39a2.37 2.37 0 1 1 0-4.73ZM2156.79 21.39a2.38 2.38 0 0 1 2.37 2.37 1.67 1.67 0 0 1 0 .39l3.45 5.93v17.57l-3.51-3.52V31.51l-3.2-5.56a2.37 2.37 0 0 1-1.24-3.12 2.4 2.4 0 0 1 2.17-1.44ZM2145.93 34.52h.1l-.1.11v-.11z" />
    <path class="cls-1" d="M2145.93 34.52h.1l-.1.11v-.11z" />
    <path class="cls-1"
        d="m2156.88 43.9-1.72 1.73-8.66-8.63H2136a2.38 2.38 0 1 1-4.19-2.24 2.36 2.36 0 0 1 2.1-1.25 2.32 2.32 0 0 1 2 1.05h10v-10a2.38 2.38 0 0 1-1-3.22A2.36 2.36 0 0 1 2147 20a2.36 2.36 0 0 1 1.32 4.33v11ZM2294.85 4.09v45.49a1.68 1.68 0 0 1-.51 1.24 1.76 1.76 0 0 1-2.49 0 1.79 1.79 0 0 1-.52-1.24V4.09a2.37 2.37 0 1 1 4.1-1.62 2.33 2.33 0 0 1-.58 1.62ZM2309.38 22.74a2.36 2.36 0 0 1-1.43 2.18l-3.21 5.56V43.1l-3.51 3.52V29.07l3.45-5.93a1.72 1.72 0 0 1 0-.39 2.37 2.37 0 1 1 4.74 0ZM2331 45.43a2.38 2.38 0 0 1-2.37 2.37 2.58 2.58 0 0 1-.39 0l-5.93 3.44h-17.56l3.52-3.51h12.61l5.56-3.2a2.37 2.37 0 0 1 3.13-1.23 2.35 2.35 0 0 1 1.43 2.17ZM2317.84 34.55v.11l-.12-.11h.12z" />
    <path class="cls-1" d="M2317.84 34.55v.11l-.12-.11h.12z" />
    <path class="cls-1"
        d="M2332.33 35.68A2.38 2.38 0 0 1 2330 38a2.34 2.34 0 0 1-2-1h-11l-8.52 8.53-1.74-1.74 8.66-8.66V24.62a2.38 2.38 0 1 1 3.5-2.09 2.33 2.33 0 0 1-1 2v10.01h10a2.37 2.37 0 0 1 2.09-1.26 2.41 2.41 0 0 1 2.34 2.4ZM2348.66 61.08h-45.49a1.67 1.67 0 0 1-1.24-.52 1.76 1.76 0 0 1 1.23-3h45.49a2.37 2.37 0 1 1 1.62 4.11 2.38 2.38 0 0 1-1.61-.62ZM2330 75.61a2.39 2.39 0 0 1-2.18-1.43l-5.55-3.18h-12.61l-3.52-3.51h17.56l5.93 3.45a1.72 1.72 0 0 1 .39 0 2.37 2.37 0 1 1 0 4.74ZM2307.34 97.2a2.37 2.37 0 0 1-2.37-2.37 1.72 1.72 0 0 1 0-.39l-3.45-5.93V71l3.51 3.52v12.56l3.21 5.56a2.38 2.38 0 0 1-.94 4.56ZM2318.2 84.07h-.11l.11-.1v.1z" />
    <path class="cls-1" d="M2318.2 84.07h-.11l.11-.1v.1z" />
    <path class="cls-1"
        d="M2332.32 84a2.39 2.39 0 0 1-2.1 1.26 2.36 2.36 0 0 1-2-1.06h-10v10a2.38 2.38 0 0 1-1.14 4.47 2.36 2.36 0 0 1-1.32-4.33v-11l-8.52-8.53 1.73-1.73 8.67 8.66h10.49a2.38 2.38 0 1 1 4.19 2.24ZM2291.34 114.41V68.92a1.69 1.69 0 0 1 .52-1.24 1.76 1.76 0 0 1 3 1.23v45.49a2.37 2.37 0 1 1-4.12 1.61 2.3 2.3 0 0 1 .6-1.6ZM2276.82 95.76a2.36 2.36 0 0 1 1.43-2.18l3.2-5.56V75.4l3.51-3.52v17.57l-3.43 5.91a2.58 2.58 0 0 1 0 .4 2.38 2.38 0 0 1-4.75 0ZM2255.22 73.09a2.38 2.38 0 0 1 2.37-2.37 1.67 1.67 0 0 1 .39 0l5.93-3.45h17.57l-3.48 3.55h-12.62l-5.56 3.2a2.37 2.37 0 0 1-3.12 1.24 2.4 2.4 0 0 1-1.44-2.17ZM2268.34 83.95v-.11l.12.11h-.12z" />
    <path class="cls-1" d="M2268.34 83.95v-.11l.12.11h-.12z" />
    <path class="cls-1"
        d="M2271.76 97.1a2.38 2.38 0 1 1-3.42-3.09V84h-10a2.36 2.36 0 0 1-2.09 1.25 2.41 2.41 0 0 1-2.36-2.39 2.36 2.36 0 0 1 4.33-1.32h11l8.53-8.52 1.73 1.73-8.66 8.66v10.5a2.38 2.38 0 0 1 .94 3.19ZM2239.66 57.6h45.49a1.68 1.68 0 0 1 1.24.51 1.77 1.77 0 0 1 0 2.49 1.79 1.79 0 0 1-1.24.52h-45.5A2.38 2.38 0 1 1 2238 57a2.29 2.29 0 0 1 1.66.6ZM2258.31 43.07a2.36 2.36 0 0 1 2.18 1.43l5.56 3.21h12.63l3.52 3.5h-17.57l-5.92-3.44a1.75 1.75 0 0 1-.4 0 2.37 2.37 0 0 1 0-4.74ZM2281 21.48a2.37 2.37 0 0 1 2.36 2.37 1.71 1.71 0 0 1 0 .39l3.44 5.93v17.56l-3.51-3.52V31.6l-3.2-5.56a2.38 2.38 0 0 1 .94-4.56ZM2270.13 34.6h.1l-.1.11v-.11z" />
    <path class="cls-1" d="M2270.13 34.6h.1l-.1.11v-.11z" />
    <path class="cls-1"
        d="m2281.09 44-1.73 1.74-8.66-8.66h-10.5a2.38 2.38 0 1 1-2.09-3.5 2.33 2.33 0 0 1 2 1h10v-10a2.37 2.37 0 0 1 1.12-4.47 2.37 2.37 0 0 1 2.37 2.37 2.31 2.31 0 0 1-1.05 2v11ZM2419.06 4.17v45.5a1.76 1.76 0 0 1-3.52 0V4.17a2.32 2.32 0 0 1-.63-1.6 2.37 2.37 0 1 1 4.73 0 2.29 2.29 0 0 1-.58 1.6ZM2433.58 22.83a2.37 2.37 0 0 1-1.43 2.18l-3.2 5.56v12.61l-3.51 3.52V29.15l3.44-5.93a2.58 2.58 0 0 1 0-.39 2.37 2.37 0 1 1 4.74 0ZM2455.17 45.51a2.37 2.37 0 0 1-2.36 2.37 1.75 1.75 0 0 1-.4 0l-5.92 3.45h-17.57l3.52-3.51h12.61l5.56-3.21a2.38 2.38 0 0 1 4.56.94ZM2442.04 34.63v.12l-.11-.12h.11z" />
    <path class="cls-1" d="M2442.04 34.63v.12l-.11-.12h.11z" />
    <path class="cls-1"
        d="M2456.53 35.76a2.37 2.37 0 0 1-2.37 2.37 2.33 2.33 0 0 1-2-1.05h-11l-8.52 8.52-1.74-1.74 8.67-8.66V24.7a2.37 2.37 0 1 1 2.44-.12v10h10a2.37 2.37 0 0 1 4.46 1.14ZM2472.87 61.16h-45.49a1.76 1.76 0 1 1 0-3.52h45.49a2.3 2.3 0 0 1 1.61-.63 2.38 2.38 0 1 1 0 4.75 2.34 2.34 0 0 1-1.6-.63ZM2454.21 75.69a2.37 2.37 0 0 1-2.18-1.43l-5.56-3.2h-12.61l-3.52-3.51h17.57l5.92 3.44a2.58 2.58 0 0 1 .39 0 2.37 2.37 0 0 1 0 4.74ZM2431.54 97.28a2.37 2.37 0 0 1-2.37-2.36 2.58 2.58 0 0 1 0-.4l-3.44-5.92V71l3.5 3.52v12.64l3.21 5.56a2.38 2.38 0 0 1 1.23 3.13 2.35 2.35 0 0 1-2.17 1.43ZM2442.41 84.15h-.12l.12-.1v.1z" />
    <path class="cls-1" d="M2442.41 84.15h-.12l.12-.1v.1z" />
    <path class="cls-1"
        d="M2456.53 84.12a2.38 2.38 0 0 1-4.07.21h-10v10a2.38 2.38 0 0 1-1.14 4.47 2.37 2.37 0 0 1-1.32-4.34v-11l-8.56-8.46 1.74-1.74 8.66 8.67h10.5a2.37 2.37 0 0 1 4.19 2.23ZM2415.55 114.5V69a1.76 1.76 0 1 1 3.52 0v45.49a2.37 2.37 0 1 1-4.11 1.61 2.24 2.24 0 0 1 .59-1.6ZM2401 95.84a2.37 2.37 0 0 1 1.43-2.18l3.21-5.56V75.49l3.5-3.52v17.56l-3.43 5.92a1.72 1.72 0 0 1 0 .39 2.38 2.38 0 1 1-4.75 0ZM2379.43 73.17a2.38 2.38 0 0 1 2.37-2.37 2.58 2.58 0 0 1 .39 0l5.93-3.44h17.56l-3.52 3.5h-12.61l-5.55 3.25a2.38 2.38 0 0 1-4.56-.94ZM2392.55 84.04v-.12l.11.12h-.11z" />
    <path class="cls-1" d="M2392.55 84.04v-.12l.11.12h-.11z" />
    <path class="cls-1"
        d="M2396 97.18a2.37 2.37 0 0 1-4.47-1.12 2.34 2.34 0 0 1 1.05-2v-10h-10a2.37 2.37 0 1 1-2.09-3.51 2.33 2.33 0 0 1 2 1h11l8.52-8.52 1.73 1.73-8.74 8.71V94a2.36 2.36 0 0 1 1 3.18ZM2363.86 57.68h45.49a1.69 1.69 0 0 1 1.24.52 1.74 1.74 0 0 1 0 2.48 1.73 1.73 0 0 1-1.23.52h-45.51a2.33 2.33 0 0 1-1.61.63 2.38 2.38 0 1 1 0-4.75 2.27 2.27 0 0 1 1.62.6ZM2382.52 43.16a2.38 2.38 0 0 1 2.18 1.43l5.56 3.2h12.62l3.52 3.51h-17.56l-5.93-3.45a1.72 1.72 0 0 1-.39 0 2.37 2.37 0 1 1 0-4.73ZM2405.2 21.56a2.38 2.38 0 0 1 2.37 2.37 1.72 1.72 0 0 1 0 .39l3.44 5.93v17.57l-3.5-3.52V31.68l-3.21-5.56a2.38 2.38 0 0 1 .94-4.56ZM2394.33 34.68h.1l-.1.12v-.12z" />
    <path class="cls-1" d="M2394.33 34.68h.1l-.1.12v-.12z" />
    <path class="cls-1"
        d="m2405.29 44.07-1.72 1.73-8.67-8.66h-10.5a2.37 2.37 0 1 1-.12-2.44h10v-10a2.38 2.38 0 0 1 1.13-4.48 2.36 2.36 0 0 1 1.31 4.33v11ZM2543.26 4.26v45.49a1.69 1.69 0 0 1-.52 1.24 1.76 1.76 0 0 1-3-1.23V4.26a2.37 2.37 0 0 1 1.73-4 2.38 2.38 0 0 1 2.38 2.36 2.35 2.35 0 0 1-.59 1.64ZM2557.78 22.91a2.36 2.36 0 0 1-1.43 2.18l-3.2 5.56v12.62l-3.51 3.52V29.23l3.45-5.92a1.75 1.75 0 0 1 0-.4 2.37 2.37 0 0 1 4.73 0ZM2579.38 45.6A2.37 2.37 0 0 1 2577 48a2.56 2.56 0 0 1-.39 0l-5.93 3.44h-17.57l3.52-3.51h12.62l5.56-3.2a2.38 2.38 0 0 1 3.13-1.24 2.41 2.41 0 0 1 1.43 2.18ZM2566.24 34.72v.11l-.11-.11h.11z" />
    <path class="cls-1" d="M2566.24 34.72v.11l-.11-.11h.11z" />
    <path class="cls-1"
        d="M2580.73 35.84a2.36 2.36 0 0 1-4.33 1.32h-11l-8.53 8.52-1.73-1.68 8.66-8.66V24.79a2.38 2.38 0 1 1 2.2-4.19 2.36 2.36 0 0 1 1.25 2.1 2.32 2.32 0 0 1-1.05 2v10h10a2.38 2.38 0 0 1 2.09-1.25 2.41 2.41 0 0 1 2.44 2.39ZM2597.07 61.25h-45.49a1.65 1.65 0 0 1-1.24-.52 1.76 1.76 0 0 1 1.23-3h45.49a2.37 2.37 0 1 1 0 3.5ZM2578.41 75.77a2.36 2.36 0 0 1-2.17-1.43l-5.56-3.2h-12.62l-3.52-3.51h17.57l5.93 3.45a1.67 1.67 0 0 1 .39 0 2.37 2.37 0 1 1 0 4.73ZM2555.75 97.37a2.37 2.37 0 0 1-2.37-2.37 2.56 2.56 0 0 1 0-.39l-3.38-5.93V71.11l3.51 3.53v12.61l3.2 5.56a2.38 2.38 0 0 1 1.24 3.13 2.4 2.4 0 0 1-2.17 1.43ZM2566.61 84.23h-.11l.11-.1v.1z" />
    <path class="cls-1" d="M2566.61 84.23h-.11l.11-.1v.1z" />
    <path class="cls-1"
        d="M2580.73 84.21a2.36 2.36 0 0 1-2.1 1.25 2.31 2.31 0 0 1-2-1h-10.05v10a2.37 2.37 0 0 1-1.13 4.47 2.37 2.37 0 0 1-2.36-2.37 2.31 2.31 0 0 1 1.05-2v-11l-8.5-8.56 1.74-1.73L2566 82h10.5a2.38 2.38 0 1 1 4.19 2.24ZM2539.75 114.58V69.09a1.65 1.65 0 0 1 .52-1.24 1.76 1.76 0 0 1 3 1.23v45.49a2.37 2.37 0 0 1-.13 3.34 2.33 2.33 0 0 1-1.61.63 2.38 2.38 0 0 1-2.38-2.36 2.25 2.25 0 0 1 .6-1.6ZM2525.22 95.92a2.38 2.38 0 0 1 1.43-2.17l3.21-5.56V75.57l3.51-3.52v17.57l-3.44 5.91a1.72 1.72 0 0 1 0 .39 2.38 2.38 0 1 1-4.75 0ZM2503.63 73.26a2.37 2.37 0 0 1 2.37-2.37 1.72 1.72 0 0 1 .39 0l5.93-3.45h17.56l-3.52 3.56h-12.61l-5.56 3.2a2.38 2.38 0 0 1-4.56-.93ZM2516.75 84.12v-.11l.11.11h-.11z" />
    <path class="cls-1" d="M2516.75 84.12v-.11l.11.11h-.11z" />
    <path class="cls-1"
        d="M2520.17 97.27a2.38 2.38 0 0 1-4.47-1.13 2.33 2.33 0 0 1 1.05-2V84.13h-10a2.38 2.38 0 0 1-2.09 1.26 2.42 2.42 0 0 1-2.37-2.4 2.37 2.37 0 0 1 2.37-2.36 2.31 2.31 0 0 1 2 1.05h11l8.52-8.53 1.74 1.74-8.66 8.66v10.5a2.38 2.38 0 0 1 .91 3.22ZM2488.07 57.77h45.49a1.76 1.76 0 1 1 0 3.52h-45.5a2.38 2.38 0 1 1-1.65-4.11 2.26 2.26 0 0 1 1.66.59ZM2506.72 43.24a2.37 2.37 0 0 1 2.18 1.43l5.56 3.2h12.63l3.52 3.51H2513l-5.93-3.44a2.58 2.58 0 0 1-.39 0 2.37 2.37 0 0 1 0-4.74ZM2529.4 21.65a2.37 2.37 0 0 1 2.37 2.37 1.72 1.72 0 0 1 0 .39l3.45 5.92V47.9l-3.51-3.52V31.77l-3.2-5.56a2.38 2.38 0 0 1 .93-4.56ZM2518.54 34.77h.1l-.1.11v-.11z" />
    <path class="cls-1" d="M2518.54 34.77h.1l-.1.11v-.11z" />
    <path class="cls-1"
        d="m2529.49 44.15-1.72 1.74-8.66-8.67h-10.5a2.38 2.38 0 1 1-2.09-3.49 2.35 2.35 0 0 1 2 1.05h10v-10a2.38 2.38 0 0 1 1.13-4.47 2.36 2.36 0 0 1 1.32 4.33v11ZM2667.46 4.34v45.49a1.72 1.72 0 0 1-.51 1.25 1.77 1.77 0 0 1-2.49 0 1.81 1.81 0 0 1-.52-1.24V4.34a2.34 2.34 0 0 1-.64-1.61 2.37 2.37 0 0 1 4.74 0 2.33 2.33 0 0 1-.58 1.61ZM2682 23a2.38 2.38 0 0 1-1.43 2.18l-3.21 5.56v12.61l-3.51 3.52V29.32l3.45-5.93a1.72 1.72 0 0 1 0-.39 2.37 2.37 0 1 1 4.74 0ZM2703.58 45.68a2.37 2.37 0 0 1-2.37 2.37 1.72 1.72 0 0 1-.39 0l-5.93 3.44h-17.56l3.52-3.5h12.61l5.56-3.21a2.38 2.38 0 0 1 4.56.94ZM2690.45 34.8v.11l-.12-.11h.12z" />
    <path class="cls-1" d="M2690.45 34.8v.11l-.12-.11h.12z" />
    <path class="cls-1"
        d="M2704.93 35.93a2.36 2.36 0 0 1-4.33 1.32h-11l-8.52 8.52-1.74-1.77 8.66-8.66V24.87a2.37 2.37 0 1 1 2.45-.12v10h10a2.36 2.36 0 0 1 4.45 1.14ZM2721.27 61.33h-45.49a1.76 1.76 0 1 1 0-3.52h45.49a2.37 2.37 0 1 1 0 3.49ZM2702.62 75.86a2.37 2.37 0 0 1-2.18-1.43l-5.56-3.21h-12.61l-3.52-3.5h17.56l5.93 3.44a2.58 2.58 0 0 1 .39 0 2.37 2.37 0 1 1 0 4.74ZM2680 97.45a2.37 2.37 0 0 1-2.37-2.37 1.72 1.72 0 0 1 0-.39l-3.45-5.93V71.2l3.51 3.52v12.61l3.21 5.56a2.38 2.38 0 0 1-.94 4.56ZM2690.81 84.32h-.11l.11-.1v.1z" />
    <path class="cls-1" d="M2690.81 84.32h-.11l.11-.1v.1z" />
    <path class="cls-1"
        d="M2704.93 84.29a2.37 2.37 0 0 1-4.06.21h-10v10a2.38 2.38 0 0 1-1.14 4.48 2.36 2.36 0 0 1-1.32-4.33v-11l-8.52-8.52 1.73-1.74 8.67 8.66h10.49a2.38 2.38 0 0 1 4.19 2.24ZM2664 114.66V69.17a1.72 1.72 0 0 1 .52-1.24 1.76 1.76 0 0 1 3 1.23v45.49a2.37 2.37 0 1 1-4.12 1.61 2.31 2.31 0 0 1 .6-1.6ZM2649.43 96a2.37 2.37 0 0 1 1.43-2.18l3.2-5.56v-12.6l3.51-3.52V89.7l-3.43 5.92a2.58 2.58 0 0 1 0 .39 2.38 2.38 0 1 1-4.75 0ZM2627.83 73.34a2.38 2.38 0 0 1 2.37-2.34 1.67 1.67 0 0 1 .39 0l5.93-3.45h17.57l-3.52 3.51H2638l-5.56 3.21a2.38 2.38 0 0 1-4.56-.94ZM2640.95 84.21v-.12l.12.12h-.12z" />
    <path class="cls-1" d="M2640.95 84.21v-.12l.12.12h-.12z" />
    <path class="cls-1"
        d="M2644.37 97.35a2.38 2.38 0 1 1-3.42-3.09v-10h-10a2.36 2.36 0 0 1-2.09 1.25 2.4 2.4 0 0 1-2.36-2.39 2.36 2.36 0 0 1 4.33-1.32h11l8.53-8.52 1.73 1.73-8.66 8.67v10.45a2.38 2.38 0 0 1 .94 3.22ZM2612.27 57.85h45.49a1.65 1.65 0 0 1 1.24.52 1.76 1.76 0 0 1-1.23 3h-45.5a2.39 2.39 0 0 1-4-1.73 2.37 2.37 0 0 1 2.35-2.39 2.29 2.29 0 0 1 1.65.6ZM2630.92 43.32a2.38 2.38 0 0 1 2.18 1.43l5.56 3.21h12.63l3.52 3.51h-17.57l-5.92-3.47a1.75 1.75 0 0 1-.4 0 2.37 2.37 0 0 1 0-4.74ZM2653.61 21.73a2.37 2.37 0 0 1 2.39 2.37 2.56 2.56 0 0 1 0 .39l3.44 5.93V48l-3.51-3.53V31.85l-3.2-5.56a2.38 2.38 0 0 1-1.24-3.13 2.41 2.41 0 0 1 2.18-1.43ZM2642.74 34.85h.1l-.1.12v-.12z" />
    <path class="cls-1" d="M2642.74 34.85h.1l-.1.12v-.12z" />
    <path class="cls-1"
        d="M2653.7 44.24 2652 46l-8.66-8.66h-10.5a2.38 2.38 0 1 1-.13-2.45h10.05v-10a2.37 2.37 0 0 1 1.12-4.47 2.38 2.38 0 0 1 2.37 2.37 2.31 2.31 0 0 1-1 2v11ZM2791.66 4.43v45.49a1.76 1.76 0 0 1-3.52 0V4.43a2.3 2.3 0 0 1-.63-1.61 2.37 2.37 0 1 1 4.73 0 2.3 2.3 0 0 1-.58 1.61ZM2806.19 23.08a2.37 2.37 0 0 1-1.43 2.18l-3.2 5.56v12.61l-3.51 3.57V29.4l3.44-5.92a2.71 2.71 0 0 1 0-.4 2.37 2.37 0 0 1 4.74 0ZM2827.78 45.76a2.37 2.37 0 0 1-2.36 2.37 1.75 1.75 0 0 1-.4 0l-5.92 3.45h-17.57l3.52-3.51h12.61l5.56-3.2a2.38 2.38 0 0 1 4.56.93ZM2814.65 34.88V35l-.11-.12h.11z" />
    <path class="cls-1" d="M2814.65 34.88V35l-.11-.12h.11z" />
    <path class="cls-1"
        d="M2829.14 36a2.37 2.37 0 0 1-2.37 2.37 2.33 2.33 0 0 1-2-1.05h-11l-8.52 8.52-1.74-1.73 8.67-8.66V25a2.38 2.38 0 1 1 3.49-2.09 2.35 2.35 0 0 1-1 2v10h10a2.37 2.37 0 0 1 2.09-1.25 2.41 2.41 0 0 1 2.38 2.34ZM2845.48 61.42H2800a1.72 1.72 0 0 1-1.24-.52 1.76 1.76 0 0 1 1.23-3h45.49a2.35 2.35 0 0 1 1.61-.63 2.38 2.38 0 1 1-1.59 4.13ZM2826.82 75.94a2.37 2.37 0 0 1-2.18-1.43l-5.56-3.2h-12.61L2803 67.8h17.56l5.93 3.45a1.72 1.72 0 0 1 .39 0 2.37 2.37 0 0 1 0 4.73ZM2804.15 97.54a2.38 2.38 0 0 1-2.37-2.37 2.58 2.58 0 0 1 0-.39l-3.44-5.93V71.28l3.5 3.52v12.62l3.21 5.56a2.38 2.38 0 0 1-.94 4.56ZM2815.02 84.4h-.12l.12-.1v.1z" />
    <path class="cls-1" d="M2815.02 84.4h-.12l.12-.1v.1z" />
    <path class="cls-1"
        d="M2829.14 84.38a2.39 2.39 0 0 1-2.1 1.25 2.34 2.34 0 0 1-2-1h-10v10a2.38 2.38 0 0 1-1.14 4.47 2.36 2.36 0 0 1-1.32-4.33v-11l-8.52-8.52 1.74-1.73 8.66 8.66H2825a2.38 2.38 0 1 1 4.19 2.24ZM2788.16 114.75V69.26a1.73 1.73 0 0 1 .52-1.24 1.76 1.76 0 0 1 2.49 0 1.72 1.72 0 0 1 .51 1.23v45.5a2.37 2.37 0 1 1-4.11 1.6 2.24 2.24 0 0 1 .59-1.6ZM2773.63 96.09a2.38 2.38 0 0 1 1.43-2.18l3.21-5.55V75.74l3.5-3.52v17.57l-3.43 5.91a1.72 1.72 0 0 1 0 .39 2.38 2.38 0 1 1-4.75 0ZM2752 73.42a2.37 2.37 0 0 1 2.37-2.36 2.56 2.56 0 0 1 .39 0l5.92-3.44h17.57l-3.52 3.51h-12.61l-5.56 3.2a2.38 2.38 0 0 1-4.56-.94ZM2765.16 84.29v-.11l.11.11h-.11z" />
    <path class="cls-1" d="M2765.16 84.29v-.11l.11.11h-.11z" />
    <path class="cls-1"
        d="M2768.58 97.43a2.37 2.37 0 0 1-4.47-1.12 2.31 2.31 0 0 1 1-2v-10h-10a2.37 2.37 0 0 1-4.46-1.14 2.38 2.38 0 0 1 2.37-2.37 2.34 2.34 0 0 1 2 1.06h11l8.52-8.53 1.73 1.74-8.66 8.66v10.5a2.37 2.37 0 0 1 .97 3.2ZM2736.47 57.93H2782a1.76 1.76 0 0 1 0 3.52h-45.51a2.33 2.33 0 0 1-1.61.63 2.38 2.38 0 1 1 0-4.75 2.32 2.32 0 0 1 1.59.6ZM2755.13 43.41a2.38 2.38 0 0 1 2.18 1.43l5.55 3.2h12.63l3.52 3.51h-17.56l-5.93-3.44a2.58 2.58 0 0 1-.39 0 2.37 2.37 0 1 1 0-4.74ZM2777.81 21.82a2.37 2.37 0 0 1 2.37 2.36 1.75 1.75 0 0 1 0 .4l3.44 5.92v17.57l-3.5-3.52V31.93l-3.21-5.56a2.37 2.37 0 0 1 .94-4.55ZM2766.94 34.94h.1l-.1.11v-.11z" />
    <path class="cls-1" d="M2766.94 34.94h.1l-.1.11v-.11z" />
    <path class="cls-1"
        d="m2777.9 44.32-1.73 1.74-8.66-8.67H2757a2.38 2.38 0 1 1-4.19-2.24 2.4 2.4 0 0 1 2.1-1.25 2.36 2.36 0 0 1 2 1.05h10v-10a2.38 2.38 0 0 1 1.13-4.47 2.36 2.36 0 0 1 1.31 4.33v11ZM2915.87 4.51V50a1.69 1.69 0 0 1-.52 1.24 1.74 1.74 0 0 1-2.48 0 1.73 1.73 0 0 1-.52-1.23V4.51a2.33 2.33 0 0 1-.63-1.61 2.37 2.37 0 1 1 4.74 0 2.33 2.33 0 0 1-.59 1.61ZM2930.39 23.17a2.36 2.36 0 0 1-1.43 2.17l-3.2 5.56v12.62l-3.51 3.48V29.49l3.45-5.93a1.72 1.72 0 0 1 0-.39 2.37 2.37 0 1 1 4.73 0ZM2952 45.85a2.38 2.38 0 0 1-2.37 2.37 2.58 2.58 0 0 1-.39 0l-5.93 3.44h-17.57l3.52-3.5h12.62l5.56-3.21a2.38 2.38 0 0 1 4.56.94ZM2938.85 34.97v.11l-.11-.11h.11z" />
    <path class="cls-1" d="M2938.85 34.97v.11l-.11-.11h.11z" />
    <path class="cls-1"
        d="M2953.34 36.1a2.38 2.38 0 0 1-2.37 2.37 2.36 2.36 0 0 1-2-1.06h-11l-8.53 8.53-1.73-1.74 8.66-8.66V25a2.38 2.38 0 1 1 3.53-2 2.31 2.31 0 0 1-1.05 2v10h10a2.37 2.37 0 0 1 4.46 1.14ZM2969.68 61.5h-45.49a1.68 1.68 0 0 1-1.19-.5 1.76 1.76 0 0 1 1.23-3h45.49a2.34 2.34 0 0 1 1.61-.64 2.38 2.38 0 1 1-1.6 4.13ZM2951 76a2.36 2.36 0 0 1-2.17-1.43l-5.56-3.21h-12.62l-3.52-3.51h17.57l5.92 3.45a1.81 1.81 0 0 1 .4 0 2.37 2.37 0 1 1 0 4.74ZM2928.35 97.62a2.37 2.37 0 0 1-2.36-2.37 2.56 2.56 0 0 1 0-.39l-3.44-5.93V71.37l3.51 3.52V87.5l3.2 5.56a2.38 2.38 0 0 1-.94 4.56ZM2939.22 84.49h-.11l.11-.1v.1z" />
    <path class="cls-1" d="M2939.22 84.49h-.11l.11-.1v.1z" />
    <path class="cls-1"
        d="M2953.34 84.46a2.37 2.37 0 0 1-4.06.21h-10.05v10a2.37 2.37 0 0 1-1.13 4.47 2.36 2.36 0 0 1-2.36-2.36 2.34 2.34 0 0 1 1.05-2v-11l-8.53-8.53 1.74-1.73 8.66 8.66h10.5a2.38 2.38 0 0 1 4.19 2.24ZM2912.36 114.83V69.34a1.67 1.67 0 0 1 .52-1.24 1.76 1.76 0 0 1 3 1.23v45.49a2.37 2.37 0 0 1-1.73 4 2.38 2.38 0 0 1-2.38-2.37 2.27 2.27 0 0 1 .59-1.62ZM2897.83 96.18a2.38 2.38 0 0 1 1.43-2.18l3.21-5.56V75.83l3.53-3.53v17.57l-3.44 5.91a1.81 1.81 0 0 1 0 .4 2.38 2.38 0 0 1-4.75 0ZM2876.24 73.51a2.37 2.37 0 0 1 2.37-2.37 1.72 1.72 0 0 1 .39 0l5.93-3.45h17.56l-3.49 3.55h-12.61l-5.56 3.21a2.38 2.38 0 0 1-4.56-.94ZM2889.36 84.37v-.11l.11.11h-.11z" />
    <path class="cls-1" d="M2889.36 84.37v-.11l.11.11h-.11z" />
    <path class="cls-1"
        d="M2892.78 97.52a2.38 2.38 0 0 1-4.47-1.13 2.35 2.35 0 0 1 1.05-2v-10h-10a2.37 2.37 0 0 1-2.09 1.25 2.41 2.41 0 0 1-2.37-2.39 2.37 2.37 0 0 1 2.37-2.37 2.33 2.33 0 0 1 2 1.05h11l8.52-8.52 1.74 1.73-8.66 8.66v10.5a2.38 2.38 0 0 1 .91 3.22ZM2860.68 58h45.49a1.69 1.69 0 0 1 1.24.52 1.76 1.76 0 0 1-1.23 3h-45.5a2.38 2.38 0 1 1-1.68-4.12 2.31 2.31 0 0 1 1.68.6ZM2879.33 43.49a2.37 2.37 0 0 1 2.18 1.43l5.56 3.21h12.62l3.53 3.51h-17.57l-5.93-3.45a1.72 1.72 0 0 1-.39 0 2.37 2.37 0 0 1 0-4.74ZM2902 21.9a2.37 2.37 0 0 1 2.37 2.37 1.72 1.72 0 0 1 0 .39l3.45 5.93v17.56l-3.51-3.52V32l-3.2-5.56a2.38 2.38 0 0 1 .93-4.56ZM2891.15 35.02h.1l-.1.11v-.11z" />
    <path class="cls-1" d="M2891.15 35.02h.1l-.1.11v-.11z" />
    <path class="cls-1"
        d="m2902.1 44.4-1.72 1.74-8.66-8.66h-10.5a2.38 2.38 0 1 1-2.09-3.5 2.35 2.35 0 0 1 2 1.05h10V25a2.38 2.38 0 0 1 1.13-4.47 2.38 2.38 0 0 1 2.37 2.37 2.33 2.33 0 0 1-1.05 2v11ZM3040.07 4.6v45.49a1.69 1.69 0 0 1-.52 1.24 1.75 1.75 0 0 1-2.48 0 1.81 1.81 0 0 1-.52-1.24V4.6a2.37 2.37 0 1 1 4.1-1.62 2.35 2.35 0 0 1-.58 1.62ZM3054.6 23.25a2.39 2.39 0 0 1-1.43 2.18L3050 31v12.6l-3.51 3.52V29.57l3.45-5.93a1.72 1.72 0 0 1 0-.39 2.37 2.37 0 0 1 4.74 0ZM3076.19 45.93a2.37 2.37 0 0 1-2.37 2.37 1.72 1.72 0 0 1-.39 0l-5.93 3.45h-17.56l3.52-3.51h12.61l5.56-3.2a2.38 2.38 0 0 1 4.56.93ZM3063.06 35.05v.12l-.12-.12h.12z" />
    <path class="cls-1" d="M3063.06 35.05v.12l-.12-.12h.12z" />
    <path class="cls-1"
        d="M3077.54 36.18a2.36 2.36 0 0 1-4.33 1.32h-11l-8.52 8.5-1.69-1.71 8.66-8.67V25.13a2.38 2.38 0 1 1 3.5-2.09 2.36 2.36 0 0 1-1.05 2V35h10a2.36 2.36 0 0 1 2.09-1.25 2.39 2.39 0 0 1 2.34 2.43ZM3093.88 61.59h-45.49a1.71 1.71 0 0 1-1.24-.52 1.76 1.76 0 0 1 1.23-3h45.49a2.35 2.35 0 0 1 1.61-.63 2.38 2.38 0 1 1-1.6 4.13ZM3075.23 76.11a2.37 2.37 0 0 1-2.18-1.43l-5.56-3.2h-12.61l-3.53-3.48h17.57l5.93 3.44h.39a2.37 2.37 0 1 1 0 4.73ZM3052.56 97.71a2.38 2.38 0 0 1-2.37-2.37 1.81 1.81 0 0 1 0-.4l-3.41-5.94V71.45l3.51 3.52v12.62l3.21 5.56a2.38 2.38 0 0 1-.94 4.56ZM3063.42 84.57h-.11l.11-.1v.1z" />
    <path class="cls-1" d="M3063.42 84.57h-.11l.11-.1v.1z" />
    <path class="cls-1"
        d="M3077.54 84.55a2.38 2.38 0 0 1-2.1 1.25 2.35 2.35 0 0 1-2-1h-10v10a2.38 2.38 0 0 1-1.14 4.47 2.37 2.37 0 0 1-2.37-2.37 2.33 2.33 0 0 1 1.05-2v-11l-8.52-8.52 1.73-1.74 8.66 8.67h10.5a2.38 2.38 0 1 1 4.19 2.24ZM3036.56 114.92V69.43a1.73 1.73 0 0 1 .52-1.25 1.76 1.76 0 0 1 3 1.23v45.49a2.37 2.37 0 1 1-4.12 1.61 2.29 2.29 0 0 1 .6-1.59ZM3022 96.26a2.38 2.38 0 0 1 1.43-2.18l3.2-5.56V75.91l3.51-3.52V90l-3.43 5.92a2.58 2.58 0 0 1 0 .39 2.38 2.38 0 0 1-4.75 0ZM3000.44 73.59a2.39 2.39 0 0 1 2.37-2.37 2.58 2.58 0 0 1 .39 0l5.93-3.44h17.57l-3.52 3.51h-12.62l-5.56 3.2a2.38 2.38 0 0 1-4.56-.94ZM3013.56 84.46v-.12l.12.12h-.12z" />
    <path class="cls-1" d="M3013.56 84.46v-.12l.12.12h-.12z" />
    <path class="cls-1"
        d="M3017 97.6a2.38 2.38 0 1 1-3.42-3.09v-10h-10a2.36 2.36 0 0 1-2.09 1.25 2.41 2.41 0 0 1-2.37-2.39 2.37 2.37 0 0 1 4.34-1.32h11l8.53-8.52 1.73 1.74-8.72 8.62v10.5a2.38 2.38 0 0 1 1 3.21ZM2984.88 58.1h45.49a1.69 1.69 0 0 1 1.24.52 1.76 1.76 0 0 1-1.23 3h-45.5a2.39 2.39 0 0 1-4-1.72 2.37 2.37 0 0 1 2.35-2.4 2.29 2.29 0 0 1 1.65.6ZM3003.53 43.58a2.36 2.36 0 0 1 2.18 1.43l5.56 3.2h12.63l3.52 3.51h-17.57l-5.92-3.44a2.69 2.69 0 0 1-.4 0 2.37 2.37 0 1 1 0-4.73ZM3026.22 22a2.38 2.38 0 0 1 2.36 2.37 2.69 2.69 0 0 1 0 .4l3.44 5.92v17.55l-3.51-3.52V32.1l-3.2-5.56a2.37 2.37 0 0 1-1.24-3.12 2.4 2.4 0 0 1 2.18-1.44ZM3015.35 35.1h.1l-.1.12v-.12z" />
    <path class="cls-1" d="M3015.35 35.1h.1l-.1.12v-.12z" />
    <path class="cls-1"
        d="m3026.3 44.49-1.72 1.73-8.66-8.66h-10.5a2.38 2.38 0 1 1-2.09-3.49 2.31 2.31 0 0 1 2 1h10.05v-10a2.37 2.37 0 0 1 1.12-4.47 2.37 2.37 0 0 1 2.37 2.36 2.34 2.34 0 0 1-1 2V36Z" />
</svg>