<svg data-name="Capa 1" xmlns="http://www.w3.org/2000/svg" viewBox="0 0 2222.243 649.946">
    <path
        d="m422.388 122.174.046 167.288a6.294 6.294 0 0 1-1.909 4.564 6.455 6.455 0 0 1-11.038-4.518V122.174h.047a8.631 8.631 0 0 1-2.329-5.914 8.709 8.709 0 1 1 17.418 0 8.553 8.553 0 0 1-2.235 5.914ZM475.806 190.775a8.727 8.727 0 0 1-5.263 8.011l-11.782 20.445v46.386l-12.9 12.947v-64.549l12.668-21.8a7.6 7.6 0 0 1-.14-1.444 8.709 8.709 0 1 1 17.418 0ZM555.212 274.186a8.726 8.726 0 0 1-8.712 8.714 7.241 7.241 0 0 1-1.444-.14l-21.8 12.668h-64.6l12.948-12.9H518l20.446-11.782a8.745 8.745 0 0 1 16.766 3.446ZM506.916 234.18v.42l-.419-.42h.419z" />
    <path d="M506.916 234.18v.42l-.419-.42h.419z" />
    <path
        d="M560.2 238.325a8.726 8.726 0 0 1-8.709 8.709 8.625 8.625 0 0 1-7.219-3.865H503.8l-31.343 31.343-6.381-6.38 31.856-31.856v-38.608a8.736 8.736 0 1 1 12.854-7.685 8.622 8.622 0 0 1-3.866 7.219v36.932h-.42l.419.419v-.419H543.8a8.752 8.752 0 0 1 7.685-4.611 8.867 8.867 0 0 1 8.715 8.802ZM620.273 331.749l-167.287.047a6.3 6.3 0 0 1-4.565-1.91 6.455 6.455 0 0 1 4.518-11.037h167.287v.046a8.637 8.637 0 0 1 5.915-2.328 8.732 8.732 0 1 1 0 17.464 8.648 8.648 0 0 1-5.868-2.282ZM551.672 385.168a8.726 8.726 0 0 1-8.01-5.263l-20.445-11.783h-46.386l-12.947-12.9h64.6l21.8 12.667a7.6 7.6 0 0 1 1.444-.139 8.709 8.709 0 1 1-.047 17.418ZM468.308 464.573a8.726 8.726 0 0 1-8.709-8.709 7.175 7.175 0 0 1 .14-1.444l-12.668-21.8v-64.6l12.9 12.947v46.386l11.783 20.445a8.745 8.745 0 0 1-3.446 16.766ZM508.267 416.278h-.419l.419-.373v.373z" />
    <path d="M508.267 416.278h-.419l.419-.373v.373z" />
    <path
        d="M504.122 469.6a8.726 8.726 0 0 1-8.709-8.709 8.625 8.625 0 0 1 3.865-7.219V413.2l-31.343-31.343 6.381-6.38 31.855 31.855h38.608a8.736 8.736 0 1 1 7.685 12.854 8.623 8.623 0 0 1-7.219-3.866h-36.932v-.419l-.419.419h.419v36.839a8.738 8.738 0 0 1-4.191 16.44ZM409.487 527.865l-.046-167.288a6.294 6.294 0 0 1 1.909-4.564 6.455 6.455 0 0 1 11.038 4.518v167.287h-.047a8.7 8.7 0 0 1-6.38 14.624 8.766 8.766 0 0 1-8.756-8.709 8.354 8.354 0 0 1 2.282-5.868ZM356.069 459.264a8.726 8.726 0 0 1 5.262-8.01l11.783-20.446v-46.386l12.9-12.947v64.6l-12.62 21.745a7.6 7.6 0 0 1 .139 1.444 8.732 8.732 0 1 1-17.464 0ZM276.663 375.9a8.726 8.726 0 0 1 8.709-8.709 7.249 7.249 0 0 1 1.444.139l21.8-12.667h64.595l-12.947 12.9h-46.39l-20.445 11.783a8.745 8.745 0 0 1-16.766-3.446ZM324.912 415.859v-.42l.419.42h-.419z" />
    <path d="M324.912 415.859v-.42l.419.42h-.419z" />
    <path
        d="M271.633 411.714a8.726 8.726 0 0 1 8.709-8.709 8.623 8.623 0 0 1 7.219 3.865h40.471l31.343-31.343 6.381 6.38-31.856 31.856v38.608a8.736 8.736 0 1 1-12.853 7.685 8.622 8.622 0 0 1 3.865-7.219v-36.932h.419l-.419-.419v.419h-36.885a8.752 8.752 0 0 1-7.685 4.611 8.867 8.867 0 0 1-8.709-8.802ZM219.426 318.942l167.287-.047a6.291 6.291 0 0 1 4.564 1.91 6.454 6.454 0 0 1-4.517 11.037H219.426v-.042a8.632 8.632 0 0 1-5.915 2.328 8.732 8.732 0 1 1 0-17.464 8.383 8.383 0 0 1 5.915 2.278ZM288.027 265.524a8.725 8.725 0 0 1 8.01 5.262l20.445 11.783h46.433l12.947 12.9h-64.6l-21.8-12.667a7.6 7.6 0 0 1-1.444.14 8.709 8.709 0 1 1 0-17.418ZM371.438 186.118a8.726 8.726 0 0 1 8.709 8.709 7.248 7.248 0 0 1-.14 1.444l12.668 21.8v64.6l-12.9-12.947v-46.395l-11.783-20.445a8.745 8.745 0 0 1 3.447-16.766ZM331.479 234.367h.372l-.372.419v-.419z" />
    <path d="M331.479 234.367h.372l-.372.419v-.419z" />
    <path
        d="M335.577 181.088a8.726 8.726 0 0 1 8.709 8.709 8.625 8.625 0 0 1-3.865 7.219v40.518l31.343 31.343-6.334 6.38-31.856-31.857h-38.608a8.736 8.736 0 1 1-7.684-12.854 8.623 8.623 0 0 1 7.218 3.865h36.932v.419l.419-.419h-.419v-36.883a8.738 8.738 0 0 1 4.145-16.44ZM691.089 301.214a6.954 6.954 0 0 0-2.6 5.651 6.384 6.384 0 0 0 3.172 5.594q3.171 2.076 14.647 4.9t17.82 8.477q6.341 5.652 6.343 16.493a21.772 21.772 0 0 1-8.131 17.589q-8.132 6.747-21.395 6.747-19.146 0-34.485-14.187l10.726-13.148q13.032 11.418 24.105 11.419 4.957 0 7.785-2.134a6.849 6.849 0 0 0 2.826-5.768 6.723 6.723 0 0 0-3-5.766q-3-2.133-11.879-4.325-14.073-3.344-20.588-8.707t-6.516-16.839q0-11.476 8.246-17.7t20.588-6.229a49.512 49.512 0 0 1 16.147 2.769 43.259 43.259 0 0 1 14.071 7.842l-9.112 13.148q-10.5-7.957-21.683-7.958a10.845 10.845 0 0 0-7.087 2.132ZM754.349 285.125h17.992v80.619h-17.992ZM858.841 285.125v16.031H818.7v16.608h36.1V333.1h-36.1v16.724h41.41v15.916h-59.4v-80.615ZM950.07 311.883q0 19.376-15.339 25.027l20.414 28.834H933l-17.877-25.72h-12.456v25.72h-17.992v-80.619h30.564q18.8 0 26.815 6.343t8.016 20.415Zm-21.683 9.572q3.344-3 3.345-9.515t-3.46-8.94q-3.461-2.423-12.111-2.422h-13.494v23.874h13.149q9.225.002 12.571-2.997ZM1042.453 311.883q0 19.376-15.339 25.027l20.414 28.834h-22.145l-17.877-25.72H995.05v25.72h-17.992v-80.619h30.564q18.8 0 26.815 6.343t8.016 20.415Zm-21.683 9.572q3.343-3 3.345-9.515t-3.46-8.938q-3.461-2.423-12.111-2.422H995.05v23.874h13.15q9.224 0 12.57-2.999ZM1126.877 365.744l-7.5-17.416h-33.793l-7.5 17.416h-19.145l34.831-80.619h17.416l34.831 80.619Zm-24.336-56.63-10.149 23.413h20.183ZM1160.324 338.756v-15.34h41.06v15.34ZM1285.693 285.125v16.031h-40.137v16.608h36.1V333.1h-36.1v16.724h41.4v15.916h-59.4v-80.615ZM1330.384 301.214a6.954 6.954 0 0 0-2.6 5.651 6.386 6.386 0 0 0 3.172 5.594q3.171 2.076 14.648 4.9t17.819 8.477q6.344 5.652 6.344 16.493a21.769 21.769 0 0 1-8.131 17.589q-8.132 6.747-21.4 6.747-19.146 0-34.485-14.187l10.726-13.148q13.032 11.418 24.1 11.419 4.957 0 7.785-2.134a6.851 6.851 0 0 0 2.825-5.768 6.724 6.724 0 0 0-3-5.766q-3-2.133-11.879-4.325-14.073-3.344-20.587-8.707t-6.517-16.839q0-11.476 8.246-17.7t20.588-6.229a49.5 49.5 0 0 1 16.146 2.769 43.264 43.264 0 0 1 14.072 7.842l-9.112 13.148q-10.5-7.957-21.683-7.958a10.845 10.845 0 0 0-7.077 2.132ZM1449.178 292.333q8.476 7.209 8.477 22.144t-8.708 21.857q-8.709 6.92-26.584 6.92h-10.727v22.49h-17.992v-80.619h28.487q18.569 0 27.047 7.208Zm-13.206 31.718q3.226-3.635 3.229-10.612t-4.21-9.919q-4.211-2.941-13.09-2.94h-10.265v27.1h12.11q8.995.003 12.226-3.629ZM1538.388 285.125v16.031h-40.137v16.608h36.1V333.1h-36.1v16.724h41.406v15.916h-59.4v-80.615ZM1629.618 311.883q0 19.376-15.339 25.027l20.414 28.834h-22.145l-17.877-25.72h-12.456v25.72h-17.992v-80.619h30.563q18.8 0 26.816 6.343t8.016 20.415Zm-21.683 9.572q3.343-3 3.345-9.515t-3.46-8.94q-3.46-2.423-12.111-2.422h-13.494v23.874h13.149q9.225.002 12.571-2.997ZM1714.041 365.744l-7.5-17.416h-33.794l-7.5 17.416h-19.146l34.832-80.619h17.415l34.832 80.619Zm-24.335-56.63-10.15 23.413h20.185ZM1807.462 285.125h17.993v80.619h-17.993l-38.406-50.517v50.517h-17.992v-80.619h16.836l39.559 51.9ZM1849.213 365.744V353.4l42.213-52.708H1850.6v-15.57h65.395v12.456l-42.1 52.477h42.789v15.686ZM1998.341 365.744l-7.5-17.416h-33.794l-7.5 17.416H1930.4l34.833-80.619h17.415l34.832 80.619Zm-24.335-56.63-10.15 23.413h20.184Z" />
</svg>