<svg data-name="Capa 1" xmlns="http://www.w3.org/2000/svg" viewBox="0 0 2054.6 1593.1">
    <path
        d="m1034.1 260.861.092 328.631a12.363 12.363 0 0 1-3.751 8.966 12.681 12.681 0 0 1-21.684-8.875V260.861h.092a16.964 16.964 0 0 1-4.575-11.62 17.109 17.109 0 1 1 34.218 0 16.813 16.813 0 0 1-4.392 11.62ZM1139.035 395.625a17.142 17.142 0 0 1-10.338 15.736l-23.147 40.164v91.124l-25.343 25.434v-126.8l24.885-42.817a14.89 14.89 0 0 1-.274-2.836 17.109 17.109 0 1 1 34.217 0ZM1295.025 559.483a17.141 17.141 0 0 1-17.108 17.109 14.207 14.207 0 0 1-2.837-.275l-42.817 24.883h-126.9l25.437-25.34h91.124l40.164-23.147a17.178 17.178 0 0 1 32.936 6.77ZM1200.15 480.894v.823l-.823-.823h.823z" />
    <path d="M1200.15 480.894v.823l-.823-.823h.823z" />
    <path
        d="M1304.814 489.036a17.141 17.141 0 0 1-17.108 17.109 16.938 16.938 0 0 1-14.181-7.594h-79.505l-61.572 61.573-12.534-12.534 62.579-62.579v-75.845a17.161 17.161 0 1 1 25.251-15.1 16.938 16.938 0 0 1-7.594 14.181V480.8h-.823l.823.823v-.823h72.46a17.191 17.191 0 0 1 15.1-9.057 17.419 17.419 0 0 1 17.104 17.293ZM1422.836 672.565l-328.631.091a12.359 12.359 0 0 1-8.966-3.751 12.68 12.68 0 0 1 8.874-21.683h328.632v.091a16.959 16.959 0 0 1 11.619-4.574 17.155 17.155 0 1 1-11.528 29.826ZM1288.072 777.5a17.142 17.142 0 0 1-15.736-10.338l-40.164-23.147h-91.124l-25.434-25.342h126.9l42.817 24.885a14.891 14.891 0 0 1 2.836-.275 17.109 17.109 0 1 1-.091 34.217ZM1124.305 933.494a17.142 17.142 0 0 1-17.108-17.109 14.205 14.205 0 0 1 .274-2.836l-24.885-42.817v-126.9l25.343 25.434v91.124l23.147 40.164a17.179 17.179 0 0 1-6.771 32.937ZM1202.803 838.619h-.823l.823-.732v.732z" />
    <path d="M1202.803 838.619h-.823l.823-.732v.732z" />
    <path
        d="M1194.661 943.374a17.141 17.141 0 0 1-17.109-17.108 16.938 16.938 0 0 1 7.594-14.181v-79.5l-61.573-61.572 12.534-12.534 62.579 62.579h75.845a17.161 17.161 0 1 1 15.1 25.251 16.938 16.938 0 0 1-14.181-7.594h-72.55v-.823l-.824.823h.824v72.369a17.166 17.166 0 0 1-8.234 32.3ZM1008.754 1057.828l-.092-328.631a12.359 12.359 0 0 1 3.751-8.966 12.68 12.68 0 0 1 21.683 8.874v328.632h-.091a17.091 17.091 0 0 1-12.534 28.728 17.22 17.22 0 0 1-17.2-17.109 16.4 16.4 0 0 1 4.483-11.528ZM903.815 923.064a17.144 17.144 0 0 1 10.338-15.737l23.147-40.164V776.04l25.343-25.435V877.5l-24.794 42.726a14.882 14.882 0 0 1 .274 2.836 17.154 17.154 0 1 1-34.308 0ZM747.825 759.3a17.142 17.142 0 0 1 17.108-17.109 14.2 14.2 0 0 1 2.836.275l42.818-24.885h126.9l-25.438 25.339h-91.124l-40.164 23.147a17.178 17.178 0 0 1-32.936-6.77ZM842.608 837.795v-.823l.823.823h-.823z" />
    <path d="M842.608 837.795v-.823l.823.823h-.823z" />
    <path
        d="M737.944 829.653a17.141 17.141 0 0 1 17.108-17.109 16.938 16.938 0 0 1 14.181 7.594h79.505l61.573-61.573 12.534 12.535-62.579 62.579v75.845a17.161 17.161 0 1 1-25.252 15.1 16.94 16.94 0 0 1 7.594-14.181v-72.556h.824l-.824-.824v.824h-72.46a17.191 17.191 0 0 1-15.1 9.057 17.419 17.419 0 0 1-17.104-17.291ZM635.384 647.405l328.631-.092a12.36 12.36 0 0 1 8.966 3.752 12.68 12.68 0 0 1-8.874 21.683H635.384v-.092a16.96 16.96 0 0 1-11.62 4.575 17.155 17.155 0 1 1 0-34.309 16.475 16.475 0 0 1 11.62 4.483ZM770.148 542.466a17.141 17.141 0 0 1 15.736 10.334l40.164 23.146h91.216l25.436 25.348H815.8l-42.818-24.885a14.89 14.89 0 0 1-2.836.274 17.109 17.109 0 1 1 0-34.217ZM934.006 386.476a17.141 17.141 0 0 1 17.109 17.109 14.2 14.2 0 0 1-.275 2.836l24.886 42.817v126.9L950.383 550.7v-91.124l-23.147-40.164a17.178 17.178 0 0 1 6.77-32.936ZM855.508 481.26h.732l-.732.823v-.823z" />
    <path d="M855.508 481.26h.732l-.732.823v-.823z" />
    <path
        d="M863.559 376.6a17.141 17.141 0 0 1 17.109 17.1 16.938 16.938 0 0 1-7.594 14.181v79.6l61.573 61.572-12.447 12.535-62.579-62.579H783.78a17.161 17.161 0 1 1-15.1-25.252 16.938 16.938 0 0 1 14.181 7.594h72.552v.823l.823-.823h-.823v-72.46a17.166 17.166 0 0 1 8.142-32.3ZM376.413 1187.787a6.954 6.954 0 0 0-2.6 5.651 6.384 6.384 0 0 0 3.172 5.594q3.171 2.076 14.647 4.9t17.82 8.477q6.341 5.652 6.343 16.493a21.771 21.771 0 0 1-8.131 17.589q-8.131 6.747-21.395 6.747-19.146 0-34.485-14.187l10.726-13.148q13.032 11.418 24.105 11.419 4.957 0 7.785-2.134a6.848 6.848 0 0 0 2.826-5.767 6.723 6.723 0 0 0-3-5.767q-3-2.133-11.879-4.325-14.073-3.343-20.588-8.707t-6.516-16.839q0-11.476 8.246-17.7t20.588-6.229a49.5 49.5 0 0 1 16.146 2.769 43.256 43.256 0 0 1 14.072 7.843l-9.112 13.147q-10.5-7.958-21.683-7.958a10.845 10.845 0 0 0-7.087 2.132ZM439.673 1171.7h17.992v80.619h-17.992ZM544.165 1171.7v16.031h-40.137v16.609h36.1v15.339h-36.1v16.721h41.406v15.916h-59.4V1171.7ZM635.394 1198.456q0 19.376-15.339 25.027l20.414 28.834h-22.145l-17.877-25.72h-12.456v25.72H570V1171.7h30.564q18.8 0 26.815 6.343t8.015 20.413Zm-21.683 9.572q3.344-3 3.345-9.515t-3.46-8.938q-3.461-2.422-12.111-2.422h-13.494v23.874h13.149q9.225 0 12.571-2.999ZM727.777 1198.456q0 19.376-15.339 25.027l20.414 28.834h-22.145L692.83 1226.6h-12.456v25.72h-17.992v-80.62h30.564q18.8 0 26.815 6.343t8.016 20.413Zm-21.683 9.572q3.343-3 3.344-9.515t-3.459-8.938q-3.461-2.422-12.111-2.422h-13.494v23.874h13.148q9.226 0 12.572-2.999ZM812.2 1252.317l-7.5-17.416h-33.789l-7.5 17.416h-19.142L779.1 1171.7h17.416l34.831 80.619Zm-24.336-56.63-10.148 23.413H797.9ZM845.648 1225.329v-15.34h41.06v15.34ZM971.017 1171.7v16.031H930.88v16.609h36.1v15.339h-36.1v16.721h41.4v15.916h-59.4V1171.7ZM1015.708 1187.787a6.954 6.954 0 0 0-2.6 5.651 6.386 6.386 0 0 0 3.172 5.594q3.171 2.076 14.648 4.9t17.819 8.477q6.342 5.652 6.344 16.493a21.768 21.768 0 0 1-8.131 17.589q-8.131 6.747-21.395 6.747-19.146 0-34.485-14.187l10.726-13.148q13.032 11.418 24.105 11.419 4.957 0 7.785-2.134a6.85 6.85 0 0 0 2.825-5.767 6.725 6.725 0 0 0-3-5.767q-3-2.133-11.88-4.325-14.072-3.343-20.586-8.707t-6.517-16.839q0-11.476 8.246-17.7t20.588-6.229a49.5 49.5 0 0 1 16.146 2.769 43.266 43.266 0 0 1 14.072 7.843l-9.112 13.147q-10.5-7.958-21.683-7.958a10.845 10.845 0 0 0-7.087 2.132ZM1134.5 1178.906q8.477 7.211 8.477 22.144t-8.708 21.857q-8.709 6.92-26.584 6.92h-10.725v22.49h-17.992V1171.7h28.487q18.569 0 27.045 7.206Zm-13.206 31.718q3.226-3.634 3.229-10.612t-4.21-9.919q-4.211-2.94-13.09-2.94h-10.263v27.1h12.11q8.996.004 12.23-3.629ZM1223.712 1171.7v16.031h-40.137v16.609h36.1v15.339h-36.1v16.721h41.4v15.916h-59.4V1171.7ZM1314.942 1198.456q0 19.376-15.339 25.027l20.414 28.834h-22.145l-17.877-25.72h-12.456v25.72h-17.992V1171.7h30.563q18.8 0 26.816 6.343t8.016 20.413Zm-21.683 9.572q3.343-3 3.345-9.515t-3.46-8.938q-3.46-2.422-12.111-2.422h-13.494v23.874h13.149q9.225 0 12.571-2.999ZM1399.365 1252.317l-7.5-17.416h-33.794l-7.5 17.416h-19.146l34.832-80.619h17.415l34.832 80.619Zm-24.335-56.63-10.15 23.413h20.184ZM1492.786 1171.7h17.993v80.619h-17.993l-38.406-50.519v50.517h-17.992V1171.7h16.839l39.559 51.9ZM1534.537 1252.317v-12.341l42.213-52.708h-40.829V1171.7h65.395v12.456l-42.1 52.478h42.789v15.685ZM1683.665 1252.317l-7.5-17.416h-33.794l-7.5 17.416h-19.147l34.832-80.619h17.415l34.833 80.619Zm-24.335-56.63-10.15 23.413h20.184Z" />
    <g style="isolation:isolate">
        <path
            d="M694.467 1351.8a19.891 19.891 0 0 0 8.455-1.65 29.125 29.125 0 0 0 7.408-5.275l6.12 6.281q-8.939 9.9-21.7 9.9t-21.178-8.214q-8.415-8.214-8.415-20.775a28.062 28.062 0 0 1 8.576-20.936q8.575-8.373 21.661-8.374a28.327 28.327 0 0 1 21.862 9.662l-6.039 6.6a26.394 26.394 0 0 0-7.61-5.395 21.326 21.326 0 0 0-8.415-1.529 20 20 0 0 0-14.333 5.515 18.6 18.6 0 0 0-5.8 14.092 19.451 19.451 0 0 0 5.757 14.333 18.651 18.651 0 0 0 13.651 5.765ZM812.11 1322.407q0 13.932-12.159 17.554l14.736 20.453h-12.079l-13.447-18.923H776.68v18.923h-9.5v-56.286h20.936q12.883 0 18.44 4.349t5.554 13.93Zm-12.642 7.972q2.9-2.495 2.9-8.012t-2.979-7.569q-2.981-2.053-10.629-2.054h-12.08v20.131h11.837q8.051 0 10.951-2.496ZM904.47 1304.128v8.938h-30.035v14.9h26.975v8.455h-26.975v15.058h31v8.938h-40.5v-56.286ZM964.7 1347.611l-5.637 12.8h-10.145l24.8-56.286h10.146l24.8 56.286h-10.143l-5.637-12.8Zm24.318-8.777-10.227-23.19-10.226 23.19ZM1072.44 1312.825v47.589h-9.5v-47.589h-17.071v-8.7h43.644v8.7ZM1138.951 1304.128h9.5v56.286h-9.5ZM1250.315 1352.644a30.87 30.87 0 0 1-42.194 0 29.552 29.552 0 0 1 0-41.55 30.87 30.87 0 0 1 42.194 0 29.549 29.549 0 0 1 0 41.55Zm-6.965-35.229a19.737 19.737 0 0 0-28.264 0 21.022 21.022 0 0 0 0 28.907 19.737 19.737 0 0 0 28.264 0 21.022 21.022 0 0 0 0-28.907ZM1352.177 1304.128h9.5v56.286h-10.308l-31.887-41.066v41.066h-9.5v-56.286h9.5l32.693 42.033ZM1433.465 1311.536a12.476 12.476 0 0 0-6.8 1.692 5.652 5.652 0 0 0-2.657 5.113 5.946 5.946 0 0 0 2.657 5.234q2.658 1.81 11.314 3.906t13.045 5.877q4.386 3.786 4.388 11.153a14.777 14.777 0 0 1-5.556 11.958q-5.558 4.588-14.575 4.59a34.232 34.232 0 0 1-23.432-9.1l5.959-7.166q8.533 7.409 17.715 7.408a12.09 12.09 0 0 0 7.287-1.973 6.174 6.174 0 0 0 2.7-5.234 5.877 5.877 0 0 0-2.537-5.073q-2.536-1.812-8.737-3.3a78.091 78.091 0 0 1-9.42-2.737 21.219 21.219 0 0 1-5.718-3.262q-4.994-3.783-4.992-11.595t5.676-12.038a22.872 22.872 0 0 1 14.052-4.227 33.7 33.7 0 0 1 10.709 1.771 28.016 28.016 0 0 1 9.18 4.993l-5.073 7.167a19.182 19.182 0 0 0-6.764-3.7 26.068 26.068 0 0 0-8.421-1.457Z" />
    </g>
</svg>