<svg id="Capa_1" data-name="Capa 1" xmlns="http://www.w3.org/2000/svg" viewBox="0 0 2054.6 1593.1">
  <defs>
    <style>
      .cls-2 {
        stroke-width: 0
      }
    </style>
  </defs>
  <path class="cls-2"
    d="M133.84 1333.59c-2.38 1.95-3.56 4.54-3.56 7.76s1.45 5.78 4.35 7.68c2.9 1.9 9.6 4.14 20.11 6.73 10.5 2.59 18.65 6.47 24.46 11.64 5.8 5.17 8.71 12.72 8.71 22.64s-3.72 17.97-11.16 24.14c-7.44 6.17-17.23 9.26-29.37 9.26-17.52 0-33.3-6.49-47.34-19.47l14.72-18.05c11.93 10.45 22.96 15.67 33.09 15.67 4.54 0 8.1-.98 10.69-2.93 2.59-1.95 3.88-4.59 3.88-7.92s-1.37-5.96-4.12-7.92c-2.75-1.95-8.18-3.93-16.31-5.94-12.88-3.06-22.3-7.04-28.26-11.95-5.96-4.91-8.94-12.61-8.94-23.11s3.77-18.6 11.32-24.3c7.55-5.7 16.96-8.55 28.26-8.55 7.39 0 14.78 1.27 22.16 3.8 7.39 2.53 13.83 6.12 19.32 10.77l-12.51 18.05c-9.61-7.28-19.53-10.92-29.76-10.92-4.12 0-7.36.98-9.74 2.93ZM220.68 1311.51h24.7v110.66h-24.7v-110.66ZM364.11 1311.51v22.01h-55.09v22.8h49.55v21.06h-49.55v22.96h56.84v21.85h-81.53v-110.66h79.79ZM489.34 1348.24c0 17.73-7.02 29.18-21.06 34.35l28.02 39.58h-30.4l-24.54-35.3h-17.1v35.3h-24.7v-110.66h41.95c17.2 0 29.47 2.9 36.81 8.71 7.33 5.81 11 15.15 11 28.02Zm-29.76 13.14c3.06-2.74 4.59-7.1 4.59-13.06s-1.58-10.05-4.75-12.27c-3.17-2.22-8.71-3.32-16.62-3.32h-18.52v32.77h18.05c8.44 0 14.19-1.37 17.26-4.12ZM616.15 1348.24c0 17.73-7.02 29.18-21.06 34.35l28.02 39.58h-30.4l-24.54-35.3h-17.1v35.3h-24.7v-110.66h41.95c17.2 0 29.47 2.9 36.81 8.71 7.33 5.81 11 15.15 11 28.02Zm-29.76 13.14c3.06-2.74 4.59-7.1 4.59-13.06s-1.58-10.05-4.75-12.27c-3.17-2.22-8.71-3.32-16.62-3.32h-18.52v32.77h18.05c8.44 0 14.19-1.37 17.26-4.12ZM732.04 1422.17l-10.29-23.91h-46.39l-10.29 23.91h-26.28l47.81-110.66h23.91l47.81 110.66h-26.28Zm-33.41-77.73-13.93 32.14h27.71l-13.77-32.14ZM777.95 1385.12v-21.06h56.36v21.06h-56.36ZM950.04 1311.51v22.01h-55.09v22.8h49.55v21.06h-49.55v22.96h56.84v21.85h-81.53v-110.66h79.79ZM1011.39 1333.59c-2.38 1.95-3.56 4.54-3.56 7.76s1.45 5.78 4.35 7.68c2.9 1.9 9.6 4.14 20.11 6.73 10.5 2.59 18.65 6.47 24.46 11.64 5.8 5.17 8.71 12.72 8.71 22.64s-3.72 17.97-11.16 24.14-17.23 9.26-29.37 9.26c-17.52 0-33.3-6.49-47.34-19.47l14.72-18.05c11.93 10.45 22.96 15.67 33.09 15.67 4.54 0 8.1-.98 10.69-2.93 2.58-1.95 3.88-4.59 3.88-7.92s-1.37-5.96-4.12-7.92c-2.75-1.95-8.18-3.93-16.31-5.94-12.88-3.06-22.3-7.04-28.26-11.95-5.97-4.91-8.95-12.61-8.95-23.11s3.77-18.6 11.32-24.3c7.55-5.7 16.97-8.55 28.26-8.55 7.39 0 14.78 1.27 22.16 3.8 7.39 2.53 13.83 6.12 19.32 10.77l-12.51 18.05c-9.61-7.28-19.53-10.92-29.76-10.92-4.12 0-7.36.98-9.74 2.93ZM1174.45 1321.4c7.76 6.6 11.64 16.73 11.64 30.4s-3.99 23.67-11.95 30c-7.97 6.33-20.13 9.5-36.49 9.5h-14.72v30.87h-24.7v-110.66h39.1c16.99 0 29.37 3.3 37.13 9.89Zm-18.13 43.54c2.95-3.33 4.43-8.18 4.43-14.57s-1.93-10.92-5.78-13.62c-3.85-2.69-9.84-4.04-17.97-4.04h-14.09v37.2h16.62c8.23 0 13.83-1.66 16.78-4.99ZM1296.91 1311.51v22.01h-55.09v22.8h49.55v21.06h-49.55v22.96h56.84v21.85h-81.53v-110.66h79.79ZM1422.14 1348.24c0 17.73-7.02 29.18-21.06 34.35l28.02 39.58h-30.4l-24.54-35.3h-17.1v35.3h-24.7v-110.66h41.95c17.2 0 29.47 2.9 36.81 8.71 7.34 5.81 11 15.15 11 28.02Zm-29.76 13.14c3.06-2.74 4.59-7.1 4.59-13.06s-1.58-10.05-4.75-12.27c-3.17-2.22-8.71-3.32-16.62-3.32h-18.52v32.77h18.05c8.44 0 14.19-1.37 17.26-4.12ZM1538.02 1422.17l-10.29-23.91h-46.39l-10.29 23.91h-26.28l47.81-110.66h23.91l47.81 110.66h-26.28Zm-33.4-77.73-13.93 32.14h27.71l-13.77-32.14ZM1666.26 1311.51h24.7v110.66h-24.7l-52.72-69.34v69.34h-24.7v-110.66h23.11l54.3 71.24v-71.24ZM1723.57 1422.17v-16.94l57.94-72.35h-56.05v-21.37h89.77v17.1l-57.79 72.03h58.74v21.53h-92.62ZM1928.27 1422.17l-10.29-23.91h-46.39l-10.29 23.91h-26.28l47.81-110.66h23.91l47.81 110.66h-26.28Zm-33.4-77.73-13.93 32.14h27.71l-13.77-32.14Z" />
  <g style="isolation:isolate">
    <path class="cls-2"
      d="M570.43 1558.72c4.49 0 8.36-.75 11.61-2.27 3.24-1.51 6.63-3.92 10.17-7.24l8.4 8.62c-8.18 9.06-18.11 13.6-29.79 13.6s-21.37-3.76-29.07-11.27c-7.7-7.52-11.55-17.02-11.55-28.52s3.92-21.07 11.77-28.74c7.85-7.66 17.76-11.49 29.73-11.49s21.98 4.42 30.01 13.26l-8.29 9.06c-3.69-3.54-7.17-6.01-10.45-7.41-3.28-1.4-7.13-2.1-11.55-2.1-7.81 0-14.37 2.52-19.67 7.57-5.31 5.05-7.96 11.49-7.96 19.34s2.63 14.41 7.9 19.67c5.27 5.27 11.51 7.9 18.73 7.9ZM731.91 1518.38c0 12.75-5.56 20.78-16.69 24.1l20.23 28.08h-16.58l-18.46-25.97h-17.13v25.97h-13.04v-77.26h28.74c11.79 0 20.23 1.99 25.31 5.97s7.63 10.35 7.63 19.12Zm-17.35 10.94c2.65-2.28 3.98-5.95 3.98-11s-1.36-8.51-4.09-10.39c-2.73-1.88-7.59-2.82-14.59-2.82h-16.58v27.63h16.25c7.37 0 12.38-1.14 15.03-3.43ZM858.69 1493.29v12.27h-41.23v20.45h37.03v11.61h-37.03v20.67h42.55v12.27h-55.6v-77.26h54.27ZM941.37 1552.98l-7.74 17.57H919.7l34.04-77.26h13.93l34.04 77.26h-13.93l-7.74-17.57h-38.69Zm33.38-12.05-14.04-31.83-14.04 31.83h28.08ZM1089.26 1505.23v65.32h-13.04v-65.32h-23.43v-11.94h59.91v11.94h-23.43ZM1180.56 1493.29h13.04v77.26h-13.04v-77.26ZM1333.43 1559.88c-7.81 7.63-17.46 11.44-28.96 11.44s-21.15-3.81-28.96-11.44c-7.81-7.63-11.72-17.13-11.72-28.52s3.9-20.89 11.72-28.52c7.81-7.63 17.46-11.44 28.96-11.44s21.15 3.81 28.96 11.44c7.81 7.63 11.72 17.13 11.72 28.52s-3.91 20.89-11.72 28.52Zm-9.56-48.36c-5.27-5.45-11.73-8.18-19.4-8.18s-14.13 2.73-19.4 8.18-7.9 12.07-7.9 19.84 2.63 14.39 7.9 19.84c5.27 5.45 11.73 8.18 19.4 8.18s14.13-2.73 19.4-8.18c5.27-5.45 7.9-12.06 7.9-19.84s-2.64-14.39-7.9-19.84ZM1473.25 1493.29h13.04v77.26h-14.15l-43.77-56.37v56.37h-13.04v-77.26h13.04l44.88 57.7v-57.7ZM1584.83 1503.46c-3.8 0-6.91.77-9.34 2.32s-3.65 3.89-3.65 7.02 1.22 5.53 3.65 7.19c2.43 1.66 7.61 3.45 15.53 5.36 7.92 1.92 13.89 4.61 17.91 8.07 4.01 3.46 6.02 8.57 6.02 15.31s-2.54 12.21-7.63 16.41c-5.08 4.2-11.75 6.3-20.01 6.3-12.09 0-22.81-4.16-32.17-12.49l8.18-9.84c7.81 6.78 15.92 10.17 24.32 10.17 4.2 0 7.53-.9 10-2.71 2.47-1.8 3.7-4.2 3.7-7.18s-1.16-5.31-3.48-6.96c-2.32-1.66-6.32-3.17-11.99-4.53-5.68-1.36-9.99-2.61-12.93-3.76-2.95-1.14-5.57-2.63-7.85-4.48-4.57-3.46-6.85-8.77-6.85-15.92s2.6-12.66 7.79-16.52c5.2-3.87 11.62-5.8 19.29-5.8 4.94 0 9.84.81 14.7 2.43 4.86 1.62 9.06 3.91 12.6 6.85l-6.96 9.84c-2.28-2.06-5.38-3.76-9.28-5.08-3.91-1.33-7.76-1.99-11.55-1.99Z" />
  </g>
  <path class="cls-2"
    d="m1036.63 61.22.13 451.1c0 4.77-1.88 9.17-5.15 12.31-3.14 3.14-7.54 5.15-12.31 5.15-9.67 0-17.46-7.79-17.46-17.33V61.22h.13c-3.89-4.14-6.28-9.8-6.28-15.95 0-13.06 10.55-23.61 23.48-23.61s23.48 10.55 23.48 23.61c.13 6.15-2.26 11.81-6.03 15.95ZM1180.68 246.21c0 9.67-5.9 18.08-14.19 21.6l-31.77 55.13v125.08l-34.79 34.91V308.87l34.16-58.77c-.25-1.26-.38-2.64-.38-3.89 0-12.94 10.55-23.61 23.61-23.61 12.81.13 23.36 10.67 23.36 23.61ZM1394.8 471.13c0 12.94-10.55 23.48-23.48 23.48-1.38 0-2.64-.13-3.89-.38l-58.77 34.16h-174.19l34.91-34.79h125.08l55.13-31.77c3.64-8.41 11.93-14.19 21.6-14.19 13.06-.13 23.61 10.42 23.61 23.48ZM1408.23 374.43c0 12.94-10.54 23.49-23.49 23.49-8.15 0-15.32-4.15-19.46-10.42h-109.13l-84.52 84.52-17.21-17.2 85.9-85.9V264.8c-7.41-4.01-12.44-11.81-12.44-20.71 0-13.07 10.56-23.61 23.49-23.61s23.61 10.54 23.61 23.61c0 8.15-4.15 15.32-10.42 19.46v99.59h99.46c4.02-7.41 11.8-12.44 20.71-12.44 12.94.26 23.49 10.8 23.49 23.73ZM1570.24 626.36l-451.1.13c-4.77 0-9.17-1.88-12.31-5.15-3.14-3.14-5.15-7.54-5.15-12.31 0-9.67 7.79-17.46 17.33-17.46h451.1v.13c4.14-3.89 9.8-6.28 15.95-6.28 13.06 0 23.61 10.55 23.61 23.48s-10.55 23.61-23.61 23.61c-6.03 0-11.55-2.26-15.82-6.15ZM1385.25 770.41c-9.67 0-18.08-5.9-21.6-14.19l-55.13-31.77h-125.08l-34.91-34.79h174.19l58.77 34.16c1.26-.25 2.64-.38 3.89-.38 12.94 0 23.61 10.55 23.61 23.61-.13 12.81-10.67 23.36-23.74 23.36ZM1160.46 984.53c-12.94 0-23.48-10.55-23.48-23.48 0-1.38.13-2.64.38-3.89l-34.16-58.77V724.2l34.79 34.91v125.08l31.77 55.13c8.41 3.64 14.19 11.93 14.19 21.6.13 13.06-10.42 23.61-23.48 23.61ZM1411 841.23c0 13.07-10.56 23.61-23.61 23.61-8.17 0-15.33-4.15-19.46-10.42h-99.6v99.34c7.41 4.01 12.44 11.81 12.44 20.71-.12 13.07-10.68 23.61-23.73 23.61s-23.49-10.54-23.49-23.49c0-8.15 4.15-15.32 10.42-19.46V846l-84.52-84.52 17.21-17.21 85.9 85.9h104.1c4.02-7.41 11.8-12.44 20.73-12.44 13.05 0 23.61 10.56 23.61 23.49ZM1001.84 1155.2l-.13-451.1c0-4.77 1.88-9.17 5.15-12.31 3.14-3.14 7.54-5.15 12.31-5.15 9.67 0 17.46 7.79 17.46 17.33v451.1h-.13c3.89 4.14 6.28 9.8 6.28 15.95 0 13.06-10.55 23.48-23.48 23.48s-23.61-10.55-23.61-23.48c-.13-6.03 2.26-11.68 6.15-15.82ZM857.8 970.21c0-9.67 5.9-18.08 14.19-21.6l31.77-55.13V768.4l34.79-34.91v174.19l-34.03 58.65c.25 1.26.38 2.64.38 3.89 0 12.94-10.55 23.61-23.61 23.61-12.94-.13-23.48-10.67-23.48-23.61ZM643.67 745.41c0-12.94 10.55-23.48 23.48-23.48 1.38 0 2.64.13 3.89.38l58.77-34.16H904l-34.91 34.79H744.01l-55.13 31.77c-3.64 8.41-11.93 14.19-21.6 14.19-13.06 0-23.61-10.55-23.61-23.48ZM810.45 972.35c0 13.05-10.54 23.61-23.49 23.61s-23.61-10.56-23.61-23.61c0-8.17 4.15-15.32 10.43-19.46v-99.6h-99.46c-4.02 7.41-11.8 12.44-20.73 12.44-12.93-.25-23.49-10.8-23.49-23.73s10.56-23.49 23.49-23.49c8.17 0 15.32 4.15 19.46 10.43h109.14l84.52-84.53 17.2 17.21-85.9 85.9v104.1c7.41 4.02 12.44 11.81 12.44 20.73ZM489.33 591.82l451.1-.13c4.77 0 9.17 1.88 12.31 5.15 3.14 3.14 5.15 7.54 5.15 12.31 0 9.67-7.79 17.46-17.33 17.46H489.33v-.13c-4.14 3.89-9.8 6.28-15.95 6.28-13.06 0-23.61-10.55-23.61-23.48s10.55-23.61 23.61-23.61c6.15-.13 11.81 2.26 15.95 6.15ZM674.31 447.78c9.67 0 18.08 5.9 21.6 14.19l55.13 31.77h125.21l34.91 34.79H736.97l-58.77-34.16c-1.26.25-2.64.38-3.89.38-12.94 0-23.61-10.55-23.61-23.61.13-12.81 10.67-23.36 23.61-23.36ZM899.24 233.65c12.94 0 23.48 10.55 23.48 23.48 0 1.38-.13 2.64-.38 3.89l34.16 58.77v174.19l-34.79-34.91V333.99l-31.77-55.13c-8.41-3.64-14.19-11.93-14.19-21.6-.13-13.06 10.42-23.61 23.48-23.61ZM900.12 456.82l-17.09 17.21-85.9-85.9h-104.1c-4.02 7.4-11.81 12.42-20.73 12.42-13.05 0-23.61-10.54-23.61-23.47s10.56-23.61 23.61-23.61c8.17 0 15.33 4.13 19.46 10.42h99.6v-99.46c-7.41-4.02-12.44-11.81-12.44-20.73.12-13.05 10.67-23.61 23.61-23.61s23.49 10.56 23.49 23.49c0 8.17-4.15 15.32-10.43 19.46V372.3l84.53 84.52Z" />
</svg>