<svg id="Capa_1" data-name="Capa 1" xmlns="http://www.w3.org/2000/svg" viewBox="0 0 2222.24 649.95">
  <defs>
    <style>
      .cls-2 {
        stroke-width: 0
      }
    </style>
  </defs>
  <path class="cls-2"
    d="M606.44 215.87c-2.08 1.71-3.12 3.97-3.12 6.79s1.27 5.06 3.81 6.72c2.54 1.66 8.41 3.63 17.6 5.89 9.19 2.26 16.33 5.66 21.41 10.18 5.08 4.53 7.62 11.13 7.62 19.82s-3.26 15.73-9.77 21.13c-6.51 5.4-15.08 8.11-25.71 8.11-15.34 0-29.15-5.68-41.44-17.05l12.89-15.8c10.44 9.15 20.09 13.72 28.96 13.72 3.97 0 7.09-.85 9.35-2.56s3.4-4.02 3.4-6.93-1.2-5.22-3.6-6.93c-2.4-1.71-7.16-3.44-14.27-5.2-11.27-2.68-19.52-6.17-24.74-10.46-5.22-4.3-7.83-11.04-7.83-20.23s3.3-16.28 9.91-21.27c6.6-4.99 14.85-7.48 24.74-7.48 6.47 0 12.93 1.11 19.4 3.33 6.47 2.22 12.1 5.36 16.91 9.42l-10.95 15.8c-8.41-6.37-17.09-9.56-26.05-9.56-3.6 0-6.44.86-8.52 2.56ZM682.45 196.53h21.62v96.87h-21.62v-96.87ZM808 196.53v19.26h-48.23v19.96h43.38v18.43h-43.38v20.09h49.75v19.12h-71.37v-96.87h69.84ZM917.61 228.68c0 15.52-6.14 25.55-18.43 30.07l24.53 34.64H897.1l-21.48-30.9h-14.97v30.9h-21.62v-96.87h36.72c15.06 0 25.8 2.54 32.22 7.62 6.42 5.08 9.63 13.26 9.63 24.53Zm-26.05 11.5c2.68-2.4 4.02-6.21 4.02-11.43s-1.39-8.8-4.16-10.74c-2.77-1.94-7.62-2.91-14.55-2.91h-16.21v28.69h15.8c7.39 0 12.42-1.2 15.1-3.6ZM1028.61 228.68c0 15.52-6.14 25.55-18.43 30.07l24.53 34.64h-26.61l-21.48-30.9h-14.97v30.9h-21.62v-96.87h36.72c15.06 0 25.8 2.54 32.22 7.62 6.42 5.08 9.63 13.26 9.63 24.53Zm-26.05 11.5c2.68-2.4 4.02-6.21 4.02-11.43s-1.39-8.8-4.16-10.74c-2.77-1.94-7.62-2.91-14.55-2.91h-16.21v28.69h15.8c7.39 0 12.42-1.2 15.1-3.6ZM1130.05 293.4l-9.01-20.93h-40.6l-9.01 20.93h-23l41.85-96.87h20.93l41.85 96.87h-23Zm-29.24-68.04-12.19 28.13h24.25l-12.06-28.13ZM1170.24 260.97v-18.43h49.33v18.43h-49.33ZM1320.87 196.53v19.26h-48.23v19.96h43.37v18.43h-43.37v20.09h49.75v19.12h-71.37v-96.87h69.84ZM1374.57 215.87c-2.08 1.71-3.12 3.97-3.12 6.79s1.27 5.06 3.81 6.72c2.54 1.66 8.41 3.63 17.6 5.89 9.19 2.26 16.33 5.66 21.41 10.18 5.08 4.53 7.62 11.13 7.62 19.82s-3.26 15.73-9.77 21.13-15.08 8.11-25.71 8.11c-15.34 0-29.15-5.68-41.44-17.05l12.89-15.8c10.44 9.15 20.09 13.72 28.96 13.72 3.97 0 7.09-.85 9.35-2.56s3.39-4.02 3.39-6.93-1.2-5.22-3.6-6.93c-2.4-1.71-7.16-3.44-14.27-5.2-11.27-2.68-19.52-6.17-24.74-10.46-5.22-4.3-7.83-11.04-7.83-20.23s3.3-16.28 9.91-21.27c6.6-4.99 14.85-7.48 24.74-7.48 6.47 0 12.93 1.11 19.4 3.33 6.47 2.22 12.1 5.36 16.91 9.42l-10.95 15.8c-8.41-6.37-17.09-9.56-26.05-9.56-3.6 0-6.44.86-8.52 2.56ZM1517.31 205.2c6.79 5.78 10.18 14.64 10.18 26.61s-3.49 20.72-10.46 26.26c-6.98 5.54-17.62 8.31-31.94 8.31h-12.89v27.02h-21.62v-96.87h34.23c14.87 0 25.71 2.89 32.5 8.66Zm-15.87 38.11c2.58-2.91 3.88-7.16 3.88-12.75s-1.69-9.56-5.06-11.92c-3.37-2.36-8.62-3.53-15.73-3.53h-12.33v32.57h14.55c7.21 0 12.1-1.45 14.69-4.36ZM1624.49 196.53v19.26h-48.23v19.96h43.37v18.43h-43.37v20.09h49.75v19.12h-71.37v-96.87h69.84ZM1734.11 228.68c0 15.52-6.15 25.55-18.43 30.07l24.53 34.64h-26.61l-21.48-30.9h-14.97v30.9h-21.62v-96.87h36.72c15.06 0 25.8 2.54 32.22 7.62 6.42 5.08 9.63 13.26 9.63 24.53Zm-26.05 11.5c2.68-2.4 4.02-6.21 4.02-11.43s-1.39-8.8-4.16-10.74c-2.77-1.94-7.62-2.91-14.55-2.91h-16.21v28.69h15.8c7.39 0 12.42-1.2 15.1-3.6ZM1835.55 293.4l-9.01-20.93h-40.6l-9.01 20.93h-23.01l41.85-96.87h20.92l41.85 96.87h-23.01Zm-29.24-68.04-12.2 28.13h24.25l-12.06-28.13ZM1947.8 196.53h21.62v96.87h-21.62l-46.15-60.7v60.7h-21.62v-96.87h20.23l47.53 62.36v-62.36ZM1997.96 293.4v-14.83l50.72-63.33h-49.06v-18.71h78.57v14.97l-50.58 63.05h51.41v18.85h-81.07ZM2177.14 293.4l-9.01-20.93h-40.6l-9.01 20.93h-23.01l41.85-96.87h20.92l41.85 96.87h-23.01Zm-29.24-68.04-12.2 28.13h24.25l-12.06-28.13Z" />
  <g style="isolation:isolate">
    <path class="cls-2"
      d="M612.07 412.93c3.93 0 7.32-.66 10.16-1.98 2.84-1.32 5.8-3.43 8.9-6.34l7.35 7.55c-7.16 7.93-15.85 11.9-26.07 11.9s-18.71-3.29-25.45-9.87c-6.74-6.58-10.11-14.9-10.11-24.96s3.44-18.45 10.3-25.16c6.87-6.71 15.54-10.06 26.03-10.06s19.24 3.87 26.27 11.61l-7.26 7.93c-3.23-3.1-6.27-5.26-9.14-6.48-2.87-1.22-6.24-1.84-10.11-1.84-6.84 0-12.58 2.21-17.22 6.63-4.64 4.42-6.97 10.06-6.97 16.93s2.31 12.61 6.92 17.22c4.61 4.61 10.08 6.92 16.4 6.92ZM753.42 377.62c0 11.16-4.87 18.19-14.61 21.09l17.71 24.58h-14.51l-16.16-22.74h-15v22.74h-11.42v-67.63h25.16c10.32 0 17.71 1.74 22.16 5.23s6.68 9.06 6.68 16.74Zm-15.19 9.58c2.32-2 3.48-5.21 3.48-9.63s-1.19-7.45-3.58-9.09c-2.39-1.65-6.64-2.47-12.77-2.47h-14.51v24.19h14.22c6.45 0 10.84-1 13.16-3ZM864.4 355.65v10.74h-36.09v17.9h32.41v10.16h-32.41v18.09h37.25v10.74h-48.67v-67.63h47.51ZM936.77 407.9 930 423.28h-12.19l29.8-67.63h12.19l29.8 67.63h-12.19l-6.77-15.38h-33.86Zm29.22-10.55-12.29-27.86-12.29 27.86h24.58ZM1066.22 366.1v57.18h-11.42V366.1h-20.51v-10.45h52.44v10.45h-20.51ZM1146.13 355.65h11.42v67.63h-11.42v-67.63ZM1279.94 413.95c-6.84 6.68-15.29 10.01-25.35 10.01s-18.51-3.34-25.35-10.01c-6.84-6.68-10.26-15-10.26-24.96s3.42-18.29 10.26-24.96c6.84-6.68 15.29-10.01 25.35-10.01s18.51 3.34 25.35 10.01c6.84 6.68 10.26 15 10.26 24.96s-3.42 18.29-10.26 24.96Zm-8.37-42.33c-4.61-4.77-10.27-7.16-16.98-7.16s-12.37 2.39-16.98 7.16-6.92 10.56-6.92 17.37 2.31 12.59 6.92 17.37c4.61 4.77 10.27 7.16 16.98 7.16s12.37-2.39 16.98-7.16c4.61-4.77 6.92-10.56 6.92-17.37s-2.31-12.59-6.92-17.37ZM1402.33 355.65h11.42v67.63h-12.38l-38.31-49.34v49.34h-11.42v-67.63h11.42l39.28 50.5v-50.5ZM1500 364.55c-3.32 0-6.05.68-8.18 2.03s-3.19 3.4-3.19 6.14 1.06 4.84 3.19 6.29c2.13 1.45 6.66 3.02 13.59 4.69 6.93 1.68 12.16 4.03 15.67 7.06 3.51 3.03 5.27 7.5 5.27 13.4s-2.23 10.69-6.68 14.37c-4.45 3.68-10.29 5.51-17.51 5.51-10.58 0-19.96-3.64-28.15-10.93l7.16-8.61c6.84 5.93 13.93 8.9 21.28 8.9 3.68 0 6.59-.79 8.76-2.37 2.16-1.58 3.24-3.68 3.24-6.29s-1.02-4.64-3.05-6.1c-2.03-1.45-5.53-2.77-10.5-3.97-4.97-1.19-8.74-2.29-11.32-3.29s-4.87-2.31-6.87-3.92c-4-3.03-6-7.68-6-13.93s2.27-11.08 6.82-14.46c4.55-3.39 10.17-5.08 16.88-5.08 4.32 0 8.61.71 12.87 2.13s7.93 3.42 11.03 6l-6.1 8.61c-2-1.81-4.71-3.29-8.13-4.45-3.42-1.16-6.79-1.74-10.11-1.74Z" />
  </g>
  <path class="cls-2"
    d="m283.59 81.3.06 201c0 2.13-.84 4.08-2.29 5.48-1.4 1.4-3.36 2.29-5.48 2.29-4.31 0-7.78-3.47-7.78-7.72V81.3h.06c-1.73-1.85-2.8-4.36-2.8-7.11 0-5.82 4.7-10.52 10.46-10.52s10.46 4.7 10.46 10.52c.06 2.74-1.01 5.26-2.69 7.11ZM347.77 163.73c0 4.31-2.63 8.06-6.32 9.62l-14.16 24.57v55.73l-15.5 15.56v-77.56l15.22-26.19c-.11-.56-.17-1.18-.17-1.73 0-5.76 4.7-10.52 10.52-10.52 5.71.06 10.41 4.76 10.41 10.52ZM443.18 263.95c0 5.76-4.7 10.46-10.46 10.46-.62 0-1.18-.06-1.73-.17l-26.19 15.22h-77.61l15.56-15.5h55.73l24.57-14.16c1.62-3.75 5.32-6.32 9.62-6.32 5.82-.06 10.52 4.64 10.52 10.46ZM449.16 220.86c0 5.77-4.7 10.47-10.47 10.47-3.63 0-6.83-1.85-8.67-4.64H381.4l-37.66 37.66-7.67-7.66 38.28-38.28v-46.39c-3.3-1.79-5.54-5.26-5.54-9.23 0-5.82 4.7-10.52 10.47-10.52s10.52 4.7 10.52 10.52c0 3.63-1.85 6.83-4.64 8.67v44.37h44.32c1.79-3.3 5.26-5.54 9.23-5.54 5.77.12 10.47 4.81 10.47 10.57ZM521.35 333.11l-201 .06c-2.13 0-4.08-.84-5.48-2.29-1.4-1.4-2.29-3.36-2.29-5.48 0-4.31 3.47-7.78 7.72-7.78h201v.06c1.85-1.73 4.36-2.8 7.11-2.8 5.82 0 10.52 4.7 10.52 10.46s-4.7 10.52-10.52 10.52c-2.69 0-5.15-1.01-7.05-2.74ZM438.93 397.3c-4.31 0-8.06-2.63-9.62-6.32l-24.57-14.16h-55.73l-15.56-15.5h77.61l26.19 15.22c.56-.11 1.18-.17 1.73-.17 5.76 0 10.52 4.7 10.52 10.52-.06 5.71-4.76 10.41-10.58 10.41ZM338.76 492.71c-5.76 0-10.46-4.7-10.46-10.46 0-.62.06-1.18.17-1.73l-15.22-26.19v-77.61l15.5 15.56v55.73l14.16 24.57c3.75 1.62 6.32 5.32 6.32 9.62.06 5.82-4.64 10.52-10.46 10.52ZM450.4 428.86c0 5.82-4.7 10.52-10.52 10.52-3.64 0-6.83-1.85-8.67-4.64h-44.38V479c3.3 1.79 5.54 5.26 5.54 9.23-.05 5.82-4.76 10.52-10.58 10.52s-10.46-4.7-10.46-10.46c0-3.63 1.85-6.83 4.64-8.67V431l-37.66-37.66 7.67-7.67 38.28 38.28h46.39c1.79-3.3 5.26-5.54 9.24-5.54 5.82 0 10.52 4.7 10.52 10.46ZM268.09 568.75l-.06-201c0-2.13.84-4.08 2.29-5.48 1.4-1.4 3.36-2.29 5.48-2.29 4.31 0 7.78 3.47 7.78 7.72v201h-.06c1.73 1.85 2.8 4.36 2.8 7.11 0 5.82-4.7 10.46-10.46 10.46s-10.52-4.7-10.52-10.46c-.06-2.69 1.01-5.2 2.74-7.05ZM203.9 486.33c0-4.31 2.63-8.06 6.32-9.62l14.16-24.57v-55.73l15.5-15.56v77.61l-15.16 26.13c.11.56.17 1.18.17 1.73 0 5.76-4.7 10.52-10.52 10.52-5.76-.06-10.46-4.76-10.46-10.52ZM108.49 386.16c0-5.76 4.7-10.46 10.46-10.46.62 0 1.18.06 1.73.17l26.19-15.22h77.61l-15.56 15.5h-55.73l-24.57 14.16a10.451 10.451 0 0 1-9.62 6.32c-5.82 0-10.52-4.7-10.52-10.46ZM182.81 487.28c0 5.82-4.7 10.52-10.46 10.52s-10.52-4.7-10.52-10.52c0-3.64 1.85-6.83 4.65-8.67v-44.38h-44.32c-1.79 3.3-5.26 5.54-9.24 5.54-5.76-.11-10.47-4.81-10.47-10.58s4.7-10.47 10.47-10.47c3.64 0 6.83 1.85 8.67 4.65h48.63l37.66-37.66 7.66 7.67-38.28 38.28v46.39c3.3 1.79 5.54 5.26 5.54 9.24ZM39.72 317.73l201-.06c2.13 0 4.08.84 5.48 2.29 1.4 1.4 2.29 3.36 2.29 5.48 0 4.31-3.47 7.78-7.72 7.78H39.72v-.06c-1.85 1.73-4.36 2.8-7.11 2.8-5.82 0-10.52-4.7-10.52-10.46s4.7-10.52 10.52-10.52c2.74-.06 5.26 1.01 7.11 2.74ZM122.15 253.54c4.31 0 8.06 2.63 9.62 6.32l24.57 14.16h55.79l15.56 15.5h-77.61l-26.19-15.22c-.56.11-1.18.17-1.73.17-5.76 0-10.52-4.7-10.52-10.52.06-5.71 4.76-10.41 10.52-10.41ZM222.37 158.13c5.76 0 10.46 4.7 10.46 10.46 0 .62-.06 1.18-.17 1.73l15.22 26.19v77.61l-15.5-15.56v-55.73l-14.16-24.57a10.451 10.451 0 0 1-6.32-9.62c-.06-5.82 4.64-10.52 10.46-10.52ZM222.76 257.57l-7.61 7.67-38.28-38.28h-46.39c-1.79 3.3-5.26 5.54-9.24 5.54-5.82 0-10.52-4.7-10.52-10.46s4.7-10.52 10.52-10.52c3.64 0 6.83 1.84 8.67 4.64h44.38v-44.32c-3.3-1.79-5.54-5.26-5.54-9.24.06-5.82 4.75-10.52 10.52-10.52s10.47 4.7 10.47 10.47c0 3.64-1.85 6.83-4.65 8.67v48.69l37.66 37.66Z" />
</svg>