<svg data-name="Capa 1" xmlns="http://www.w3.org/2000/svg" viewBox="0 0 2222.243 649.946">
    <path
        d="m422.388 122.174.046 167.288a6.294 6.294 0 0 1-1.909 4.564 6.455 6.455 0 0 1-11.038-4.518V122.174h.047a8.631 8.631 0 0 1-2.329-5.914 8.709 8.709 0 1 1 17.418 0 8.553 8.553 0 0 1-2.235 5.914ZM475.806 190.775a8.727 8.727 0 0 1-5.263 8.011l-11.782 20.445v46.386l-12.9 12.947v-64.549l12.668-21.8a7.6 7.6 0 0 1-.14-1.444 8.709 8.709 0 1 1 17.418 0ZM555.212 274.186a8.726 8.726 0 0 1-8.712 8.714 7.241 7.241 0 0 1-1.444-.14l-21.8 12.668h-64.6l12.948-12.9H518l20.446-11.782a8.745 8.745 0 0 1 16.766 3.446ZM506.916 234.18v.42l-.419-.42h.419z" />
    <path d="M506.916 234.18v.42l-.419-.42h.419z" />
    <path
        d="M560.2 238.325a8.726 8.726 0 0 1-8.709 8.709 8.625 8.625 0 0 1-7.219-3.865H503.8l-31.343 31.343-6.381-6.38 31.856-31.856v-38.608a8.736 8.736 0 1 1 12.854-7.685 8.622 8.622 0 0 1-3.866 7.219v36.932h-.42l.419.419v-.419H543.8a8.752 8.752 0 0 1 7.685-4.611 8.867 8.867 0 0 1 8.715 8.802ZM620.273 331.749l-167.287.047a6.3 6.3 0 0 1-4.565-1.91 6.455 6.455 0 0 1 4.518-11.037h167.287v.046a8.637 8.637 0 0 1 5.915-2.328 8.732 8.732 0 1 1 0 17.464 8.648 8.648 0 0 1-5.868-2.282ZM551.672 385.168a8.726 8.726 0 0 1-8.01-5.263l-20.445-11.783h-46.386l-12.947-12.9h64.6l21.8 12.667a7.6 7.6 0 0 1 1.444-.139 8.709 8.709 0 1 1-.047 17.418ZM468.308 464.573a8.726 8.726 0 0 1-8.709-8.709 7.175 7.175 0 0 1 .14-1.444l-12.668-21.8v-64.6l12.9 12.947v46.386l11.783 20.445a8.745 8.745 0 0 1-3.446 16.766ZM508.267 416.278h-.419l.419-.373v.373z" />
    <path d="M508.267 416.278h-.419l.419-.373v.373z" />
    <path
        d="M504.122 469.6a8.726 8.726 0 0 1-8.709-8.709 8.625 8.625 0 0 1 3.865-7.219V413.2l-31.343-31.343 6.381-6.38 31.855 31.855h38.608a8.736 8.736 0 1 1 7.685 12.854 8.623 8.623 0 0 1-7.219-3.866h-36.932v-.419l-.419.419h.419v36.839a8.738 8.738 0 0 1-4.191 16.44ZM409.487 527.865l-.046-167.288a6.294 6.294 0 0 1 1.909-4.564 6.455 6.455 0 0 1 11.038 4.518v167.287h-.047a8.7 8.7 0 0 1-6.38 14.624 8.766 8.766 0 0 1-8.756-8.709 8.354 8.354 0 0 1 2.282-5.868ZM356.069 459.264a8.726 8.726 0 0 1 5.262-8.01l11.783-20.446v-46.386l12.9-12.947v64.6l-12.62 21.745a7.6 7.6 0 0 1 .139 1.444 8.732 8.732 0 1 1-17.464 0ZM276.663 375.9a8.726 8.726 0 0 1 8.709-8.709 7.249 7.249 0 0 1 1.444.139l21.8-12.667h64.595l-12.947 12.9h-46.39l-20.445 11.783a8.745 8.745 0 0 1-16.766-3.446ZM324.912 415.859v-.42l.419.42h-.419z" />
    <path d="M324.912 415.859v-.42l.419.42h-.419z" />
    <path
        d="M271.633 411.714a8.726 8.726 0 0 1 8.709-8.709 8.623 8.623 0 0 1 7.219 3.865h40.471l31.343-31.343 6.381 6.38-31.856 31.856v38.608a8.736 8.736 0 1 1-12.853 7.685 8.622 8.622 0 0 1 3.865-7.219v-36.932h.419l-.419-.419v.419h-36.885a8.752 8.752 0 0 1-7.685 4.611 8.867 8.867 0 0 1-8.709-8.802ZM219.426 318.942l167.287-.047a6.291 6.291 0 0 1 4.564 1.91 6.454 6.454 0 0 1-4.517 11.037H219.426v-.042a8.632 8.632 0 0 1-5.915 2.328 8.732 8.732 0 1 1 0-17.464 8.383 8.383 0 0 1 5.915 2.278ZM288.027 265.524a8.725 8.725 0 0 1 8.01 5.262l20.445 11.783h46.433l12.947 12.9h-64.6l-21.8-12.667a7.6 7.6 0 0 1-1.444.14 8.709 8.709 0 1 1 0-17.418ZM371.438 186.118a8.726 8.726 0 0 1 8.709 8.709 7.248 7.248 0 0 1-.14 1.444l12.668 21.8v64.6l-12.9-12.947v-46.395l-11.783-20.445a8.745 8.745 0 0 1 3.447-16.766ZM331.479 234.367h.372l-.372.419v-.419z" />
    <path d="M331.479 234.367h.372l-.372.419v-.419z" />
    <path
        d="M335.577 181.088a8.726 8.726 0 0 1 8.709 8.709 8.625 8.625 0 0 1-3.865 7.219v40.518l31.343 31.343-6.334 6.38-31.856-31.857h-38.608a8.736 8.736 0 1 1-7.684-12.854 8.623 8.623 0 0 1 7.218 3.865h36.932v.419l.419-.419h-.419v-36.883a8.738 8.738 0 0 1 4.145-16.44ZM691.089 234.166a6.955 6.955 0 0 0-2.6 5.651 6.384 6.384 0 0 0 3.172 5.594q3.171 2.076 14.647 4.9t17.82 8.477q6.341 5.654 6.343 16.493a21.771 21.771 0 0 1-8.131 17.589q-8.132 6.747-21.395 6.747-19.146 0-34.485-14.186l10.726-13.149Q690.223 283.7 701.3 283.7q4.957 0 7.785-2.134a6.847 6.847 0 0 0 2.826-5.767 6.723 6.723 0 0 0-3-5.767q-3-2.133-11.879-4.325-14.073-3.344-20.588-8.707t-6.516-16.839q0-11.475 8.246-17.7t20.588-6.229A49.512 49.512 0 0 1 714.906 219a43.261 43.261 0 0 1 14.071 7.843l-9.112 13.147q-10.5-7.958-21.683-7.958a10.845 10.845 0 0 0-7.093 2.134ZM754.349 218.077h17.992V298.7h-17.992ZM858.841 218.077v16.031H818.7v16.609h36.1v15.34h-36.1v16.723h41.41v15.92h-59.4v-80.623ZM950.07 244.835q0 19.376-15.339 25.027l20.414 28.838H933l-17.877-25.719h-12.456V298.7h-17.992v-80.623h30.564q18.8 0 26.815 6.343t8.016 20.415Zm-21.683 9.572q3.344-3 3.345-9.514t-3.46-8.939q-3.461-2.423-12.111-2.422h-13.494v23.874h13.149q9.225 0 12.571-2.999ZM1042.453 244.835q0 19.376-15.339 25.027l20.414 28.834h-22.145l-17.877-25.719H995.05V298.7h-17.992v-80.623h30.564q18.8 0 26.815 6.343t8.016 20.415Zm-21.683 9.572q3.343-3 3.345-9.514t-3.46-8.939q-3.461-2.423-12.111-2.422H995.05v23.874h13.15q9.224 0 12.57-2.999ZM1126.877 298.7l-7.5-17.416h-33.793l-7.5 17.416h-19.145l34.831-80.619h17.416l34.831 80.619Zm-24.336-56.63-10.149 23.413h20.183ZM1160.324 271.708v-15.34h41.06v15.34ZM1285.693 218.077v16.031h-40.137v16.609h36.1v15.34h-36.1v16.723h41.4v15.92h-59.4v-80.623ZM1330.384 234.166a6.956 6.956 0 0 0-2.6 5.651 6.386 6.386 0 0 0 3.172 5.594q3.171 2.076 14.648 4.9t17.819 8.477q6.344 5.654 6.344 16.493a21.768 21.768 0 0 1-8.131 17.589q-8.132 6.747-21.4 6.747-19.146 0-34.485-14.186l10.726-13.149q13.032 11.418 24.1 11.419 4.957 0 7.785-2.134a6.849 6.849 0 0 0 2.825-5.767 6.725 6.725 0 0 0-3-5.767q-3-2.133-11.879-4.325-14.073-3.344-20.587-8.707t-6.517-16.839q0-11.475 8.246-17.7t20.588-6.229A49.5 49.5 0 0 1 1354.2 219a43.266 43.266 0 0 1 14.072 7.843l-9.112 13.147q-10.5-7.958-21.683-7.958a10.845 10.845 0 0 0-7.093 2.134ZM1449.178 225.285q8.476 7.211 8.477 22.145t-8.708 21.856q-8.709 6.92-26.584 6.92h-10.727V298.7h-17.992v-80.623h28.487q18.569 0 27.047 7.208ZM1435.972 257q3.226-3.634 3.229-10.611t-4.21-9.919q-4.211-2.942-13.09-2.941h-10.265v27.1h12.11q8.995.007 12.226-3.629ZM1538.388 218.077v16.031h-40.137v16.609h36.1v15.34h-36.1v16.723h41.406v15.92h-59.4v-80.623ZM1629.618 244.835q0 19.376-15.339 25.027l20.414 28.834h-22.145l-17.877-25.719h-12.456V298.7h-17.992v-80.623h30.563q18.8 0 26.816 6.343t8.016 20.415Zm-21.683 9.572q3.343-3 3.345-9.514t-3.46-8.939q-3.46-2.423-12.111-2.422h-13.494v23.874h13.149q9.225 0 12.571-2.999ZM1714.041 298.7l-7.5-17.416h-33.794l-7.5 17.416h-19.146l34.832-80.619h17.415l34.832 80.619Zm-24.335-56.63-10.15 23.413h20.185ZM1807.462 218.077h17.993V298.7h-17.993l-38.406-50.516V298.7h-17.992v-80.623h16.836l39.559 51.9ZM1849.213 298.7v-12.345l42.213-52.708H1850.6v-15.57h65.395v12.456l-42.1 52.478h42.789V298.7ZM1998.341 298.7l-7.5-17.416h-33.794l-7.5 17.416H1930.4l34.833-80.619h17.415l34.832 80.619Zm-24.335-56.63-10.15 23.413h20.184Z" />
    <g style="isolation:isolate">
        <path
            d="M695.775 398.177a19.891 19.891 0 0 0 8.455-1.65 29.107 29.107 0 0 0 7.408-5.275l6.12 6.282q-8.939 9.9-21.7 9.9t-21.177-8.214q-8.416-8.214-8.415-20.774a28.067 28.067 0 0 1 8.575-20.937q8.577-8.373 21.661-8.374a28.326 28.326 0 0 1 21.862 9.662l-6.039 6.6a26.4 26.4 0 0 0-7.609-5.4 21.351 21.351 0 0 0-8.415-1.529A20 20 0 0 0 682.167 364a18.6 18.6 0 0 0-5.8 14.092 19.452 19.452 0 0 0 5.758 14.333 18.647 18.647 0 0 0 13.65 5.752ZM813.419 368.786q0 13.933-12.159 17.554L816 406.793h-12.083L790.47 387.87h-12.481v18.923h-9.5v-56.286h20.936q12.882 0 18.44 4.349t5.554 13.93Zm-12.642 7.972q2.9-2.494 2.9-8.012t-2.98-7.569q-2.981-2.054-10.629-2.054h-12.079v20.131h11.836q8.052 0 10.952-2.496ZM905.779 350.507v8.939h-30.036v14.9h26.976v8.454h-26.976v15.058h31v8.938h-40.5v-56.289ZM966.01 393.991l-5.637 12.8h-10.146l24.8-56.286h10.146l24.8 56.286h-10.144l-5.636-12.8Zm24.317-8.778-10.227-23.19-10.227 23.19ZM1073.749 359.2v47.589h-9.5V359.2h-17.071v-8.7h43.643v8.7ZM1140.26 350.507h9.5v56.286h-9.5ZM1251.624 399.023a30.871 30.871 0 0 1-42.195 0 29.552 29.552 0 0 1 0-41.55 30.871 30.871 0 0 1 42.195 0 29.552 29.552 0 0 1 0 41.55Zm-6.966-35.229a19.737 19.737 0 0 0-28.264 0 21.022 21.022 0 0 0 0 28.907 19.737 19.737 0 0 0 28.264 0 21.019 21.019 0 0 0 0-28.907ZM1353.485 350.507h9.5v56.286h-10.308l-31.886-41.066v41.066h-9.5v-56.286h9.5l32.692 42.033ZM1434.773 357.915a12.472 12.472 0 0 0-6.8 1.692 5.651 5.651 0 0 0-2.658 5.113 5.945 5.945 0 0 0 2.658 5.234q2.657 1.81 11.313 3.906t13.045 5.878q4.388 3.785 4.389 11.152a14.778 14.778 0 0 1-5.557 11.958q-5.556 4.59-14.574 4.59a34.23 34.23 0 0 1-23.433-9.1l5.959-7.166q8.535 7.41 17.715 7.408a12.09 12.09 0 0 0 7.287-1.973 6.174 6.174 0 0 0 2.7-5.234 5.876 5.876 0 0 0-2.537-5.073q-2.535-1.812-8.736-3.3a78.062 78.062 0 0 1-9.421-2.737A21.234 21.234 0 0 1 1420.4 377q-4.994-3.783-4.992-11.594t5.677-12.038q5.677-4.228 14.052-4.228a33.707 33.707 0 0 1 10.709 1.771 28.022 28.022 0 0 1 9.179 4.993l-5.073 7.167a19.165 19.165 0 0 0-6.764-3.7 26.039 26.039 0 0 0-8.415-1.456Z" />
    </g>
</svg>