<svg data-name="Capa 1" xmlns="http://www.w3.org/2000/svg" viewBox="0 0 980 980" width="973.33" height="981.33">
  <style>
    path {
      fill: #000;
    }

    @media (prefers-color-scheme: dark) {
      path {
        fill: #FFF;
      }
    }
  </style>
  <path class="cls-1"
    d="m495.59 47.55.1 364.97c0 3.86-1.52 7.42-4.17 9.96-2.54 2.54-6.1 4.17-9.96 4.17-7.82 0-14.12-6.3-14.12-14.02V47.55h.1c-3.15-3.35-5.08-7.93-5.08-12.9 0-10.57 8.53-19.1 19-19.1s19 8.53 19 19.1c.1 4.98-1.83 9.55-4.88 12.9ZM612.13 197.22c0 7.82-4.78 14.63-11.48 17.48l-25.71 44.61v101.2l-28.14 28.25V247.93l27.64-47.55a16.8 16.8 0 0 1-.3-3.15c0-10.47 8.53-19.1 19.1-19.1 10.36.1 18.9 8.64 18.9 19.1ZM785.37 379.2c0 10.47-8.53 19-19 19-1.12 0-2.13-.1-3.15-.3l-47.55 27.64H574.74l28.25-28.15h101.2l44.61-25.71c2.95-6.81 9.65-11.48 17.48-11.48 10.57-.1 19.1 8.43 19.1 19ZM796.24 300.96c0 10.47-8.53 19-19 19-6.6 0-12.39-3.35-15.75-8.43H673.2l-68.38 68.38-13.93-13.92 69.5-69.5v-84.24c-6-3.24-10.06-9.55-10.06-16.76 0-10.57 8.54-19.1 19-19.1s19.1 8.53 19.1 19.1c0 6.6-3.35 12.39-8.43 15.75v80.57h80.47c3.25-6 9.55-10.06 16.76-10.06 10.47.21 19 8.74 19 19.2ZM927.31 504.78l-364.97.1c-3.86 0-7.42-1.52-9.96-4.17-2.54-2.54-4.17-6.1-4.17-9.96 0-7.82 6.3-14.12 14.02-14.12H927.2v.1c3.35-3.15 7.93-5.08 12.9-5.08 10.57 0 19.1 8.53 19.1 19s-8.53 19.1-19.1 19.1c-4.88 0-9.35-1.83-12.8-4.98ZM777.65 621.33c-7.82 0-14.63-4.78-17.48-11.48l-44.61-25.71h-101.2l-28.25-28.15h140.93l47.55 27.64c1.02-.2 2.13-.3 3.15-.3 10.47 0 19.1 8.53 19.1 19.1-.1 10.36-8.64 18.9-19.2 18.9ZM595.77 794.57c-10.47 0-19-8.53-19-19 0-1.12.1-2.13.3-3.15l-27.64-47.55V583.94l28.14 28.25v101.2L603.28 758c6.81 2.95 11.48 9.65 11.48 17.48.1 10.57-8.43 19.1-19 19.1ZM798.48 678.63c0 10.57-8.54 19.1-19.1 19.1-6.61 0-12.41-3.35-15.75-8.43h-80.58v80.37c6 3.24 10.06 9.55 10.06 16.76-.1 10.57-8.64 19.1-19.2 19.1s-19-8.53-19-19c0-6.6 3.35-12.39 8.43-15.75v-88.29l-68.38-68.38 13.93-13.93 69.5 69.5h84.23c3.25-6 9.55-10.06 16.77-10.06 10.56 0 19.1 8.54 19.1 19ZM467.44 932.65l-.1-364.97c0-3.86 1.52-7.42 4.17-9.96 2.54-2.54 6.1-4.17 9.96-4.17 7.82 0 14.12 6.3 14.12 14.02v364.97h-.1c3.15 3.35 5.08 7.93 5.08 12.9 0 10.57-8.53 19-19 19s-19.1-8.53-19.1-19c-.1-4.88 1.83-9.45 4.98-12.8ZM350.9 782.98c0-7.82 4.78-14.63 11.48-17.48l25.71-44.61v-101.2l28.15-28.25v140.93l-27.54 47.45c.2 1.02.3 2.13.3 3.15 0 10.47-8.53 19.1-19.1 19.1-10.47-.1-19-8.64-19-19.1ZM177.66 601.11c0-10.47 8.53-19 19-19 1.12 0 2.13.1 3.15.3l47.55-27.64h140.93l-28.25 28.15h-101.2l-44.61 25.71c-2.95 6.81-9.65 11.48-17.48 11.48-10.57 0-19.1-8.53-19.1-19ZM312.59 784.71c0 10.56-8.53 19.1-19 19.1s-19.1-8.54-19.1-19.1c0-6.61 3.35-12.39 8.44-15.75v-80.58h-80.47c-3.25 6-9.55 10.06-16.77 10.06-10.46-.2-19-8.74-19-19.2s8.54-19 19-19c6.61 0 12.39 3.35 15.75 8.44h88.3l68.38-68.39 13.92 13.93-69.5 69.5v84.23c6 3.25 10.06 9.55 10.06 16.77ZM52.79 476.84l364.97-.1c3.86 0 7.42 1.52 9.96 4.17 2.54 2.54 4.17 6.1 4.17 9.96 0 7.82-6.3 14.12-14.02 14.12H52.79v-.1c-3.35 3.15-7.93 5.08-12.9 5.08-10.57 0-19.1-8.53-19.1-19s8.53-19.1 19.1-19.1c4.98-.1 9.55 1.83 12.9 4.98ZM202.45 360.3c7.82 0 14.63 4.78 17.48 11.48l44.61 25.71h101.3l28.25 28.15H253.16L205.61 398c-1.02.2-2.13.3-3.15.3-10.47 0-19.1-8.53-19.1-19.1.1-10.36 8.64-18.9 19.1-18.9ZM384.43 187.06c10.47 0 19 8.53 19 19 0 1.12-.1 2.13-.3 3.15l27.64 47.55v140.93l-28.15-28.25v-101.2l-25.71-44.61c-6.81-2.95-11.48-9.65-11.48-17.48-.1-10.57 8.43-19.1 19-19.1ZM385.15 367.61l-13.83 13.93-69.5-69.5h-84.23c-3.25 5.99-9.55 10.05-16.77 10.05-10.56 0-19.1-8.53-19.1-18.99s8.54-19.1 19.1-19.1c6.61 0 12.41 3.34 15.75 8.43h80.58v-80.47c-6-3.25-10.06-9.55-10.06-16.77.1-10.56 8.63-19.1 19.1-19.1s19 8.54 19 19c0 6.61-3.35 12.39-8.44 15.75v88.4l68.39 68.38Z" />
</svg>